<svg xmlns="http://www.w3.org/2000/svg" viewBox="0 0 66.64 66.64"><defs><style>.cls-1{fill:#fff;}</style></defs><title>資產 1</title><g id="圖層_2" data-name="圖層 2"><g id="圖層_1-2" data-name="圖層 1"><path class="cls-1" d="M48.28,53.12l4.77-4.84L66.64,61.87,61.8,66.64ZM28.36,50a20.73,20.73,0,0,0,8.4-1.72,22.36,22.36,0,0,0,6.91-4.65,21.18,21.18,0,0,0,4.65-6.87A21.43,21.43,0,0,0,50,28.28,21.34,21.34,0,0,0,43.67,13a22.54,22.54,0,0,0-6.91-4.65,21.37,21.37,0,0,0-16.8,0A22.54,22.54,0,0,0,13.05,13,21.34,21.34,0,0,0,6.72,28.28,21.43,21.43,0,0,0,8.4,36.76a21.18,21.18,0,0,0,4.65,6.87A22.36,22.36,0,0,0,20,48.28,20.73,20.73,0,0,0,28.36,50ZM56.72,28.28a27.71,27.71,0,0,1-2.23,11.06,28.05,28.05,0,0,1-6.09,9,29.12,29.12,0,0,1-9,6,27.41,27.41,0,0,1-11,2.23,27.41,27.41,0,0,1-11-2.23,29.12,29.12,0,0,1-9-6,28.05,28.05,0,0,1-6.09-9A27.71,27.71,0,0,1,0,28.28a27.33,27.33,0,0,1,2.23-11,28.14,28.14,0,0,1,6.09-9,29.12,29.12,0,0,1,9-6A27.41,27.41,0,0,1,28.36,0a27.41,27.41,0,0,1,11,2.23,29.12,29.12,0,0,1,9,6,28.14,28.14,0,0,1,6.09,9A27.33,27.33,0,0,1,56.72,28.28ZM31.72,25H43.36v6.64H31.72V43.28H25V31.64H13.36V25H25V13.28h6.72Z"/></g></g></svg>