<svg xmlns="http://www.w3.org/2000/svg" viewBox="0 0 30.51 30.51">
    <g id="content">
        <path class="cls-1" d="M22.06,15.89l-7.88,6.23a1.25,1.25,0,0,1-1.59,0,.88.88,0,0,1-.38-.7V9a.78.78,0,0,1,.31-.64h.07a1.16,1.16,0,0,1,1.59,0L22,14.62h.06a.79.79,0,0,1,0,1.27ZM26,4.51A14.54,14.54,0,0,0,15.26,0,14.69,14.69,0,0,0,4.48,4.48,14.69,14.69,0,0,0,0,15.26,14.68,14.68,0,0,0,4.48,26a14.69,14.69,0,0,0,10.78,4.48A14.68,14.68,0,0,0,26,26a14.68,14.68,0,0,0,4.48-10.77A14.54,14.54,0,0,0,26,4.51Z"/>
    </g>
</svg>