<svg id="圖層_1" data-name="圖層 1" xmlns="http://www.w3.org/2000/svg" viewBox="0 0 165 40"><defs><style>.cls-1{fill:#fff;}</style></defs><title>未命名-1</title><path class="cls-1" d="M7.09,2.19a.23.23,0,0,1,.21-.25.93.93,0,0,1,.46,0,.68.68,0,0,1,.37.29c.14.22.29.29.46.21.44-.25.81-.11,1.12.41a1,1,0,0,0,.6.48c.26.07.43.36.5.87a1.87,1.87,0,0,1-.09,1.12c-.12.24-.13.36,0,.36s.09,0,0,.14a3.13,3.13,0,0,0-.52,1.06,11,11,0,0,1-1.2,2.41,10,10,0,0,0-.66,1.2,2.15,2.15,0,0,1-.59.77,2.78,2.78,0,0,0-.66.93l-.29.62.71.71a2.74,2.74,0,0,1,.58.69,2,2,0,0,1,.12.8,5.75,5.75,0,0,1,0,1.27,7.24,7.24,0,0,1-.46,1.22q-.5,1.08-.81,1.95a11,11,0,0,1-1.1,2.16c-.52.86-.88,1.5-1.08,1.91a2.27,2.27,0,0,0-.2.6.77.77,0,0,0,.2.4c.28.33.5.41.67.25a14.6,14.6,0,0,0,1-1.95l.38-.67s0,.14,0,.33a21.45,21.45,0,0,0-.13,3.12q0,2.45.09,3.48c.19,1.75.29,2.89.29,3.45a1.66,1.66,0,0,1-.25,1.08c-.42.41-.89.36-1.41-.17a6.84,6.84,0,0,1-.85-1.1,2.49,2.49,0,0,1-.48-1,4.93,4.93,0,0,0-.25-.65,2.09,2.09,0,0,1-.21-.64.84.84,0,0,0-.27-.46A.47.47,0,0,1,3,29.1a8.06,8.06,0,0,0,.25-1.64q.17-2.12-.42-1.95c-.17.06-.35,0-.56-.29a7.36,7.36,0,0,1-.81-1.37A3.9,3.9,0,0,1,1,22.17a2.48,2.48,0,0,1,.83-1.26C3.25,19.36,4,18.46,4,18.21a8.43,8.43,0,0,1,.66-1.37,7,7,0,0,0,1.08-2.57c0-.17-.16-.19-.47-.07a2.64,2.64,0,0,0-.77.44,2.16,2.16,0,0,1-.91.29,1.34,1.34,0,0,1-.88-.08A5.27,5.27,0,0,1,2,13.27,9.38,9.38,0,0,1,1.53,12a1,1,0,0,1,.17-.64,11.41,11.41,0,0,1,1.91-2.2C4.71,8.06,5.43,7.32,5.77,7A13.08,13.08,0,0,0,7.11,5.11,4.1,4.1,0,0,0,7.8,3.72a2.07,2.07,0,0,0-.21-.83c-.14-.3-.26-.45-.37-.45S7.09,2.35,7.09,2.19ZM6.26,24.27c.14-.14.18-.24.11-.29s-.15,0-.23.2,0,.21,0,.21A.61.61,0,0,0,6.26,24.27ZM17.14,6.17s0-.59,0-1.78A8.16,8.16,0,0,1,17.3,2.6c.09,0,.33.32.75.94a4.27,4.27,0,0,1,.62,1.1c0,.14.06.21.17.21s.19.16.25.49.15.83.29,1.5.22,1.16.25,1.33a.19.19,0,0,0,.16.18,1.7,1.7,0,0,0,.58-.1c.25-.08.38-.07.38,0s-.18.21-.54.29-.46.14-.46.17.24.05.62,0,.54-.2.54-.34c0-.3.15-.3.46,0a1,1,0,0,0,.66.25,2.9,2.9,0,0,1,1.6.61q.9.6.93,1.05c0,.2-.47.72-1.41,1.58-.55.5-.83.86-.83,1.08s-.07.14-.22,0-.71.28-1.66,1.22a12.29,12.29,0,0,0-1.39,1.46c.11.08.27.06.49-.07s.34-.25.34-.39S20,15,20.15,15a.34.34,0,0,1,.26.33c0,.12.17.2.5.25a2.58,2.58,0,0,0,1,0,2.53,2.53,0,0,1,.66.31,5,5,0,0,1,.67.44c.05.08.15,0,.29-.25a.81.81,0,0,1,.12-.25,1.66,1.66,0,0,1,.12-.31l.15-.21s.08,0,.1,0,0,.2-.1.44-.11.36,0,.37.13.09-.06.23a1.08,1.08,0,0,0-.4.64,1.87,1.87,0,0,1-.35.77c-.14.11-.21.15-.21.13s.09-.2,0-.19a3.64,3.64,0,0,0-.7.35,6.66,6.66,0,0,0-1.43,1.21,8.1,8.1,0,0,0-1.19,1.45,9.71,9.71,0,0,1-1,1.49c-.45.67-.58,1-.42,1,.33,0,.75.4,1.25,1.2.11.17.27.15.5,0a12.42,12.42,0,0,0,1.86-3.57,4.26,4.26,0,0,1,.52-1.06.92.92,0,0,0,.23-.6,1.19,1.19,0,0,1,.37-.87c.09-.06.13,0,.13,0a.34.34,0,0,1-.17.31.33.33,0,0,0-.16.29q0,.2.18.09c.13-.07.18-.07.15,0a2.93,2.93,0,0,1-.25.66c-.17.42-.24.65-.21.71s.08,0,.17-.13.29-.58.62-1.33l.33-.74-.08,1.08a8.2,8.2,0,0,1-.23,1.59,1.09,1.09,0,0,0-.06.69,2.83,2.83,0,0,1-.25,1.2c-.22.61-.28.9-.17.87s.14,0,.09.29a.63.63,0,0,1-.05.21c-.3,1.22-.19,1.77.34,1.66a1.42,1.42,0,0,0,.58-.29c.36-.22.56-.3.62-.25h.08l0,0c-.05-.08,0-.21.25-.37s.3-.29.25-.38.05-.31.33-.6.49-.43.62-.43.18-.06.11-.17,0-.3.23-.58a2.29,2.29,0,0,0,.41-.67l.08-.16a.22.22,0,0,1,0,.16q0,.25.24-.12c.28-.36.12-.95-.49-1.78a1.91,1.91,0,0,1-.46-.77c0-.13-.14-.33-.41-.6s-.42-.47-.42-.56-.21-.35-.62-.75-.6-.7-.54-.89.05-.13.08-.15a.17.17,0,0,1,.13,0,.81.81,0,0,1,.2.21c.22.25.37.37.44.37a18.2,18.2,0,0,1,1.85,1.25l.89.6.64.44.25.12a8.43,8.43,0,0,0,.77-1.74,13.72,13.72,0,0,0,.56-1.93c.08-.46.07-.71,0-.75a2.26,2.26,0,0,0-.94.23,3.32,3.32,0,0,1-1,.25c-.21,0-.31.08-.31.25s-.06.25-.17.25-.16-.09-.16-.27-.12-.3-.36-.36-.35-.14-.35-.27a.73.73,0,0,0-.25-.45,2,2,0,0,1-.33-1.14,5.39,5.39,0,0,0-.21-1.19.5.5,0,0,1,.11-.56c.15-.16.19-.28.12-.35s0-.33.25-.79.4-.68.5-.68.14-.09.14-.25a1.33,1.33,0,0,1,.11-.44,1.89,1.89,0,0,1,.22-.45q.14-.2.21-.15c.06,0,.1,0,.13-.08a.76.76,0,0,0,0-.25c0-.31.09-.49.27-.56s.25-.23.23-.48,0-.25,0-.25a.82.82,0,0,0-.14.17,1,1,0,0,1-.71.58c-.08,0-.12,0-.12,0s.17-.35.52-.71.45-.62.33-.79-.08-.27.12-.31a.8.8,0,0,1,.61.13.56.56,0,0,0,.62,0,.46.46,0,0,1,.62.08,1.62,1.62,0,0,1,.25.91,1.3,1.3,0,0,1-.17.91,13.45,13.45,0,0,0-.56,1.69,14.93,14.93,0,0,0-.47,1.8,1.46,1.46,0,0,0,0,.6q.06.15.27.06c.16,0,.22-.13.16-.24s0,0,.05-.07a.5.5,0,0,1,.2,0c.22.06.37,0,.44-.18s.26-.27.58-.27a.69.69,0,0,0,.68-.46c.14-.3.18-.5.13-.6s0-.21.16-.35S32,9.76,32,10s.11.28.34.33a6.07,6.07,0,0,0,1.28.08,1.78,1.78,0,0,1,1.31.38.93.93,0,0,0,.62.37c.18,0,.27.08.27.23a2.13,2.13,0,0,0,.08.52.16.16,0,0,1,0,.23.57.57,0,0,1-.35.14,15.64,15.64,0,0,0-2.12.92,13.58,13.58,0,0,0-1.22.66c-.21.14-.3.26-.27.37A7.25,7.25,0,0,1,32,16a6.43,6.43,0,0,1-.18,1.89c-.11.27-.13.44-.06.5s0,.21-.17.47a1.74,1.74,0,0,0-.29.94,2.1,2.1,0,0,1-.27,1,2.47,2.47,0,0,0-.19.54,1.72,1.72,0,0,0,0,.48q0,.18.15.18t.27.36A3.42,3.42,0,0,0,32,23.42c.46.48.69.79.69.91s.23.35.7.66a2.52,2.52,0,0,1,.9.9c.12.27.29.41.49.41a.51.51,0,0,1,.46.23,2.21,2.21,0,0,0,.62.52,1.69,1.69,0,0,0,.69.29.37.37,0,0,1,.35.27.37.37,0,0,0,.35.27,7.88,7.88,0,0,1,2,.89,21.82,21.82,0,0,1,2.32,1.39,3.92,3.92,0,0,1,.87.81,2.52,2.52,0,0,1,.33.89c.11.61-.19,1.07-.91,1.37a1.55,1.55,0,0,1-.87.1c-.33,0-1.08-.21-2.24-.51L38,32.61a1.53,1.53,0,0,1-.6-.23,6.72,6.72,0,0,0-.79-.52,17,17,0,0,1-1.43-1,3,3,0,0,0-.92-.59c-.11,0-.47-.33-1.07-1s-1.11-1.2-1.5-1.62a15.36,15.36,0,0,1-1.91-2.16.64.64,0,0,0-.16-.29,2,2,0,0,0-.36-.35c-.12-.1-.2-.13-.22-.1a16.78,16.78,0,0,1-1.29,1.59c-.58.65-.91,1-1,1a4,4,0,0,0-.91.62,2.89,2.89,0,0,1-1.41.56,1.29,1.29,0,0,1-1.08-.31,5.47,5.47,0,0,1-.66-.83c-.23-.33-.31-.53-.25-.58s.05-.19-.09-.42-.13-.2-.16-.18-.09.11-.17.31a1.54,1.54,0,0,1-.43.64c-.18.15-.25.27-.21.35s-.13.35-.52.79a2.34,2.34,0,0,1-.6.58,1.38,1.38,0,0,1-.69.13c-.88,0-1.46-.51-1.74-1.54a3.16,3.16,0,0,0-.37-.91,2,2,0,0,1,0-1.2l.12-1-.54.33a2.28,2.28,0,0,0-.91,1c-.22.43-.39.64-.5.64s-.2.13-.27.37a6,6,0,0,1-1,1.48,7.21,7.21,0,0,0-.93,1.2,4.6,4.6,0,0,1-.62.93,2.36,2.36,0,0,1-1,.86c-.25.06-.48-.07-.7-.4a2.93,2.93,0,0,1-.4-1.45,9.83,9.83,0,0,1,0-2c.07-.64.19-1,.35-1s.25-.09.25-.27a.41.41,0,0,1,.29-.39,4,4,0,0,0,1.1-.63c.46-.33.69-.54.69-.62a.72.72,0,0,1,.06-.37.7.7,0,0,1,.31-.17c.22-.08.32-.22.29-.41a.29.29,0,0,1,0-.23.15.15,0,0,1,.13-.06c.13,0,.37-.18.7-.61a5.27,5.27,0,0,1,.75-.83c.17-.12.21-.24.12-.37s0-.24.13-.35a1.27,1.27,0,0,0,.39-.46,1.32,1.32,0,0,0,.23-.54c0-.08-.07-.07-.21,0a3,3,0,0,1-.91.4,2.69,2.69,0,0,0-1,.45,5.39,5.39,0,0,1-1.17.67c-.6.29-.91.52-.91.68s-.23.29-.7,0l-.17-.12a2.4,2.4,0,0,1-.58-1.72c0-.82.14-1.34.5-1.56a3.71,3.71,0,0,0,.76-.56,1.29,1.29,0,0,1,.67-.4c.15,0,.23,0,.23-.16s.33-.4,1-.87a27.36,27.36,0,0,0,3-2.58c1.25-1.21,1.77-1.82,1.58-1.82h-.09c-.3.08-.45,0-.45-.08,0-.34-.44-.24-1.33.29a5.94,5.94,0,0,0-1.08.78,2.3,2.3,0,0,1-2.07.59,2.13,2.13,0,0,1-1.71-1.25A4.9,4.9,0,0,1,11.58,11,4.44,4.44,0,0,1,12,8.91c.28-.55.54-.85.79-.91a5.34,5.34,0,0,1,1.83.33,3,3,0,0,0,1.7.19c.27-.13.47-.55.58-1.27Zm-3.2,4.32c-.47-.36-.77-.36-.91,0s-.09.51.06.62a1.14,1.14,0,0,0,.81.08c.66-.11,1-.23.95-.37s-.08-.08-.25-.08A1.07,1.07,0,0,1,13.94,10.49Zm5.48,5.64c.33-.19.48-.31.46-.37a6.79,6.79,0,0,0-1.75.75c-1,.49-1.46.81-1.49.95s0,.21.12.21.21-.09.21-.27.06-.27.17-.27.16.06.16.19.06.15.17.08a.18.18,0,0,0,.08-.27c-.05-.08,0-.13,0-.13a.63.63,0,0,1,.21.05.9.9,0,0,0,.91-.25c.09-.09.1-.14.05-.17s0-.06.08-.1l.23-.17C19.16,16.29,19.28,16.22,19.42,16.13Zm.5-4.94c.16-.27.19-.42.08-.45-.31,0-.5.22-.58.66,0,.14,0,.21.08.21A1.53,1.53,0,0,0,19.92,11.19Zm2.45,9.88c.08-.25.11-.39.08-.41s-.15,0-.38.12a.54.54,0,0,0-.18.62c.07.28,0,.45-.17.52s-.23.18-.16.33,0,.3-.29.44-.33.25-.19.33,0,.32-.37.71c-.67.66-1,1.16-1,1.49,0,.08.19-.07.58-.48s.57-.64.56-.72,0-.17.17-.25a4.64,4.64,0,0,0,.72-1.16A6.29,6.29,0,0,0,22.37,21.07Z"/><path class="cls-1" d="M52.58,17.56c.63-.47,1-.52,1-.16a1.6,1.6,0,0,1,0,.33A4.47,4.47,0,0,1,51.71,20q-.63.5-.63.75c0,.16-.12.33-.37.49-.58.42-.84,1.36-.79,2.83a5.16,5.16,0,0,0,.19,1.47c.07.07.65-.17,1.76-.73a15.7,15.7,0,0,1,3.74-1.39,6.15,6.15,0,0,1,2.94.19c.78.25,1.2.61,1.27,1.08A3.74,3.74,0,0,1,59,26.82l-.54.79.75-.46c.47-.31.73-.55.79-.75s.05-.16,0-.16l-.21.16c-.2.14-.29.18-.29.13s.15-.39.54-.75l.54-.5-.13.5c-.05.19-.07.29,0,.29s.26-.14.62-.5a7.24,7.24,0,0,0,1.21-1.49,3.38,3.38,0,0,1,2.82-1.83,3,3,0,0,1,1.66.25,1.61,1.61,0,0,0,.62.25,1.25,1.25,0,0,0,.58-.33,2,2,0,0,1,.83-.46c.14,0,.21-.06.21-.19s.13-.18.39-.18.44-.07.52-.21.72-.52,1.75-.81a11.7,11.7,0,0,1,2.69-.48,19.55,19.55,0,0,1,2.47.19,11,11,0,0,1,1.93.39,5,5,0,0,1,1.25.88,1.8,1.8,0,0,1,.56.66,3.33,3.33,0,0,1,.1,1,2.48,2.48,0,0,1-.33,1.49,13.07,13.07,0,0,1-2.14,1.74,7.07,7.07,0,0,1-1.93,1.17c-.14,0-.3.12-.47.37a2.35,2.35,0,0,1-.77.64,5,5,0,0,0-1,.69l-.41.41.79.38c.69.3,1.06.64,1.12,1s-.24.67-.87.89a10.83,10.83,0,0,1-2.56.54,7.25,7.25,0,0,1-2.09.09c-.58-.25-.89-1.1-.92-2.53a3.88,3.88,0,0,1,0-1.15c0-.12.24-.24.58-.35a3.28,3.28,0,0,0,1.33-.75,29.54,29.54,0,0,1,2.73-2.07c.34-.22.49-.41.46-.56s.12-.33.44-.54a3.65,3.65,0,0,0,1-1.2,3.5,3.5,0,0,1,1-1.19c.52-.38.33-.6-.58-.66-.39,0-.92,0-1.58,0-1.33.06-2.19.08-2.57.08a4.39,4.39,0,0,0-1.73.63,6.56,6.56,0,0,0-1.68,1.16,2.58,2.58,0,0,0-.66,1.08,12.51,12.51,0,0,0-.33,2.2,8.36,8.36,0,0,0,0,1.91.93.93,0,0,1-.34.95c-.72.5-1.42.08-2.11-1.24a7.37,7.37,0,0,1-.71-1.73,2.84,2.84,0,0,1,0-1.26,2.71,2.71,0,0,0,.09-1.12c-.06-.36-.17-.54-.34-.54a2,2,0,0,0-.91.5,2,2,0,0,1-1,.49c-.2,0-.4.28-.63.83A7.14,7.14,0,0,1,60.4,27.5c-.6.71-.89,1.17-.89,1.39a1.9,1.9,0,0,1-.62,1,23.18,23.18,0,0,1-2,1.55,6.26,6.26,0,0,1-1.53,1c-.14,0-.4.17-.79.5a1.52,1.52,0,0,1-1.37.5c-.11,0-.16-.09-.16-.17s-.14-.21-.4-.21-.39-.19-.39-.56A4.16,4.16,0,0,0,52,31.13,2.9,2.9,0,0,1,51.69,30c0-.21.15-.36.43-.48a1.46,1.46,0,0,0,.71-.7,2.9,2.9,0,0,1,1-1,3.81,3.81,0,0,0,1.14-1.16l.38-.7-.58.16a7.15,7.15,0,0,0-1.83.94,7,7,0,0,0-1.66,1.34,2.78,2.78,0,0,0-.5.77,3.06,3.06,0,0,0,0,1c.08.66.14,1.17.17,1.53s.08.54.16.54.13.18.13.54.08.59.25.69.17.33,0,.7a1.4,1.4,0,0,0-.15.81c.09.22-.08.43-.5.62a1.65,1.65,0,0,1-1.12.17,3.09,3.09,0,0,1-1.66-1.39,6,6,0,0,1-.91-2.64,3,3,0,0,0-.39-1.49,2.09,2.09,0,0,1-.4-1,1.71,1.71,0,0,1,0-.6c0-.1.14-.17.33-.23A.37.37,0,0,0,47,28.1a2,2,0,0,0,.09-.74,9.84,9.84,0,0,1,.12-1.25,14,14,0,0,0,.29-2.53,3.91,3.91,0,0,1,.87-2.45,8.08,8.08,0,0,1,2.78-2.07.63.63,0,0,0,.34-.56c0-.24.07-.36.2-.36a.19.19,0,0,1,.21.21c0,.14.07.17.21.1a.18.18,0,0,0,.1-.29C52.11,18,52.25,17.84,52.58,17.56Zm1.7-.89c.33-.18.54-.24.62-.19s0,.2-.33.34a1.33,1.33,0,0,1-.5.12Q53.79,16.94,54.28,16.67ZM55.79,4a3,3,0,0,1,.63-1.58,1,1,0,0,1,1-.37,2.56,2.56,0,0,1,2,1.37c.2.44.42.7.67.77a2,2,0,0,0,1.2-.27,4,4,0,0,1,1.16-.38,1.16,1.16,0,0,0,.63-.2,9.61,9.61,0,0,1,1.47-.52c.71-.21,1.27-.35,1.68-.44a4.36,4.36,0,0,1,2.18.42A2.8,2.8,0,0,1,70,3.87c.35.86.06,1.92-.88,3.19a16,16,0,0,1-1.63,1.75,4.39,4.39,0,0,1-1.35,1,1.46,1.46,0,0,0-.31,0,8.5,8.5,0,0,0-1.23,1c-.28.25-.48.45-.62.6a.8.8,0,0,0-.23.4.25.25,0,0,0,.12.25,1.64,1.64,0,0,0,.48.12c1.5.25,2.24.68,2.24,1.29a.64.64,0,0,1-.39.58,16.05,16.05,0,0,1-1.93.7c-.83.25-1.7.53-2.62.83a1.49,1.49,0,0,0-.68.34,1.44,1.44,0,0,0-.23.66c-.05.53-.17.79-.35.79a.5.5,0,0,0-.44.29c-.14.25-.47.27-1,.06a4.11,4.11,0,0,1-1.48-1c-.5-.55-.83-.79-1-.72s-.32,0-.4-.09,0-.22.29-.31.34-.2.36-.37a1.54,1.54,0,0,0-.27-.75,1.85,1.85,0,0,1-.3-.95c0-.31-.1-.46-.31-.46s-.31-.13-.31-.39a1,1,0,0,0-.31-.71c-.21-.21-.27-.72-.19-1.55s.16-1.62.21-2.37.11-1.38.17-1.91a4,4,0,0,1,.18-1A4.85,4.85,0,0,0,55.79,4ZM67.56,4c0-.11-.14-.16-.42-.16a5.33,5.33,0,0,0-1,.14c-.43.1-.86.22-1.27.36a16.89,16.89,0,0,0-2.7,1.16,7.79,7.79,0,0,1-.91.52,3.49,3.49,0,0,0-1.08.76,6.7,6.7,0,0,0-.35,2.56c-.07,1.53,0,2.36.14,2.47s.76-.1,1.54-.79S62.88,9.82,63,9.86s.15,0,.15-.14a9.79,9.79,0,0,1,1.72-2,13.23,13.23,0,0,0,1.72-1.91,3,3,0,0,1,.5-.87A2.69,2.69,0,0,0,67.56,4Zm-6.1,20.09c.47-.55.69-.71.66-.46a1.62,1.62,0,0,1-.5.83,4.6,4.6,0,0,1-.83.92c-.16,0,0-.34.42-1A2.49,2.49,0,0,1,61.46,24.12Z"/><path class="cls-1" d="M93.87,11.49a9.51,9.51,0,0,1,2.45-.63l1.08.21a2,2,0,0,1,1.08.62,1.9,1.9,0,0,1,.31.56,2.26,2.26,0,0,1,0,.77A9.75,9.75,0,0,1,98,15.14a10.94,10.94,0,0,1-1.08,2c-.53.61-1.11,1.24-1.76,1.89a6.45,6.45,0,0,1-1.14,1,1,1,0,0,1-.79-.42c-.25-.22-.36-.28-.33-.17a1.92,1.92,0,0,1,0,1.83c-.17.19-.31.3-.42.31a2.34,2.34,0,0,1-.75-.14c-.52-.14-.79-.29-.79-.44s-.07-.23-.22-.23-.37-.27-.65-.83a4.89,4.89,0,0,0-.64-1.06.86.86,0,0,1-.23-.64c0-.27-.08-.41-.25-.41-.5,0-.74-.72-.74-2.16a7.33,7.33,0,0,0-.34-2.49c-.44-1.3-.45-2,0-2.16q.21,0,.27,0s0,.08,0,.17,0,.31.29.43a4.56,4.56,0,0,1,1.08,1,3.29,3.29,0,0,0,.69.64c.09,0,.21,0,.35-.18a3.6,3.6,0,0,1,1.08-.79A20.53,20.53,0,0,1,93.87,11.49Zm1.66,1.45c.06-.17.06-.28,0-.33s-.14-.09-.31-.09a4.36,4.36,0,0,0-1.18.25l-1.73.54a2.6,2.6,0,0,0-.87.33,1.8,1.8,0,0,0-.41.58A1.86,1.86,0,0,0,91,15.55a10.48,10.48,0,0,0,.48,1.16c.24.5.45.94.65,1.31s.31.53.37.48,0-.21-.21-.54a2,2,0,0,1-.25-.75c0-.16.42-.68,1.25-1.53s1.51-1.62,1.78-1.95A2.67,2.67,0,0,0,95.53,12.94Zm12-12.37c.39-.11.58-.1.58,0s.13.18.38.21a.35.35,0,0,1,.33.31,12.21,12.21,0,0,1,0,1.6,2.08,2.08,0,0,1-.15.73,1.28,1.28,0,0,1-.48.39c-.27.17-.41.3-.41.41a6.22,6.22,0,0,1-.48,1.23c-.32.7-.52,1.18-.6,1.43a13.18,13.18,0,0,0-.48,1.56,8,8,0,0,0-.27,1.22,5,5,0,0,0,1,.08,3.88,3.88,0,0,1,2.7,1.08l.21.27.14.17s0,.06,0,.06a4.9,4.9,0,0,0,.25,1.08c.19.58,0,2.13-.62,4.65-.22.94-.36,1.57-.42,1.91A12.37,12.37,0,0,1,108,22.54a12.62,12.62,0,0,1-1.89,3.18c-.55.61-1.06.86-1.51.75s-.79-.56-1-1.33a1.85,1.85,0,0,0-.35-.79,1.45,1.45,0,0,1-.35-.71,14.92,14.92,0,0,0-.65-1.63c-.26-.57-.43-.86-.52-.86s-.38.54-.81,1.6a7.52,7.52,0,0,0-.62,1.95,1,1,0,0,1-.23.69,2.3,2.3,0,0,0-.37.77,11.28,11.28,0,0,1-.6,1.47c-.32.69-.56,1.24-.71,1.64s-.38.95-.68,1.64-.58,1.24-.75,1.66a9.15,9.15,0,0,1-.46.83,10.77,10.77,0,0,0-1,2.24,18.39,18.39,0,0,1-.89,2,8.48,8.48,0,0,1-.85,1.53,2.34,2.34,0,0,1-1.12-.66.83.83,0,0,1-.34-.66,1.14,1.14,0,0,0-.33-.75,1.06,1.06,0,0,1-.33-.6,2.05,2.05,0,0,1,.23-.73c.15-.33.3-.66.46-1s.3-.45.45-.4S93,34.3,93,34c0-.53.15-.66.46-.42q.16.13.39-.18a2.12,2.12,0,0,0,.33-.73,1.1,1.1,0,0,0,0-.7c-.08-.2-.1-.29,0-.29l.12,0a.17.17,0,0,0,.25-.09,2.76,2.76,0,0,0,.17-.7c.08-.58.23-.9.46-1a.39.39,0,0,0,.27-.14,1.61,1.61,0,0,0,.1-.48c0-.14.11-.31.33-.52s.3-.39.23-.56,0-.25.06-.25.22-.12.31-.37.31-.72.65-1.41a5.43,5.43,0,0,0,.56-1.64c0-.4.14-.65.31-.75a.49.49,0,0,0,.25-.45.69.69,0,0,1,.33-.56A1.52,1.52,0,0,0,99,21.78a2.18,2.18,0,0,1,.29-1.06q.21-.22.09-.42c-.09-.12-.06-.18.06-.18a.17.17,0,0,1,.19.18c0,.13,0,.16.14.09s.13-.29.11-.67a2.18,2.18,0,0,1,.24-1.14,12.69,12.69,0,0,0,.79-1.74c.11-.31.65-1.65,1.62-4l.62-1.53-.41-.33a1,1,0,0,0-.62-.34c-.17,0-.25-.06-.25-.18s-.06-.15-.17-.09-.16.05-.16-.06a.3.3,0,0,1,.18-.29.24.24,0,0,1,.31.08c.09.14.38.13.88,0a1.39,1.39,0,0,0,.68-.31,3.22,3.22,0,0,0,.44-.64c.24-.53.44-1,.6-1.48s.56-1.43,1.24-2.92a15.75,15.75,0,0,0,1.1-2.78,6.1,6.1,0,0,1,.23-1A.45.45,0,0,1,107.48.57ZM98.54,22.69c-.13,0-.15-.05-.08-.17s.13-.16.18-.16.09.05.09.16S98.66,22.69,98.54,22.69Zm8.73-11.2c-.08-.14-.41-.18-1-.13a3.41,3.41,0,0,0-1.29.33,2.32,2.32,0,0,0-.39,1,4.48,4.48,0,0,1-.46,1.16,1.3,1.3,0,0,0-.23.75,1.81,1.81,0,0,1-.25.87,15.38,15.38,0,0,0-.6,1.53,6.21,6.21,0,0,0-.35,1.33.35.35,0,0,0,.23.37c.15.06.27.34.35.83s.21.94.39,1,.43-.19.73-.68a5.35,5.35,0,0,0,.54-1c0-.07.08-.19.25-.35a.93.93,0,0,0,.25-.69,1.42,1.42,0,0,1,.16-.72,18.65,18.65,0,0,0,1.12-3.12A7.31,7.31,0,0,0,107.27,11.49Zm4.69.83a.86.86,0,0,1,0-.42c0-.05.11-.08.25-.08s.38.06.38.18.06.19.2.19.56.39.92,1.16c.11.28.2.43.27.46s.2,0,.39-.13a2.63,2.63,0,0,1,.89-.35q.52-.11,2.22-.54a4.25,4.25,0,0,1,2-.25,2.65,2.65,0,0,0,1,.27,2.91,2.91,0,0,1,1.25.52c.41.29.62.55.62.77a3,3,0,0,1-.41,1.06,8.84,8.84,0,0,1-.75,1.18.69.69,0,0,1-.52.33,1,1,0,0,0-.64.4,4.74,4.74,0,0,1-.75.64c-.22.14-.34.25-.35.33s.07.17.27.25a2,2,0,0,1,1.41,1.2,1.27,1.27,0,0,1,.06.63c0,.11-.15.16-.31.16s-.25.06-.25.17a2.93,2.93,0,0,1-1,.37,13.51,13.51,0,0,1-1.86.42,13,13,0,0,1-2.08.12,3.47,3.47,0,0,1-1.68-.21,2.48,2.48,0,0,1-.85-1.2,2.65,2.65,0,0,0-.66-1c-.23-.16-.37-.69-.44-1.59a3.55,3.55,0,0,1,.23-1.93,3,3,0,0,0,.33-1.39A5.21,5.21,0,0,0,112,12.32Zm6.81,2.07q0-.21-1.29,0a8.55,8.55,0,0,0-1.89.5,4.58,4.58,0,0,0-1.3.54,3.35,3.35,0,0,0,.14.66c.1.33.18.66.25,1s.17.47.31.47a7.69,7.69,0,0,0,2-1.45C118.19,15.12,118.77,14.56,118.77,14.39Z"/><path class="cls-1" d="M147.11.32a12.19,12.19,0,0,1,.52-1.14c.13-.21.26-.3.4-.27s.34.21.35.54.06.86.15,1.6a6.3,6.3,0,0,1-.09,2.05,48.84,48.84,0,0,0-.7,5q-.33,3.3-.42,6.21a35.87,35.87,0,0,1-.21,4c-.08.39-.09.59,0,.59a.7.7,0,0,0,.21-.13,11.71,11.71,0,0,0,1.23-1.7,10.5,10.5,0,0,0,1.05-1.87,1,1,0,0,0,.07-.27l-.15.19q-.28.38-.21.12a11.33,11.33,0,0,1,.67-1.62c.72-1.49,1-2.44.91-2.86,0-.05,0-.08,0-.08l.1,0c.11.11.25.06.42-.17s.33-.62.25-.78-.08-.06-.17,0-.09,0-.1-.07a.43.43,0,0,1,.06-.27c0-.22.06-.33.08-.33s.09.1.17.29a1,1,0,0,0,.14.25s0-.07,0-.21.06-.37.2-.37.14.19,0,.58l-.12.37.25-.24a1.17,1.17,0,0,0,.29-.56c0-.13,0-.16.1-.09a3.43,3.43,0,0,1-.18,1.39c-.61,2.71-.92,4.24-.92,4.57a6.85,6.85,0,0,1-.74,2,7.46,7.46,0,0,0-.79,2.1,4.89,4.89,0,0,1-1.33,2.32,3.51,3.51,0,0,0-.79,1c0,.11-.17.34-.5.7a1.85,1.85,0,0,0-.39.73,8.61,8.61,0,0,0-.15,1.56,38.82,38.82,0,0,0,.54,6.39,20.46,20.46,0,0,1,.33,3.73,7.53,7.53,0,0,1-.14,2.18c-.13.35-.38.45-.77.31a2.55,2.55,0,0,1-.93-.6c-.4-.35-.6-.57-.6-.69a5.48,5.48,0,0,0-.71-1.24,3.84,3.84,0,0,1-.71-1.43,1.83,1.83,0,0,0-.43-1,3.75,3.75,0,0,1-.58-1.76c-.1-.77-.19-1.36-.27-1.74l0-.34c.08.09.59,1,1.53,2.79a3.72,3.72,0,0,0,.21.39l.21.33a1.81,1.81,0,0,0,.16.25l.13.15,0,.08a32.15,32.15,0,0,0,0-3.61l-.17-3.53-.66.46a7.18,7.18,0,0,1-1.41.6,5.15,5.15,0,0,1-1.5.31c-.14,0-.47-.24-1-.73a2,2,0,0,1-.79-1.37,1.28,1.28,0,0,0-.23-.87c-.15-.15,0-.58.33-1.3a4,4,0,0,1,.73-1.15c.11,0,.3-.39.58-1.05s.48-1,.6-1,.19-.1.19-.29-.16-.29-.48-.29a1.51,1.51,0,0,1-1-.42c-.17-.13-.3-.23-.4-.29a.57.57,0,0,0-.23-.08.1.1,0,0,0-.1.08.86.86,0,0,0,0,.25c0,.25-.32.67-1,1.27s-1.37,1.31-2.2,2.14c-1.77,1.71-2.83,2.5-3.19,2.36s-.33-.05-.33.08a1.25,1.25,0,0,1-.34.88,1.38,1.38,0,0,1-1.07.33,1.59,1.59,0,0,1-.71-.17,1.91,1.91,0,0,1-.41-.7,3.3,3.3,0,0,0-.48-.9c-.1-.06-.19-.31-.27-.72a6.48,6.48,0,0,0-1.16-2.58,1.91,1.91,0,0,1-.38-1,1.12,1.12,0,0,1,.25-.89,7.75,7.75,0,0,0,.62-2.64c.39-2.6.78-4,1.17-4.07.13,0,.34,0,.62.29a4.86,4.86,0,0,1,1.49,2.2q.09.38.21.42a1.7,1.7,0,0,0,.71-.17,8.18,8.18,0,0,1,2-.41,3.42,3.42,0,0,1,1.12,0,4.57,4.57,0,0,1,1,.41,7.92,7.92,0,0,1,1.66,1.16c.45.42.67.56.67.42s.21-.4.62-.87a4.66,4.66,0,0,1,1-.92,6.51,6.51,0,0,0,1.12-1.2l.87-1-1.5-.29a7.68,7.68,0,0,1-1.24-.29.78.78,0,0,1-.46-.41.54.54,0,0,1,0-.48,2.43,2.43,0,0,1,.69-.56c1.27-.89,2.31-1.19,3.11-.91l.58.2.17-1A18.66,18.66,0,0,1,144.54,7,4.21,4.21,0,0,1,145,5.72L145,6a.67.67,0,0,0,0,.24,16.87,16.87,0,0,0-.38,2.39,5.15,5.15,0,0,0,0,1.76c.19.34.33.28.42-.16a1.11,1.11,0,0,1,0-.29A28.68,28.68,0,0,1,145.52,6a23.7,23.7,0,0,1,.89-3.72C146.55,1.91,146.78,1.26,147.11.32ZM135.66,16.38a3.44,3.44,0,0,0-1.85-.08,2.57,2.57,0,0,0-1.51.75,3.79,3.79,0,0,0-.37,2.11c0,1.11,0,1.66.12,1.66.25,0,.86-.46,1.83-1.39a10.78,10.78,0,0,0,1.91-2.22l.37-.62Zm9.05,3.78c.08-.36.09-.54,0-.54s-.22.17-.44.5a1,1,0,0,1-.79.5c-.27,0-.78.34-1.53,1a4.61,4.61,0,0,0-1.29,1.58c-.08.28-.08.45,0,.52s.24,0,.46-.15a1.85,1.85,0,0,1,.66-.45h0a2.94,2.94,0,0,1-.45.45,3.09,3.09,0,0,1-.83.63c-.11,0-.17.1-.17.31s.06.31.17.31a7,7,0,0,0,1.45-1q1.29-.95,2-1.53a1.53,1.53,0,0,0,.62-1.14A3,3,0,0,1,144.71,20.16Zm-.09-5.23c0-.5-.05-.79-.16-.87s-.42-.06-.91.08-.57.14-.63.08-.13.07-.31.27-.36.44-.54.69a1.21,1.21,0,0,0-.27.5c0,.08.1.05.29-.11s.29-.15.29,0,.19.2.56.13a1.14,1.14,0,0,1,.94.18c.27.23.47.27.58.13A2.14,2.14,0,0,0,144.62,14.93Zm-2.19,7.68c.22-.14.33-.2.35-.17s-.05.13-.19.29-.28.26-.35.19S142.23,22.75,142.43,22.61Zm1.07-.83c.59-.72.86-.94.83-.67a.54.54,0,0,1,0,.17c0,.19-.3.44-.74.75l-.67.49ZM155.25.2a1.84,1.84,0,0,1,1.95.45c.36.39.5.65.41.79A7.71,7.71,0,0,0,157.28,3c-.14.91-.23,1.53-.29,1.87a29,29,0,0,0-.45,4.44l0,.7H158a5.12,5.12,0,0,1,1.43.13,5.45,5.45,0,0,1,1.22.7,5,5,0,0,1,1,.77,1.26,1.26,0,0,1,.27.69,1.22,1.22,0,0,1-.27.87,21.92,21.92,0,0,1-1.72,1.74c-1.44,1.38-2,2.17-1.79,2.37a1.1,1.1,0,0,0,.5.08.86.86,0,0,1,.71.31.65.65,0,0,0,.49.31c.17,0,.5.26,1,.79s.68.84.64,1.1-.35.49-.93.68a4.34,4.34,0,0,1-1.08.25,2.8,2.8,0,0,0-1.81,1.06c-.67.71-.94,1.25-.8,1.64a.4.4,0,0,0,.35.29,6.11,6.11,0,0,0,1.22,0,5.84,5.84,0,0,1,2.76.35c.74.32,1.09.76,1.06,1.31,0,.83-.14,1.24-.33,1.24a3.06,3.06,0,0,0-1,.67,2.08,2.08,0,0,1-2.86.12,1.94,1.94,0,0,0-.69-.41c-.09,0-.23-.17-.39-.5-.33-.64-.51-.48-.54.46v.91a1.57,1.57,0,0,1,0,.46q.28,5.43.27,6.41a1.91,1.91,0,0,1-.35,1.3,1.16,1.16,0,0,1-.75.42,1.8,1.8,0,0,1-.81-.25c-.32-.17-.48-.32-.48-.46A2.14,2.14,0,0,0,154,35a2.18,2.18,0,0,1-.31-.89,1.32,1.32,0,0,0-.29-.72,2.77,2.77,0,0,1-.39-1.17,1.64,1.64,0,0,0-.31-.91,1.52,1.52,0,0,1-.52-1,4.55,4.55,0,0,1-.13-1.49c0-.47.17-.7.38-.7s.27.29.18.87a2.6,2.6,0,0,0,0,.74c0,.11.14.2.33.25a1.32,1.32,0,0,0,.54.09,32.6,32.6,0,0,0,0-3.78c0-.19,0-1.44.09-3.74s.16-5.1.25-8.34q.12-6.06.37-8.38c.11-1,.11-1.51,0-1.45a3.61,3.61,0,0,0-.29,1.45c0,.22-.07.24-.12,0a1.13,1.13,0,0,1-.09-.25c-.11-.38-.16-.45-.16-.21a2.65,2.65,0,0,1-.67,1.37c-.11.14-.16.16-.16,0a4.17,4.17,0,0,1,.41-1.19,2.89,2.89,0,0,1,.58-1c.14-.09.17-.18.11-.29s0-.35.18-.71.29-.46.38-.29v.12q.07.21.12-.12V3.1a1.84,1.84,0,0,0,0-.54s-.07,0-.13.13-.2,0-.2-.25a3,3,0,0,1,.41-1.37Q154.92.28,155.25.2Zm-3.07,7.22c.08-.19.18-.29.31-.29s.1.12-.06.37-.31.43-.34.29A1.19,1.19,0,0,1,152.18,7.42Zm6.39,5.19a6.29,6.29,0,0,1-1.54-.13l-.74-.16v1.49c0,1,.07,1.6.22,1.72s.51-.07,1.06-.6,1-.92,1-1.1.05-.27.16-.27.24-.17.38-.5.14-.35.1-.39A1.45,1.45,0,0,0,158.57,12.61Zm-1.29,7.82a3.23,3.23,0,0,0-.81-.23c-.12,0-.18.44-.18,1.31s.05,1.3.16,1.3.38-.29.81-.87a3.18,3.18,0,0,0,.64-1.08C157.9,20.73,157.7,20.58,157.28,20.43Z"/><path class="cls-1" d="M7.09,2.19a.23.23,0,0,1,.21-.25.93.93,0,0,1,.46,0,.68.68,0,0,1,.37.29c.14.22.29.29.46.21.44-.25.81-.11,1.12.41a1,1,0,0,0,.6.48c.26.07.43.36.5.87a1.87,1.87,0,0,1-.09,1.12c-.12.24-.13.36,0,.36s.09,0,0,.14a3.13,3.13,0,0,0-.52,1.06,11,11,0,0,1-1.2,2.41,10,10,0,0,0-.66,1.2,2.15,2.15,0,0,1-.59.77,2.78,2.78,0,0,0-.66.93l-.29.62.71.71a2.74,2.74,0,0,1,.58.69,2,2,0,0,1,.12.8,5.75,5.75,0,0,1,0,1.27,7.24,7.24,0,0,1-.46,1.22q-.5,1.08-.81,1.95a11,11,0,0,1-1.1,2.16c-.52.86-.88,1.5-1.08,1.91a2.27,2.27,0,0,0-.2.6.77.77,0,0,0,.2.4c.28.33.5.41.67.25a14.6,14.6,0,0,0,1-1.95l.38-.67s0,.14,0,.33a21.45,21.45,0,0,0-.13,3.12q0,2.45.09,3.48c.19,1.75.29,2.89.29,3.45a1.66,1.66,0,0,1-.25,1.08c-.42.41-.89.36-1.41-.17a6.84,6.84,0,0,1-.85-1.1,2.49,2.49,0,0,1-.48-1,4.93,4.93,0,0,0-.25-.65,2.09,2.09,0,0,1-.21-.64.84.84,0,0,0-.27-.46A.47.47,0,0,1,3,29.1a8.06,8.06,0,0,0,.25-1.64q.17-2.12-.42-1.95c-.17.06-.35,0-.56-.29a7.36,7.36,0,0,1-.81-1.37A3.9,3.9,0,0,1,1,22.17a2.48,2.48,0,0,1,.83-1.26C3.25,19.36,4,18.46,4,18.21a8.43,8.43,0,0,1,.66-1.37,7,7,0,0,0,1.08-2.57c0-.17-.16-.19-.47-.07a2.64,2.64,0,0,0-.77.44,2.16,2.16,0,0,1-.91.29,1.34,1.34,0,0,1-.88-.08A5.27,5.27,0,0,1,2,13.27,9.38,9.38,0,0,1,1.53,12a1,1,0,0,1,.17-.64,11.41,11.41,0,0,1,1.91-2.2C4.71,8.06,5.43,7.32,5.77,7A13.08,13.08,0,0,0,7.11,5.11,4.1,4.1,0,0,0,7.8,3.72a2.07,2.07,0,0,0-.21-.83c-.14-.3-.26-.45-.37-.45S7.09,2.35,7.09,2.19ZM6.26,24.27c.14-.14.18-.24.11-.29s-.15,0-.23.2,0,.21,0,.21A.61.61,0,0,0,6.26,24.27ZM17.14,6.17s0-.59,0-1.78A8.16,8.16,0,0,1,17.3,2.6c.09,0,.33.32.75.94a4.27,4.27,0,0,1,.62,1.1c0,.14.06.21.17.21s.19.16.25.49.15.83.29,1.5.22,1.16.25,1.33a.19.19,0,0,0,.16.18,1.7,1.7,0,0,0,.58-.1c.25-.08.38-.07.38,0s-.18.21-.54.29-.46.14-.46.17.24.05.62,0,.54-.2.54-.34c0-.3.15-.3.46,0a1,1,0,0,0,.66.25,2.9,2.9,0,0,1,1.6.61q.9.6.93,1.05c0,.2-.47.72-1.41,1.58-.55.5-.83.86-.83,1.08s-.07.14-.22,0-.71.28-1.66,1.22a12.29,12.29,0,0,0-1.39,1.46c.11.08.27.06.49-.07s.34-.25.34-.39S20,15,20.15,15a.34.34,0,0,1,.26.33c0,.12.17.2.5.25a2.58,2.58,0,0,0,1,0,2.53,2.53,0,0,1,.66.31,5,5,0,0,1,.67.44c.05.08.15,0,.29-.25a.81.81,0,0,1,.12-.25,1.66,1.66,0,0,1,.12-.31l.15-.21s.08,0,.1,0,0,.2-.1.44-.11.36,0,.37.13.09-.06.23a1.08,1.08,0,0,0-.4.64,1.87,1.87,0,0,1-.35.77c-.14.11-.21.15-.21.13s.09-.2,0-.19a3.64,3.64,0,0,0-.7.35,6.66,6.66,0,0,0-1.43,1.21,8.1,8.1,0,0,0-1.19,1.45,9.71,9.71,0,0,1-1,1.49c-.45.67-.58,1-.42,1,.33,0,.75.4,1.25,1.2.11.17.27.15.5,0a12.42,12.42,0,0,0,1.86-3.57,4.26,4.26,0,0,1,.52-1.06.92.92,0,0,0,.23-.6,1.19,1.19,0,0,1,.37-.87c.09-.06.13,0,.13,0a.34.34,0,0,1-.17.31.33.33,0,0,0-.16.29q0,.2.18.09c.13-.07.18-.07.15,0a2.93,2.93,0,0,1-.25.66c-.17.42-.24.65-.21.71s.08,0,.17-.13.29-.58.62-1.33l.33-.74-.08,1.08a8.2,8.2,0,0,1-.23,1.59,1.09,1.09,0,0,0-.06.69,2.83,2.83,0,0,1-.25,1.2c-.22.61-.28.9-.17.87s.14,0,.09.29a.63.63,0,0,1-.05.21c-.3,1.22-.19,1.77.34,1.66a1.42,1.42,0,0,0,.58-.29c.36-.22.56-.3.62-.25h.08l0,0c-.05-.08,0-.21.25-.37s.3-.29.25-.38.05-.31.33-.6.49-.43.62-.43.18-.06.11-.17,0-.3.23-.58a2.29,2.29,0,0,0,.41-.67l.08-.16a.22.22,0,0,1,0,.16q0,.25.24-.12c.28-.36.12-.95-.49-1.78a1.91,1.91,0,0,1-.46-.77c0-.13-.14-.33-.41-.6s-.42-.47-.42-.56-.21-.35-.62-.75-.6-.7-.54-.89.05-.13.08-.15a.17.17,0,0,1,.13,0,.81.81,0,0,1,.2.21c.22.25.37.37.44.37a18.2,18.2,0,0,1,1.85,1.25l.89.6.64.44.25.12a8.43,8.43,0,0,0,.77-1.74,13.72,13.72,0,0,0,.56-1.93c.08-.46.07-.71,0-.75a2.26,2.26,0,0,0-.94.23,3.32,3.32,0,0,1-1,.25c-.21,0-.31.08-.31.25s-.06.25-.17.25-.16-.09-.16-.27-.12-.3-.36-.36-.35-.14-.35-.27a.73.73,0,0,0-.25-.45,2,2,0,0,1-.33-1.14,5.39,5.39,0,0,0-.21-1.19.5.5,0,0,1,.11-.56c.15-.16.19-.28.12-.35s0-.33.25-.79.4-.68.5-.68.14-.09.14-.25a1.33,1.33,0,0,1,.11-.44,1.89,1.89,0,0,1,.22-.45q.14-.2.21-.15c.06,0,.1,0,.13-.08a.76.76,0,0,0,0-.25c0-.31.09-.49.27-.56s.25-.23.23-.48,0-.25,0-.25a.82.82,0,0,0-.14.17,1,1,0,0,1-.71.58c-.08,0-.12,0-.12,0s.17-.35.52-.71.45-.62.33-.79-.08-.27.12-.31a.8.8,0,0,1,.61.13.56.56,0,0,0,.62,0,.46.46,0,0,1,.62.08,1.62,1.62,0,0,1,.25.91,1.3,1.3,0,0,1-.17.91,13.45,13.45,0,0,0-.56,1.69,14.93,14.93,0,0,0-.47,1.8,1.46,1.46,0,0,0,0,.6q.06.15.27.06c.16,0,.22-.13.16-.24s0,0,.05-.07a.5.5,0,0,1,.2,0c.22.06.37,0,.44-.18s.26-.27.58-.27a.69.69,0,0,0,.68-.46c.14-.3.18-.5.13-.6s0-.21.16-.35S32,9.76,32,10s.11.28.34.33a6.07,6.07,0,0,0,1.28.08,1.78,1.78,0,0,1,1.31.38.93.93,0,0,0,.62.37c.18,0,.27.08.27.23a2.13,2.13,0,0,0,.08.52.16.16,0,0,1,0,.23.57.57,0,0,1-.35.14,15.64,15.64,0,0,0-2.12.92,13.58,13.58,0,0,0-1.22.66c-.21.14-.3.26-.27.37A7.25,7.25,0,0,1,32,16a6.43,6.43,0,0,1-.18,1.89c-.11.27-.13.44-.06.5s0,.21-.17.47a1.74,1.74,0,0,0-.29.94,2.1,2.1,0,0,1-.27,1,2.47,2.47,0,0,0-.19.54,1.72,1.72,0,0,0,0,.48q0,.18.15.18t.27.36A3.42,3.42,0,0,0,32,23.42c.46.48.69.79.69.91s.23.35.7.66a2.52,2.52,0,0,1,.9.9c.12.27.29.41.49.41a.51.51,0,0,1,.46.23,2.21,2.21,0,0,0,.62.52,1.69,1.69,0,0,0,.69.29.37.37,0,0,1,.35.27.37.37,0,0,0,.35.27,7.88,7.88,0,0,1,2,.89,21.82,21.82,0,0,1,2.32,1.39,3.92,3.92,0,0,1,.87.81,2.52,2.52,0,0,1,.33.89c.11.61-.19,1.07-.91,1.37a1.55,1.55,0,0,1-.87.1c-.33,0-1.08-.21-2.24-.51L38,32.61a1.53,1.53,0,0,1-.6-.23,6.72,6.72,0,0,0-.79-.52,17,17,0,0,1-1.43-1,3,3,0,0,0-.92-.59c-.11,0-.47-.33-1.07-1s-1.11-1.2-1.5-1.62a15.36,15.36,0,0,1-1.91-2.16.64.64,0,0,0-.16-.29,2,2,0,0,0-.36-.35c-.12-.1-.2-.13-.22-.1a16.78,16.78,0,0,1-1.29,1.59c-.58.65-.91,1-1,1a4,4,0,0,0-.91.62,2.89,2.89,0,0,1-1.41.56,1.29,1.29,0,0,1-1.08-.31,5.47,5.47,0,0,1-.66-.83c-.23-.33-.31-.53-.25-.58s.05-.19-.09-.42-.13-.2-.16-.18-.09.11-.17.31a1.54,1.54,0,0,1-.43.64c-.18.15-.25.27-.21.35s-.13.35-.52.79a2.34,2.34,0,0,1-.6.58,1.38,1.38,0,0,1-.69.13c-.88,0-1.46-.51-1.74-1.54a3.16,3.16,0,0,0-.37-.91,2,2,0,0,1,0-1.2l.12-1-.54.33a2.28,2.28,0,0,0-.91,1c-.22.43-.39.64-.5.64s-.2.13-.27.37a6,6,0,0,1-1,1.48,7.21,7.21,0,0,0-.93,1.2,4.6,4.6,0,0,1-.62.93,2.36,2.36,0,0,1-1,.86c-.25.06-.48-.07-.7-.4a2.93,2.93,0,0,1-.4-1.45,9.83,9.83,0,0,1,0-2c.07-.64.19-1,.35-1s.25-.09.25-.27a.41.41,0,0,1,.29-.39,4,4,0,0,0,1.1-.63c.46-.33.69-.54.69-.62a.72.72,0,0,1,.06-.37.7.7,0,0,1,.31-.17c.22-.08.32-.22.29-.41a.29.29,0,0,1,0-.23.15.15,0,0,1,.13-.06c.13,0,.37-.18.7-.61a5.27,5.27,0,0,1,.75-.83c.17-.12.21-.24.12-.37s0-.24.13-.35a1.27,1.27,0,0,0,.39-.46,1.32,1.32,0,0,0,.23-.54c0-.08-.07-.07-.21,0a3,3,0,0,1-.91.4,2.69,2.69,0,0,0-1,.45,5.39,5.39,0,0,1-1.17.67c-.6.29-.91.52-.91.68s-.23.29-.7,0l-.17-.12a2.4,2.4,0,0,1-.58-1.72c0-.82.14-1.34.5-1.56a3.71,3.71,0,0,0,.76-.56,1.29,1.29,0,0,1,.67-.4c.15,0,.23,0,.23-.16s.33-.4,1-.87a27.36,27.36,0,0,0,3-2.58c1.25-1.21,1.77-1.82,1.58-1.82h-.09c-.3.08-.45,0-.45-.08,0-.34-.44-.24-1.33.29a5.94,5.94,0,0,0-1.08.78,2.3,2.3,0,0,1-2.07.59,2.13,2.13,0,0,1-1.71-1.25A4.9,4.9,0,0,1,11.58,11,4.44,4.44,0,0,1,12,8.91c.28-.55.54-.85.79-.91a5.34,5.34,0,0,1,1.83.33,3,3,0,0,0,1.7.19c.27-.13.47-.55.58-1.27Zm-3.2,4.32c-.47-.36-.77-.36-.91,0s-.09.51.06.62a1.14,1.14,0,0,0,.81.08c.66-.11,1-.23.95-.37s-.08-.08-.25-.08A1.07,1.07,0,0,1,13.94,10.49Zm5.48,5.64c.33-.19.48-.31.46-.37a6.79,6.79,0,0,0-1.75.75c-1,.49-1.46.81-1.49.95s0,.21.12.21.21-.09.21-.27.06-.27.17-.27.16.06.16.19.06.15.17.08a.18.18,0,0,0,.08-.27c-.05-.08,0-.13,0-.13a.63.63,0,0,1,.21.05.9.9,0,0,0,.91-.25c.09-.09.1-.14.05-.17s0-.06.08-.1l.23-.17C19.16,16.29,19.28,16.22,19.42,16.13Zm.5-4.94c.16-.27.19-.42.08-.45-.31,0-.5.22-.58.66,0,.14,0,.21.08.21A1.53,1.53,0,0,0,19.92,11.19Zm2.45,9.88c.08-.25.11-.39.08-.41s-.15,0-.38.12a.54.54,0,0,0-.18.62c.07.28,0,.45-.17.52s-.23.18-.16.33,0,.3-.29.44-.33.25-.19.33,0,.32-.37.71c-.67.66-1,1.16-1,1.49,0,.08.19-.07.58-.48s.57-.64.56-.72,0-.17.17-.25a4.64,4.64,0,0,0,.72-1.16A6.29,6.29,0,0,0,22.37,21.07Z"/><path class="cls-1" d="M52.58,17.56c.63-.47,1-.52,1-.16a1.6,1.6,0,0,1,0,.33A4.47,4.47,0,0,1,51.71,20q-.63.5-.63.75c0,.16-.12.33-.37.49-.58.42-.84,1.36-.79,2.83a5.16,5.16,0,0,0,.19,1.47c.07.07.65-.17,1.76-.73a15.7,15.7,0,0,1,3.74-1.39,6.15,6.15,0,0,1,2.94.19c.78.25,1.2.61,1.27,1.08A3.74,3.74,0,0,1,59,26.82l-.54.79.75-.46c.47-.31.73-.55.79-.75s.05-.16,0-.16l-.21.16c-.2.14-.29.18-.29.13s.15-.39.54-.75l.54-.5-.13.5c-.05.19-.07.29,0,.29s.26-.14.62-.5a7.24,7.24,0,0,0,1.21-1.49,3.38,3.38,0,0,1,2.82-1.83,3,3,0,0,1,1.66.25,1.61,1.61,0,0,0,.62.25,1.25,1.25,0,0,0,.58-.33,2,2,0,0,1,.83-.46c.14,0,.21-.06.21-.19s.13-.18.39-.18.44-.07.52-.21.72-.52,1.75-.81a11.7,11.7,0,0,1,2.69-.48,19.55,19.55,0,0,1,2.47.19,11,11,0,0,1,1.93.39,5,5,0,0,1,1.25.88,1.8,1.8,0,0,1,.56.66,3.33,3.33,0,0,1,.1,1,2.48,2.48,0,0,1-.33,1.49,13.07,13.07,0,0,1-2.14,1.74,7.07,7.07,0,0,1-1.93,1.17c-.14,0-.3.12-.47.37a2.35,2.35,0,0,1-.77.64,5,5,0,0,0-1,.69l-.41.41.79.38c.69.3,1.06.64,1.12,1s-.24.67-.87.89a10.83,10.83,0,0,1-2.56.54,7.25,7.25,0,0,1-2.09.09c-.58-.25-.89-1.1-.92-2.53a3.88,3.88,0,0,1,0-1.15c0-.12.24-.24.58-.35a3.28,3.28,0,0,0,1.33-.75,29.54,29.54,0,0,1,2.73-2.07c.34-.22.49-.41.46-.56s.12-.33.44-.54a3.65,3.65,0,0,0,1-1.2,3.5,3.5,0,0,1,1-1.19c.52-.38.33-.6-.58-.66-.39,0-.92,0-1.58,0-1.33.06-2.19.08-2.57.08a4.39,4.39,0,0,0-1.73.63,6.56,6.56,0,0,0-1.68,1.16,2.58,2.58,0,0,0-.66,1.08,12.51,12.51,0,0,0-.33,2.2,8.36,8.36,0,0,0,0,1.91.93.93,0,0,1-.34.95c-.72.5-1.42.08-2.11-1.24a7.37,7.37,0,0,1-.71-1.73,2.84,2.84,0,0,1,0-1.26,2.71,2.71,0,0,0,.09-1.12c-.06-.36-.17-.54-.34-.54a2,2,0,0,0-.91.5,2,2,0,0,1-1,.49c-.2,0-.4.28-.63.83A7.14,7.14,0,0,1,60.4,27.5c-.6.71-.89,1.17-.89,1.39a1.9,1.9,0,0,1-.62,1,23.18,23.18,0,0,1-2,1.55,6.26,6.26,0,0,1-1.53,1c-.14,0-.4.17-.79.5a1.52,1.52,0,0,1-1.37.5c-.11,0-.16-.09-.16-.17s-.14-.21-.4-.21-.39-.19-.39-.56A4.16,4.16,0,0,0,52,31.13,2.9,2.9,0,0,1,51.69,30c0-.21.15-.36.43-.48a1.46,1.46,0,0,0,.71-.7,2.9,2.9,0,0,1,1-1,3.81,3.81,0,0,0,1.14-1.16l.38-.7-.58.16a7.15,7.15,0,0,0-1.83.94,7,7,0,0,0-1.66,1.34,2.78,2.78,0,0,0-.5.77,3.06,3.06,0,0,0,0,1c.08.66.14,1.17.17,1.53s.08.54.16.54.13.18.13.54.08.59.25.69.17.33,0,.7a1.4,1.4,0,0,0-.15.81c.09.22-.08.43-.5.62a1.65,1.65,0,0,1-1.12.17,3.09,3.09,0,0,1-1.66-1.39,6,6,0,0,1-.91-2.64,3,3,0,0,0-.39-1.49,2.09,2.09,0,0,1-.4-1,1.71,1.71,0,0,1,0-.6c0-.1.14-.17.33-.23A.37.37,0,0,0,47,28.1a2,2,0,0,0,.09-.74,9.84,9.84,0,0,1,.12-1.25,14,14,0,0,0,.29-2.53,3.91,3.91,0,0,1,.87-2.45,8.08,8.08,0,0,1,2.78-2.07.63.63,0,0,0,.34-.56c0-.24.07-.36.2-.36a.19.19,0,0,1,.21.21c0,.14.07.17.21.1a.18.18,0,0,0,.1-.29C52.11,18,52.25,17.84,52.58,17.56Zm1.7-.89c.33-.18.54-.24.62-.19s0,.2-.33.34a1.33,1.33,0,0,1-.5.12Q53.79,16.94,54.28,16.67ZM55.79,4a3,3,0,0,1,.63-1.58,1,1,0,0,1,1-.37,2.56,2.56,0,0,1,2,1.37c.2.44.42.7.67.77a2,2,0,0,0,1.2-.27,4,4,0,0,1,1.16-.38,1.16,1.16,0,0,0,.63-.2,9.61,9.61,0,0,1,1.47-.52c.71-.21,1.27-.35,1.68-.44a4.36,4.36,0,0,1,2.18.42A2.8,2.8,0,0,1,70,3.87c.35.86.06,1.92-.88,3.19a16,16,0,0,1-1.63,1.75,4.39,4.39,0,0,1-1.35,1,1.46,1.46,0,0,0-.31,0,8.5,8.5,0,0,0-1.23,1c-.28.25-.48.45-.62.6a.8.8,0,0,0-.23.4.25.25,0,0,0,.12.25,1.64,1.64,0,0,0,.48.12c1.5.25,2.24.68,2.24,1.29a.64.64,0,0,1-.39.58,16.05,16.05,0,0,1-1.93.7c-.83.25-1.7.53-2.62.83a1.49,1.49,0,0,0-.68.34,1.44,1.44,0,0,0-.23.66c-.05.53-.17.79-.35.79a.5.5,0,0,0-.44.29c-.14.25-.47.27-1,.06a4.11,4.11,0,0,1-1.48-1c-.5-.55-.83-.79-1-.72s-.32,0-.4-.09,0-.22.29-.31.34-.2.36-.37a1.54,1.54,0,0,0-.27-.75,1.85,1.85,0,0,1-.3-.95c0-.31-.1-.46-.31-.46s-.31-.13-.31-.39a1,1,0,0,0-.31-.71c-.21-.21-.27-.72-.19-1.55s.16-1.62.21-2.37.11-1.38.17-1.91a4,4,0,0,1,.18-1A4.85,4.85,0,0,0,55.79,4ZM67.56,4c0-.11-.14-.16-.42-.16a5.33,5.33,0,0,0-1,.14c-.43.1-.86.22-1.27.36a16.89,16.89,0,0,0-2.7,1.16,7.79,7.79,0,0,1-.91.52,3.49,3.49,0,0,0-1.08.76,6.7,6.7,0,0,0-.35,2.56c-.07,1.53,0,2.36.14,2.47s.76-.1,1.54-.79S62.88,9.82,63,9.86s.15,0,.15-.14a9.79,9.79,0,0,1,1.72-2,13.23,13.23,0,0,0,1.72-1.91,3,3,0,0,1,.5-.87A2.69,2.69,0,0,0,67.56,4Zm-6.1,20.09c.47-.55.69-.71.66-.46a1.62,1.62,0,0,1-.5.83,4.6,4.6,0,0,1-.83.92c-.16,0,0-.34.42-1A2.49,2.49,0,0,1,61.46,24.12Z"/><path class="cls-1" d="M93.87,11.49a9.51,9.51,0,0,1,2.45-.63l1.08.21a2,2,0,0,1,1.08.62,1.9,1.9,0,0,1,.31.56,2.26,2.26,0,0,1,0,.77A9.75,9.75,0,0,1,98,15.14a10.94,10.94,0,0,1-1.08,2c-.53.61-1.11,1.24-1.76,1.89a6.45,6.45,0,0,1-1.14,1,1,1,0,0,1-.79-.42c-.25-.22-.36-.28-.33-.17a1.92,1.92,0,0,1,0,1.83c-.17.19-.31.3-.42.31a2.34,2.34,0,0,1-.75-.14c-.52-.14-.79-.29-.79-.44s-.07-.23-.22-.23-.37-.27-.65-.83a4.89,4.89,0,0,0-.64-1.06.86.86,0,0,1-.23-.64c0-.27-.08-.41-.25-.41-.5,0-.74-.72-.74-2.16a7.33,7.33,0,0,0-.34-2.49c-.44-1.3-.45-2,0-2.16q.21,0,.27,0s0,.08,0,.17,0,.31.29.43a4.56,4.56,0,0,1,1.08,1,3.29,3.29,0,0,0,.69.64c.09,0,.21,0,.35-.18a3.6,3.6,0,0,1,1.08-.79A20.53,20.53,0,0,1,93.87,11.49Zm1.66,1.45c.06-.17.06-.28,0-.33s-.14-.09-.31-.09a4.36,4.36,0,0,0-1.18.25l-1.73.54a2.6,2.6,0,0,0-.87.33,1.8,1.8,0,0,0-.41.58A1.86,1.86,0,0,0,91,15.55a10.48,10.48,0,0,0,.48,1.16c.24.5.45.94.65,1.31s.31.53.37.48,0-.21-.21-.54a2,2,0,0,1-.25-.75c0-.16.42-.68,1.25-1.53s1.51-1.62,1.78-1.95A2.67,2.67,0,0,0,95.53,12.94Zm12-12.37c.39-.11.58-.1.58,0s.13.18.38.21a.35.35,0,0,1,.33.31,12.21,12.21,0,0,1,0,1.6,2.08,2.08,0,0,1-.15.73,1.28,1.28,0,0,1-.48.39c-.27.17-.41.3-.41.41a6.22,6.22,0,0,1-.48,1.23c-.32.7-.52,1.18-.6,1.43a13.18,13.18,0,0,0-.48,1.56,8,8,0,0,0-.27,1.22,5,5,0,0,0,1,.08,3.88,3.88,0,0,1,2.7,1.08l.21.27.14.17s0,.06,0,.06a4.9,4.9,0,0,0,.25,1.08c.19.58,0,2.13-.62,4.65-.22.94-.36,1.57-.42,1.91A12.37,12.37,0,0,1,108,22.54a12.62,12.62,0,0,1-1.89,3.18c-.55.61-1.06.86-1.51.75s-.79-.56-1-1.33a1.85,1.85,0,0,0-.35-.79,1.45,1.45,0,0,1-.35-.71,14.92,14.92,0,0,0-.65-1.63c-.26-.57-.43-.86-.52-.86s-.38.54-.81,1.6a7.52,7.52,0,0,0-.62,1.95,1,1,0,0,1-.23.69,2.3,2.3,0,0,0-.37.77,11.28,11.28,0,0,1-.6,1.47c-.32.69-.56,1.24-.71,1.64s-.38.95-.68,1.64-.58,1.24-.75,1.66a9.15,9.15,0,0,1-.46.83,10.77,10.77,0,0,0-1,2.24,18.39,18.39,0,0,1-.89,2,8.48,8.48,0,0,1-.85,1.53,2.34,2.34,0,0,1-1.12-.66.83.83,0,0,1-.34-.66,1.14,1.14,0,0,0-.33-.75,1.06,1.06,0,0,1-.33-.6,2.05,2.05,0,0,1,.23-.73c.15-.33.3-.66.46-1s.3-.45.45-.4S93,34.3,93,34c0-.53.15-.66.46-.42q.16.13.39-.18a2.12,2.12,0,0,0,.33-.73,1.1,1.1,0,0,0,0-.7c-.08-.2-.1-.29,0-.29l.12,0a.17.17,0,0,0,.25-.09,2.76,2.76,0,0,0,.17-.7c.08-.58.23-.9.46-1a.39.39,0,0,0,.27-.14,1.61,1.61,0,0,0,.1-.48c0-.14.11-.31.33-.52s.3-.39.23-.56,0-.25.06-.25.22-.12.31-.37.31-.72.65-1.41a5.43,5.43,0,0,0,.56-1.64c0-.4.14-.65.31-.75a.49.49,0,0,0,.25-.45.69.69,0,0,1,.33-.56A1.52,1.52,0,0,0,99,21.78a2.18,2.18,0,0,1,.29-1.06q.21-.22.09-.42c-.09-.12-.06-.18.06-.18a.17.17,0,0,1,.19.18c0,.13,0,.16.14.09s.13-.29.11-.67a2.18,2.18,0,0,1,.24-1.14,12.69,12.69,0,0,0,.79-1.74c.11-.31.65-1.65,1.62-4l.62-1.53-.41-.33a1,1,0,0,0-.62-.34c-.17,0-.25-.06-.25-.18s-.06-.15-.17-.09-.16.05-.16-.06a.3.3,0,0,1,.18-.29.24.24,0,0,1,.31.08c.09.14.38.13.88,0a1.39,1.39,0,0,0,.68-.31,3.22,3.22,0,0,0,.44-.64c.24-.53.44-1,.6-1.48s.56-1.43,1.24-2.92a15.75,15.75,0,0,0,1.1-2.78,6.1,6.1,0,0,1,.23-1A.45.45,0,0,1,107.48.57ZM98.54,22.69c-.13,0-.15-.05-.08-.17s.13-.16.18-.16.09.05.09.16S98.66,22.69,98.54,22.69Zm8.73-11.2c-.08-.14-.41-.18-1-.13a3.41,3.41,0,0,0-1.29.33,2.32,2.32,0,0,0-.39,1,4.48,4.48,0,0,1-.46,1.16,1.3,1.3,0,0,0-.23.75,1.81,1.81,0,0,1-.25.87,15.38,15.38,0,0,0-.6,1.53,6.21,6.21,0,0,0-.35,1.33.35.35,0,0,0,.23.37c.15.06.27.34.35.83s.21.94.39,1,.43-.19.73-.68a5.35,5.35,0,0,0,.54-1c0-.07.08-.19.25-.35a.93.93,0,0,0,.25-.69,1.42,1.42,0,0,1,.16-.72,18.65,18.65,0,0,0,1.12-3.12A7.31,7.31,0,0,0,107.27,11.49Zm4.69.83a.86.86,0,0,1,0-.42c0-.05.11-.08.25-.08s.38.06.38.18.06.19.2.19.56.39.92,1.16c.11.28.2.43.27.46s.2,0,.39-.13a2.63,2.63,0,0,1,.89-.35q.52-.11,2.22-.54a4.25,4.25,0,0,1,2-.25,2.65,2.65,0,0,0,1,.27,2.91,2.91,0,0,1,1.25.52c.41.29.62.55.62.77a3,3,0,0,1-.41,1.06,8.84,8.84,0,0,1-.75,1.18.69.69,0,0,1-.52.33,1,1,0,0,0-.64.4,4.74,4.74,0,0,1-.75.64c-.22.14-.34.25-.35.33s.07.17.27.25a2,2,0,0,1,1.41,1.2,1.27,1.27,0,0,1,.06.63c0,.11-.15.16-.31.16s-.25.06-.25.17a2.93,2.93,0,0,1-1,.37,13.51,13.51,0,0,1-1.86.42,13,13,0,0,1-2.08.12,3.47,3.47,0,0,1-1.68-.21,2.48,2.48,0,0,1-.85-1.2,2.65,2.65,0,0,0-.66-1c-.23-.16-.37-.69-.44-1.59a3.55,3.55,0,0,1,.23-1.93,3,3,0,0,0,.33-1.39A5.21,5.21,0,0,0,112,12.32Zm6.81,2.07q0-.21-1.29,0a8.55,8.55,0,0,0-1.89.5,4.58,4.58,0,0,0-1.3.54,3.35,3.35,0,0,0,.14.66c.1.33.18.66.25,1s.17.47.31.47a7.69,7.69,0,0,0,2-1.45C118.19,15.12,118.77,14.56,118.77,14.39Z"/><path class="cls-1" d="M147.11.32a12.19,12.19,0,0,1,.52-1.14c.13-.21.26-.3.4-.27s.34.21.35.54.06.86.15,1.6a6.3,6.3,0,0,1-.09,2.05,48.84,48.84,0,0,0-.7,5q-.33,3.3-.42,6.21a35.87,35.87,0,0,1-.21,4c-.08.39-.09.59,0,.59a.7.7,0,0,0,.21-.13,11.71,11.71,0,0,0,1.23-1.7,10.5,10.5,0,0,0,1.05-1.87,1,1,0,0,0,.07-.27l-.15.19q-.28.38-.21.12a11.33,11.33,0,0,1,.67-1.62c.72-1.49,1-2.44.91-2.86,0-.05,0-.08,0-.08l.1,0c.11.11.25.06.42-.17s.33-.62.25-.78-.08-.06-.17,0-.09,0-.1-.07a.43.43,0,0,1,.06-.27c0-.22.06-.33.08-.33s.09.1.17.29a1,1,0,0,0,.14.25s0-.07,0-.21.06-.37.2-.37.14.19,0,.58l-.12.37.25-.24a1.17,1.17,0,0,0,.29-.56c0-.13,0-.16.1-.09a3.43,3.43,0,0,1-.18,1.39c-.61,2.71-.92,4.24-.92,4.57a6.85,6.85,0,0,1-.74,2,7.46,7.46,0,0,0-.79,2.1,4.89,4.89,0,0,1-1.33,2.32,3.51,3.51,0,0,0-.79,1c0,.11-.17.34-.5.7a1.85,1.85,0,0,0-.39.73,8.61,8.61,0,0,0-.15,1.56,38.82,38.82,0,0,0,.54,6.39,20.46,20.46,0,0,1,.33,3.73,7.53,7.53,0,0,1-.14,2.18c-.13.35-.38.45-.77.31a2.55,2.55,0,0,1-.93-.6c-.4-.35-.6-.57-.6-.69a5.48,5.48,0,0,0-.71-1.24,3.84,3.84,0,0,1-.71-1.43,1.83,1.83,0,0,0-.43-1,3.75,3.75,0,0,1-.58-1.76c-.1-.77-.19-1.36-.27-1.74l0-.34c.08.09.59,1,1.53,2.79a3.72,3.72,0,0,0,.21.39l.21.33a1.81,1.81,0,0,0,.16.25l.13.15,0,.08a32.15,32.15,0,0,0,0-3.61l-.17-3.53-.66.46a7.18,7.18,0,0,1-1.41.6,5.15,5.15,0,0,1-1.5.31c-.14,0-.47-.24-1-.73a2,2,0,0,1-.79-1.37,1.28,1.28,0,0,0-.23-.87c-.15-.15,0-.58.33-1.3a4,4,0,0,1,.73-1.15c.11,0,.3-.39.58-1.05s.48-1,.6-1,.19-.1.19-.29-.16-.29-.48-.29a1.51,1.51,0,0,1-1-.42c-.17-.13-.3-.23-.4-.29a.57.57,0,0,0-.23-.08.1.1,0,0,0-.1.08.86.86,0,0,0,0,.25c0,.25-.32.67-1,1.27s-1.37,1.31-2.2,2.14c-1.77,1.71-2.83,2.5-3.19,2.36s-.33-.05-.33.08a1.25,1.25,0,0,1-.34.88,1.38,1.38,0,0,1-1.07.33,1.59,1.59,0,0,1-.71-.17,1.91,1.91,0,0,1-.41-.7,3.3,3.3,0,0,0-.48-.9c-.1-.06-.19-.31-.27-.72a6.48,6.48,0,0,0-1.16-2.58,1.91,1.91,0,0,1-.38-1,1.12,1.12,0,0,1,.25-.89,7.75,7.75,0,0,0,.62-2.64c.39-2.6.78-4,1.17-4.07.13,0,.34,0,.62.29a4.86,4.86,0,0,1,1.49,2.2q.09.38.21.42a1.7,1.7,0,0,0,.71-.17,8.18,8.18,0,0,1,2-.41,3.42,3.42,0,0,1,1.12,0,4.57,4.57,0,0,1,1,.41,7.92,7.92,0,0,1,1.66,1.16c.45.42.67.56.67.42s.21-.4.62-.87a4.66,4.66,0,0,1,1-.92,6.51,6.51,0,0,0,1.12-1.2l.87-1-1.5-.29a7.68,7.68,0,0,1-1.24-.29.78.78,0,0,1-.46-.41.54.54,0,0,1,0-.48,2.43,2.43,0,0,1,.69-.56c1.27-.89,2.31-1.19,3.11-.91l.58.2.17-1A18.66,18.66,0,0,1,144.54,7,4.21,4.21,0,0,1,145,5.72L145,6a.67.67,0,0,0,0,.24,16.87,16.87,0,0,0-.38,2.39,5.15,5.15,0,0,0,0,1.76c.19.34.33.28.42-.16a1.11,1.11,0,0,1,0-.29A28.68,28.68,0,0,1,145.52,6a23.7,23.7,0,0,1,.89-3.72C146.55,1.91,146.78,1.26,147.11.32ZM135.66,16.38a3.44,3.44,0,0,0-1.85-.08,2.57,2.57,0,0,0-1.51.75,3.79,3.79,0,0,0-.37,2.11c0,1.11,0,1.66.12,1.66.25,0,.86-.46,1.83-1.39a10.78,10.78,0,0,0,1.91-2.22l.37-.62Zm9.05,3.78c.08-.36.09-.54,0-.54s-.22.17-.44.5a1,1,0,0,1-.79.5c-.27,0-.78.34-1.53,1a4.61,4.61,0,0,0-1.29,1.58c-.08.28-.08.45,0,.52s.24,0,.46-.15a1.85,1.85,0,0,1,.66-.45h0a2.94,2.94,0,0,1-.45.45,3.09,3.09,0,0,1-.83.63c-.11,0-.17.1-.17.31s.06.31.17.31a7,7,0,0,0,1.45-1q1.29-.95,2-1.53a1.53,1.53,0,0,0,.62-1.14A3,3,0,0,1,144.71,20.16Zm-.09-5.23c0-.5-.05-.79-.16-.87s-.42-.06-.91.08-.57.14-.63.08-.13.07-.31.27-.36.44-.54.69a1.21,1.21,0,0,0-.27.5c0,.08.1.05.29-.11s.29-.15.29,0,.19.2.56.13a1.14,1.14,0,0,1,.94.18c.27.23.47.27.58.13A2.14,2.14,0,0,0,144.62,14.93Zm-2.19,7.68c.22-.14.33-.2.35-.17s-.05.13-.19.29-.28.26-.35.19S142.23,22.75,142.43,22.61Zm1.07-.83c.59-.72.86-.94.83-.67a.54.54,0,0,1,0,.17c0,.19-.3.44-.74.75l-.67.49ZM155.25.2a1.84,1.84,0,0,1,1.95.45c.36.39.5.65.41.79A7.71,7.71,0,0,0,157.28,3c-.14.91-.23,1.53-.29,1.87a29,29,0,0,0-.45,4.44l0,.7H158a5.12,5.12,0,0,1,1.43.13,5.45,5.45,0,0,1,1.22.7,5,5,0,0,1,1,.77,1.26,1.26,0,0,1,.27.69,1.22,1.22,0,0,1-.27.87,21.92,21.92,0,0,1-1.72,1.74c-1.44,1.38-2,2.17-1.79,2.37a1.1,1.1,0,0,0,.5.08.86.86,0,0,1,.71.31.65.65,0,0,0,.49.31c.17,0,.5.26,1,.79s.68.84.64,1.1-.35.49-.93.68a4.34,4.34,0,0,1-1.08.25,2.8,2.8,0,0,0-1.81,1.06c-.67.71-.94,1.25-.8,1.64a.4.4,0,0,0,.35.29,6.11,6.11,0,0,0,1.22,0,5.84,5.84,0,0,1,2.76.35c.74.32,1.09.76,1.06,1.31,0,.83-.14,1.24-.33,1.24a3.06,3.06,0,0,0-1,.67,2.08,2.08,0,0,1-2.86.12,1.94,1.94,0,0,0-.69-.41c-.09,0-.23-.17-.39-.5-.33-.64-.51-.48-.54.46v.91a1.57,1.57,0,0,1,0,.46q.28,5.43.27,6.41a1.91,1.91,0,0,1-.35,1.3,1.16,1.16,0,0,1-.75.42,1.8,1.8,0,0,1-.81-.25c-.32-.17-.48-.32-.48-.46A2.14,2.14,0,0,0,154,35a2.18,2.18,0,0,1-.31-.89,1.32,1.32,0,0,0-.29-.72,2.77,2.77,0,0,1-.39-1.17,1.64,1.64,0,0,0-.31-.91,1.52,1.52,0,0,1-.52-1,4.55,4.55,0,0,1-.13-1.49c0-.47.17-.7.38-.7s.27.29.18.87a2.6,2.6,0,0,0,0,.74c0,.11.14.2.33.25a1.32,1.32,0,0,0,.54.09,32.6,32.6,0,0,0,0-3.78c0-.19,0-1.44.09-3.74s.16-5.1.25-8.34q.12-6.06.37-8.38c.11-1,.11-1.51,0-1.45a3.61,3.61,0,0,0-.29,1.45c0,.22-.07.24-.12,0a1.13,1.13,0,0,1-.09-.25c-.11-.38-.16-.45-.16-.21a2.65,2.65,0,0,1-.67,1.37c-.11.14-.16.16-.16,0a4.17,4.17,0,0,1,.41-1.19,2.89,2.89,0,0,1,.58-1c.14-.09.17-.18.11-.29s0-.35.18-.71.29-.46.38-.29v.12q.07.21.12-.12V3.1a1.84,1.84,0,0,0,0-.54s-.07,0-.13.13-.2,0-.2-.25a3,3,0,0,1,.41-1.37Q154.92.28,155.25.2Zm-3.07,7.22c.08-.19.18-.29.31-.29s.1.12-.06.37-.31.43-.34.29A1.19,1.19,0,0,1,152.18,7.42Zm6.39,5.19a6.29,6.29,0,0,1-1.54-.13l-.74-.16v1.49c0,1,.07,1.6.22,1.72s.51-.07,1.06-.6,1-.92,1-1.1.05-.27.16-.27.24-.17.38-.5.14-.35.1-.39A1.45,1.45,0,0,0,158.57,12.61Zm-1.29,7.82a3.23,3.23,0,0,0-.81-.23c-.12,0-.18.44-.18,1.31s.05,1.3.16,1.3.38-.29.81-.87a3.18,3.18,0,0,0,.64-1.08C157.9,20.73,157.7,20.58,157.28,20.43Z"/><path class="cls-1" d="M6.05,34.17a1.45,1.45,0,0,1-1-.51,7.35,7.35,0,0,1-.88-1.14c-.46-.7-.52-1-.52-1.11s0-.13-.23-.55a2,2,0,0,1-.23-.74s0-.08-.2-.29A.71.71,0,0,1,2.8,29,6.91,6.91,0,0,0,3,27.44c.11-1.51-.1-1.69-.11-1.7-.25.1-.53,0-.81-.36A7.57,7.57,0,0,1,1.27,24,4.07,4.07,0,0,1,.7,22.15a2.62,2.62,0,0,1,.9-1.42c1.91-2,2.11-2.45,2.13-2.54s0-.17.69-1.47a8,8,0,0,0,1-2.33l-.12,0a2.3,2.3,0,0,0-.7.39,2.23,2.23,0,0,1-1,.35,1.53,1.53,0,0,1-1-.13c-.17-.13-.39-.42-.85-1.7A6.56,6.56,0,0,1,1.29,12a1.21,1.21,0,0,1,.19-.8A11.69,11.69,0,0,1,3.43,9c1.1-1.09,1.82-1.83,2.15-2.19A12.52,12.52,0,0,0,6.9,5c.62-1,.65-1.22.65-1.26A1.68,1.68,0,0,0,7.36,3a.88.88,0,0,0-.19-.32s-.33,0-.33-.49a.5.5,0,0,1,.41-.5,1.35,1.35,0,0,1,.59.05.91.91,0,0,1,.5.4c.07.11.11.12.11.12a1,1,0,0,1,1.47.51.72.72,0,0,0,.45.36q.56.15.69,1.08A2.21,2.21,0,0,1,11,5.48l0,.07a.38.38,0,0,1,.07.11c.07.2-.11.34-.18.4s-.15.14-.44,1A11.24,11.24,0,0,1,9.13,9.46a12.32,12.32,0,0,0-.65,1.17,2.31,2.31,0,0,1-.65.86,2.31,2.31,0,0,0-.59.85L7,12.8l.58.58a2.5,2.5,0,0,1,.63.76,2.2,2.2,0,0,1,.15.91,5.54,5.54,0,0,1-.05,1.32,6.59,6.59,0,0,1-.47,1.28c-.33.71-.6,1.36-.8,1.93a12.35,12.35,0,0,1-1.12,2.2c-.52.85-.88,1.49-1.07,1.89a1.89,1.89,0,0,0-.18.49h0a.63.63,0,0,0,.15.24c.19.23.28.24.28.24a14.1,14.1,0,0,0,1-1.89l.85-1.51v1s0,.16,0,.37a23.23,23.23,0,0,0-.12,3.08c0,1.62,0,2.79.08,3.46.2,1.77.3,2.9.3,3.47a1.75,1.75,0,0,1-.33,1.25A1.05,1.05,0,0,1,6.05,34.17ZM2.94,25.25a.48.48,0,0,1,.3.11c.21.17.41.56.28,2.12a6.07,6.07,0,0,1-.27,1.73s0,.12.1.28a1,1,0,0,1,.34.63,2,2,0,0,0,.19.54,6,6,0,0,1,.26.68c0,.08,0,.26.44.9A7.05,7.05,0,0,0,5.4,33.3c.54.54.84.39,1.06.17,0,0,.18-.25.18-.9s-.1-1.69-.29-3.42c-.06-.71-.09-1.85-.09-3.51,0-.38,0-.73,0-1.05a.23.23,0,0,1-.15.05H6l-.08-.09a.28.28,0,0,1-.06-.2A3.56,3.56,0,0,1,5.5,25a.5.5,0,0,1-.4.17,1,1,0,0,1-.65-.42.92.92,0,0,1-.26-.56,1.66,1.66,0,0,1,.23-.7,21,21,0,0,1,1.09-1.94,12.46,12.46,0,0,0,1.08-2.11c.21-.58.48-1.24.82-2a6.9,6.9,0,0,0,.43-1.17,5.14,5.14,0,0,0,0-1.2,1.71,1.71,0,0,0-.1-.72,2.31,2.31,0,0,0-.52-.6l-.84-.84.36-.78a3,3,0,0,1,.73-1A1.93,1.93,0,0,0,8,10.43,10.51,10.51,0,0,1,8.71,9.2,11.07,11.07,0,0,0,9.89,6.84a3.74,3.74,0,0,1,.5-1.07.71.71,0,0,1,.11-.52,1.63,1.63,0,0,0,.06-1c0-.23-.11-.61-.31-.67A1.16,1.16,0,0,1,9.49,3c-.29-.5-.55-.45-.78-.32a.57.57,0,0,1-.79-.3.44.44,0,0,0-.24-.18.65.65,0,0,0-.33,0h0v0a1,1,0,0,1,.48.58,2.34,2.34,0,0,1,.23.93c0,.18-.09.51-.72,1.53A15.07,15.07,0,0,1,6,7.13c-.33.36-1.06,1.1-2.17,2.21a10.34,10.34,0,0,0-1.85,2.13.82.82,0,0,0-.15.5,8.9,8.9,0,0,0,.4,1.21,4.51,4.51,0,0,0,.67,1.47,1.12,1.12,0,0,0,.68,0,1.94,1.94,0,0,0,.8-.24A3,3,0,0,1,5.16,14a.71.71,0,0,1,.65,0,.38.38,0,0,1,.16.33A7,7,0,0,1,4.86,17a10.19,10.19,0,0,0-.63,1.28c0,.2-.17.63-2.27,2.84-.6.6-.74.94-.76,1.11a3.52,3.52,0,0,0,.52,1.55,7.92,7.92,0,0,0,.77,1.32c.16.19.26.22.29.22Zm3.36-1.8-.14.3.08,0h0C6.29,23.62,6.3,23.53,6.3,23.45Zm35,10.15a1.46,1.46,0,0,1-.29,0,22.58,22.58,0,0,1-2.28-.52l-.61-.16-.17,0a1.56,1.56,0,0,1-.72-.29,4.37,4.37,0,0,0-.74-.48c-.46-.29-1-.63-1.46-1a3.29,3.29,0,0,0-.78-.53c-.12,0-.33-.08-1.24-1.07l-1.49-1.62c-1.93-2-2-2.18-2-2.32a1.41,1.41,0,0,1-.11-.14,1.42,1.42,0,0,0-.3-.3,18.69,18.69,0,0,1-1.18,1.45c-.95,1.06-1.06,1.06-1.19,1.06,0,0-.12.07-.76.57a3.22,3.22,0,0,1-1.54.61,1.54,1.54,0,0,1-1.28-.38,6,6,0,0,1-.69-.87,1.17,1.17,0,0,1-.3-.74,1.77,1.77,0,0,1-.43.56.62.62,0,0,0-.12.12c0,.2-.11.46-.58,1a2.79,2.79,0,0,1-.67.63,1.64,1.64,0,0,1-.81.16,2,2,0,0,1-2-1.72,2.68,2.68,0,0,0-.33-.82c-.11-.15-.21-.42-.09-1.4l.06-.47-.1.06a2.09,2.09,0,0,0-.82.87c-.28.55-.47.76-.69.78,0,0,0,.07-.06.19a5,5,0,0,1-1.09,1.57,10.22,10.22,0,0,0-.87,1.1,4.05,4.05,0,0,1-.67,1,2.53,2.53,0,0,1-1.09.95c-.25.07-.63,0-1-.5a3.2,3.2,0,0,1-.44-1.57,10.32,10.32,0,0,1,0-2.08c.07-.61.19-1.18.6-1.18a.66.66,0,0,1,.45-.64,4.14,4.14,0,0,0,1.05-.6,4.63,4.63,0,0,0,.58-.47.79.79,0,0,1,.11-.47.81.81,0,0,1,.43-.25c.14-.06.13-.1.12-.15a.53.53,0,0,1,0-.4.41.41,0,0,1,.34-.17s.15,0,.5-.51a5,5,0,0,1,.8-.88.22.22,0,0,0,.07-.06c-.13-.16-.15-.44.19-.67,0,0,.12-.07.28-.32-.15.07-.34.13-.56.21a2.46,2.46,0,0,0-.87.4,5.12,5.12,0,0,1-1.22.7c-.68.33-.77.48-.77.5a.42.42,0,0,1-.22.39c-.21.1-.47,0-.88-.26a.73.73,0,0,0-.13-.11l-.06,0a2.62,2.62,0,0,1-.66-1.9c0-.92.17-1.5.61-1.77a3.57,3.57,0,0,0,.74-.54,1.41,1.41,0,0,1,.82-.46c0-.15.23-.38,1.11-1A27.61,27.61,0,0,0,16.8,14c.72-.7,1.1-1.11,1.31-1.35a.39.39,0,0,1-.21-.08.37.37,0,0,1-.14-.23,3,3,0,0,0-1,.44,6,6,0,0,0-1,.76,2.55,2.55,0,0,1-2.29.64,2.32,2.32,0,0,1-1.88-1.39A4.71,4.71,0,0,1,11.33,11a4.63,4.63,0,0,1,.48-2.17c.32-.64.62-1,1-1a4.46,4.46,0,0,1,1.94.33c1.09.32,1.44.25,1.54.2s.3-.22.43-1.08l.21-1.06,0-1.77c0-1.95.08-2,.37-2s.29,0,1,1c.56.84.65,1.07.66,1.2.31.07.38.52.41.7.06.33.15.83.29,1.49s.22,1.15.25,1.32c0,0,.14,0,.44-.1a.59.59,0,0,1,.52,0l.07,0c.23-.1.46.09.65.28a.72.72,0,0,0,.48.17,3.19,3.19,0,0,1,1.74.65c.67.45,1,.85,1,1.24,0,.23-.11.53-1.49,1.78-.73.66-.75.88-.75.9a.33.33,0,0,1-.18.33.4.4,0,0,1-.39-.07,5.76,5.76,0,0,0-1.39,1.16l-.38.38a.58.58,0,0,1,.43.49,1.24,1.24,0,0,0,.29.08,2.54,2.54,0,0,0,.87,0c.14,0,.28,0,.84.34.29.17.46.28.56.35l.05-.07a.76.76,0,0,1,.11-.23,1.22,1.22,0,0,1,.14-.33,1.27,1.27,0,0,1,.18-.26.31.31,0,0,1,.46,0c.21.22,0,.57-.06.74l0,0a.26.26,0,0,1,.18.19v0a.37.37,0,0,1,.16.05.92.92,0,0,1,.29.28c.22.24.29.28.3.28s.13,0,1.93,1.28l.89.6.64.44h0a10.26,10.26,0,0,0,.62-1.5,12.5,12.5,0,0,0,.55-1.89,3.25,3.25,0,0,0,.06-.45,4.74,4.74,0,0,0-.68.21,3.3,3.3,0,0,1-1.06.27h-.08a.41.41,0,0,1-.4.49c-.07,0-.41,0-.41-.52,0,0,0-.08-.17-.11-.45-.11-.54-.34-.54-.52,0,0,0-.09-.18-.28a2.24,2.24,0,0,1-.4-1.29,4.76,4.76,0,0,0-.19-1.11.77.77,0,0,1,.15-.83.23.23,0,0,0,.07-.08c-.09-.18,0-.46.27-1s.43-.75.61-.81h0a1.52,1.52,0,0,1,.12-.53,2.6,2.6,0,0,1,.26-.5.48.48,0,0,1,.32-.26.19.19,0,0,0,0-.08,1.45,1.45,0,0,1,0-.32l-.11,0a.32.32,0,0,1-.3,0L27,7.84l0-.17c0-.16.1-.37.59-.88.32-.34.31-.47.31-.47a.47.47,0,0,1-.1-.44.49.49,0,0,1,.38-.26,1,1,0,0,1,.78.16c.08,0,.18.08.36,0a.72.72,0,0,1,.93.12A1.82,1.82,0,0,1,30.5,7,1.53,1.53,0,0,1,30.28,8s-.13.29-.52,1.6a16.57,16.57,0,0,0-.46,1.76c0,.09,0,.16,0,.22a.29.29,0,0,1,.2-.14.62.62,0,0,1,.35,0c.1,0,.11,0,.12,0,.08-.2.28-.43.82-.43a.47.47,0,0,0,.46-.31,1.06,1.06,0,0,0,.12-.4c-.06-.1-.12-.35.23-.65A.43.43,0,0,1,32,9.56a.39.39,0,0,1,.2.39s0,.05.15.09a6.44,6.44,0,0,0,1.22.07,2,2,0,0,1,1.49.46c.25.26.39.29.44.29a.47.47,0,0,1,.52.48,1.41,1.41,0,0,0,.07.42.41.41,0,0,1-.08.5.89.89,0,0,1-.49.22,14.32,14.32,0,0,0-2.05.89c-.59.3-1,.52-1.19.65a.66.66,0,0,0-.16.13,7.12,7.12,0,0,1,.1,1.88,5.83,5.83,0,0,1-.2,2,.8.8,0,0,0-.08.26c.18.23-.06.59-.17.75a1.44,1.44,0,0,0-.25.81,2.23,2.23,0,0,1-.31,1.07,1.91,1.91,0,0,0-.15.46,1.11,1.11,0,0,0,0,.38c.18,0,.32.22.41.52a2.9,2.9,0,0,0,.73,1c.69.73.75.93.75,1.08a4.09,4.09,0,0,0,.59.46,2.52,2.52,0,0,1,1,1c.12.27.24.27.27.27a.76.76,0,0,1,.67.34,1.65,1.65,0,0,0,.54.44,1.36,1.36,0,0,0,.56.26.59.59,0,0,1,.58.43c0,.11.09.11.12.11a6.14,6.14,0,0,1,2.11.92A19.84,19.84,0,0,1,41.73,30a4.24,4.24,0,0,1,.93.87,2.83,2.83,0,0,1,.37,1A1.44,1.44,0,0,1,42,33.46,1.8,1.8,0,0,1,41.26,33.6ZM34.3,30c.09,0,.3.08,1,.63a14.55,14.55,0,0,0,1.41,1,5.23,5.23,0,0,1,.83.55,1.42,1.42,0,0,0,.49.17l.18,0,.61.16c1.15.3,1.89.48,2.21.52a1.47,1.47,0,0,0,.74-.09c.8-.34.82-.79.77-1.09a2.48,2.48,0,0,0-.3-.8,3.35,3.35,0,0,0-.81-.75A21.31,21.31,0,0,0,39.14,29a6.85,6.85,0,0,0-1.88-.86.61.61,0,0,1-.58-.43c0-.11-.09-.11-.12-.11a1.73,1.73,0,0,1-.82-.33,2.08,2.08,0,0,1-.7-.6c0-.05-.09-.11-.25-.11a.8.8,0,0,1-.72-.56,2.12,2.12,0,0,0-.81-.79c-.67-.46-.81-.67-.81-.87a4.68,4.68,0,0,0-.62-.74A3.55,3.55,0,0,1,31,22.41a.54.54,0,0,0-.09-.19c-.11,0-.3-.09-.34-.39a2.43,2.43,0,0,1,.26-1.16,1.75,1.75,0,0,0,.24-.85,2,2,0,0,1,.33-1.07,2.31,2.31,0,0,0,.14-.23c-.13-.21,0-.53.07-.7A6,6,0,0,0,31.76,16a6.93,6.93,0,0,0-.08-1.76c-.07-.25.06-.47.36-.67s.62-.36,1.25-.68A15,15,0,0,1,35.46,12l.2-.05h0a2.23,2.23,0,0,1-.09-.59,1.06,1.06,0,0,1-.82-.43,1.63,1.63,0,0,0-1.13-.3,6.67,6.67,0,0,1-1.35-.09.67.67,0,0,1-.41-.24,1.38,1.38,0,0,1-.17.64,1,1,0,0,1-.91.61c-.09,0-.31,0-.35.11a.55.55,0,0,1-.67.35h0a.52.52,0,0,1-.33.26.42.42,0,0,1-.58-.2,1.63,1.63,0,0,1,0-.72,15.44,15.44,0,0,1,.48-1.86,10,10,0,0,1,.59-1.73C30,7.65,30,7.47,30,7a1.35,1.35,0,0,0-.19-.77.2.2,0,0,0-.3,0,.79.79,0,0,1-.89,0,.51.51,0,0,0-.35-.1.68.68,0,0,1-.06.62c.22,0,.22.28.22.49a.62.62,0,0,1-.39.71c-.09,0-.11.2-.11.33a.74.74,0,0,1-.07.36.36.36,0,0,1-.19.21l-.11,0h0a2.24,2.24,0,0,0-.2.41,1.13,1.13,0,0,0-.09.35c0,.38-.21.47-.33.49a2.59,2.59,0,0,0-.34.56,2.46,2.46,0,0,0-.24.56c.08.12.11.33-.17.63a.26.26,0,0,0-.06.3,4.77,4.77,0,0,1,.23,1.25,1.83,1.83,0,0,0,.26,1,1,1,0,0,1,.32.61s.05,0,.16,0a.69.69,0,0,1,.48.32.52.52,0,0,1,.46-.2,2.8,2.8,0,0,0,.89-.24c.73-.27,1-.28,1.12-.22s.26.48.16,1a12.64,12.64,0,0,1-.57,2,8.85,8.85,0,0,1-.79,1.8l-.12.18-.45-.22L27.56,19l-.89-.6a20,20,0,0,0-1.77-1.21.52.52,0,0,1-.16-.07l.08.08c.65.62.7.79.7.93a3.9,3.9,0,0,0,.34.38c.34.34.49.57.49.78a2.16,2.16,0,0,0,.4.61c.7.95.86,1.63.5,2.09-.09.14-.24.37-.45.32a5.08,5.08,0,0,1-.34.48c-.19.24-.2.32-.2.33a.27.27,0,0,1,0,.33.36.36,0,0,1-.35.18s-.12,0-.44.35a1.68,1.68,0,0,0-.27.36c.09.19,0,.41-.34.65a.44.44,0,0,0-.12.1l.36.36h-.78a3.51,3.51,0,0,0-.39.21,1.73,1.73,0,0,1-.67.33.58.58,0,0,1-.58-.16c-.27-.27-.28-.83,0-1.81a.64.64,0,0,0,0-.15v-.07l-.07-.06c-.13-.14-.13-.32.15-1.11s.26-1,.25-1a1.34,1.34,0,0,1,.06-.84,6,6,0,0,0,.19-1.18,6.59,6.59,0,0,1-.38.78.92.92,0,0,1-.22.22,1,1,0,0,1-.08.54A6.55,6.55,0,0,1,22,22.72a4,4,0,0,1-.8,1.26c-.06,0-.07.05-.07.05s-.05.3-.62.89-.66.63-.84.55l-.16-.06v-.19a1.09,1.09,0,0,1,.12-.46h-.07a.46.46,0,0,1-.34-.22c-.63-1-1-1.09-1-1.09a.32.32,0,0,1-.28-.16c-.09-.19-.05-.42.49-1.23a10.71,10.71,0,0,0,1-1.46,7.61,7.61,0,0,1,1.23-1.52,7.62,7.62,0,0,1,1.48-1.24,3.32,3.32,0,0,1,.79-.39l.16,0h0a1.74,1.74,0,0,0,.19-.5,1.51,1.51,0,0,1,.11-.32h-.21L23,16.48h0s-.14-.1-.58-.36a4,4,0,0,0-.56-.28,2.68,2.68,0,0,1-1,0c-.19,0-.71-.12-.71-.5a.07.07,0,0,0,0-.07.5.5,0,0,1-.09.24l.07.14c.14.29-.23.51-.55.7l-.34.21-.17.13a.43.43,0,0,1-.15.28,1.15,1.15,0,0,1-1.07.34.44.44,0,0,1-.22.3.36.36,0,0,1-.38,0l0,0a.44.44,0,0,1-.43.3.36.36,0,0,1-.35-.55c0-.14.16-.34,1.61-1.09l.85-.42-.07-.06v-.13c0-.13,0-.18,1.47-1.62,1.15-1.13,1.59-1.4,1.87-1.31a3.07,3.07,0,0,1,.86-1c1.2-1.09,1.31-1.36,1.33-1.41s-.14-.36-.83-.83A2.74,2.74,0,0,0,22,8.91a1.2,1.2,0,0,1-.82-.31l-.07-.06c-.09.31-.53.41-.71.45-.54.08-.8.08-.9-.13l0-.11a.24.24,0,0,1,.1-.21.48.48,0,0,1-.22-.31c0-.19-.11-.63-.25-1.35s-.23-1.16-.29-1.5a1.09,1.09,0,0,0-.08-.29.41.41,0,0,1-.34-.45,5.52,5.52,0,0,0-.58-1c-.16-.24-.28-.41-.37-.53,0,.25,0,.64,0,1.24l-.05,1.83L17.17,7.3c-.12.82-.35,1.28-.72,1.45a3.13,3.13,0,0,1-1.87-.18,4.85,4.85,0,0,0-1.71-.33c-.07,0-.29.13-.61.78a4.13,4.13,0,0,0-.43,2,4.55,4.55,0,0,0,.22,1.66,1.87,1.87,0,0,0,1.52,1.1,2,2,0,0,0,1.86-.52,6.16,6.16,0,0,1,1.13-.82c.79-.48,1.23-.61,1.49-.46a.39.39,0,0,1,.19.26l.16,0h.32l.1.17c.07.19.13.32-1.67,2.08a28.71,28.71,0,0,1-3,2.6,5.53,5.53,0,0,0-.92.72.41.41,0,0,1-.47.36s-.14,0-.5.33a3.56,3.56,0,0,1-.82.6c-.33.2-.38.83-.36,1.33a2.15,2.15,0,0,0,.48,1.52,1.25,1.25,0,0,1,.19.15,1.25,1.25,0,0,0,.29.17c.05-.29.37-.53,1.05-.86a5.21,5.21,0,0,0,1.1-.62,2.91,2.91,0,0,1,1-.51,3,3,0,0,0,.84-.35.43.43,0,0,1,.45-.12l.14.07,0,.2a2,2,0,0,1-.76,1.22l0,0c.06,0,.23.36-.18.67a4.06,4.06,0,0,0-.7.78c-.33.42-.57.64-.78.69a.63.63,0,0,1-.45.7.76.76,0,0,0-.2.08,2,2,0,0,0,0,.22c0,.17-.12.34-.79.83a4.56,4.56,0,0,1-1.17.66c-.12.05-.12.11-.12.15a.48.48,0,0,1-.44.52,2,2,0,0,0-.16.73,9.35,9.35,0,0,0,0,2,2.78,2.78,0,0,0,.34,1.33c.24.36.39.32.44.3s.37-.17.83-.76a7.6,7.6,0,0,0,.58-.83c0-.07,0-.14,1-1.31a5.21,5.21,0,0,0,1-1.38c.09-.35.25-.53.46-.56a1.68,1.68,0,0,0,.33-.51,2.49,2.49,0,0,1,1-1.07l1-.61-.19,1.52c-.1.83,0,1,0,1a2.89,2.89,0,0,1,.42,1c.25.92.74,1.36,1.5,1.36a1.11,1.11,0,0,0,.57-.1,1.9,1.9,0,0,0,.53-.52,4,4,0,0,0,.46-.59c-.05-.18,0-.38.3-.58a1.5,1.5,0,0,0,.36-.54c.13-.3.19-.39.28-.44.26-.13.42.14.5.27.19.32.19.52.12.64a2.21,2.21,0,0,0,.2.35,5.07,5.07,0,0,0,.64.79,1,1,0,0,0,.88.24,2.77,2.77,0,0,0,1.29-.51,3.42,3.42,0,0,1,1-.67,7.11,7.11,0,0,0,.87-.89,16.21,16.21,0,0,0,1.27-1.57c.22-.24.49,0,.59,0a2.4,2.4,0,0,1,.39.39,1,1,0,0,1,.22.4,21.29,21.29,0,0,0,1.84,2l1.5,1.62a5.09,5.09,0,0,0,.95.92ZM22.23,26.62h0Zm.85-3.23h0c.18.14.12.42.09.55a.54.54,0,0,1-.05.23c-.26,1.07-.12,1.29-.08,1.33s.09,0,.13,0a1.25,1.25,0,0,0,.48-.25,2.17,2.17,0,0,1,.57-.29,1.13,1.13,0,0,1,.34-.37.7.7,0,0,0,.15-.14c-.06-.28.16-.56.4-.81a1.67,1.67,0,0,1,.64-.48,1.08,1.08,0,0,1,.3-.69,2.11,2.11,0,0,0,.37-.58l.26-.52.21.22c.09-.29-.1-.77-.55-1.39s-.51-.77-.51-.91h0s0-.12-.34-.43S25,18.3,25,18.15c0,0-.06-.1-.55-.57A2.78,2.78,0,0,1,24,17l-.17,2.25a8.83,8.83,0,0,1-.24,1.66c-.11.37-.08.49-.07.51s.07.43-.24,1.38C23.16,23.11,23.11,23.28,23.08,23.39Zm1.67,1.14,0,0S24.76,24.54,24.75,24.53ZM18.37,23a2.88,2.88,0,0,1,1.22,1.27l.12-.09a11.71,11.71,0,0,0,1.8-3.47,4.14,4.14,0,0,1,.56-1.13.67.67,0,0,0,.17-.44,1.44,1.44,0,0,1,.45-1.05h0l-.37.2A7,7,0,0,0,21,19.42a7.9,7.9,0,0,0-1.15,1.4,9.82,9.82,0,0,1-1.06,1.53A5.23,5.23,0,0,0,18.37,23Zm3.3-1.37,0,.08S21.67,21.65,21.67,21.61Zm.65-1.53c-.05.1-.12.23-.19.4l.16-.06A.62.62,0,0,1,22.32,20.08Zm-5.87.1Zm6.64-1.48,0,0,.81-1.82a.74.74,0,0,1-.08-.22.86.86,0,0,0-.15.35,2.2,2.2,0,0,1-.4.86,1.77,1.77,0,0,1-.17.14.32.32,0,0,1,.1.25A.58.58,0,0,1,23.09,18.7Zm8.83-.48h0Zm-9.2-.53Zm-5.85-.13ZM18,16.84a.73.73,0,0,0,.48-.2h0v0l-.26.13Zm9.57-1.11Zm-1.34-4.57h0Zm.57-1Zm-.11-.43Zm.68-.89,0,0Zm-.18-1.33Zm-7.68,4.39h0a.32.32,0,0,1-.26-.12.47.47,0,0,1-.07-.39c.14-.75.58-.86.83-.86a.33.33,0,0,1,.29.2c.06.15,0,.34-.16.63l0,0c-.29.38-.43.46-.53.5Zm-6-.39a1,1,0,0,1-.61-.16c-.17-.12-.34-.38-.15-.91A.65.65,0,0,1,13.2,10a1,1,0,0,1,.89.3.89.89,0,0,0,.51.2c.44,0,.5.21.5.33A.24.24,0,0,1,15,11c-.09.14-.28.28-1.1.41Zm-.19-1h0s-.07.09-.08.11-.07.3,0,.33.19.1.62,0l.29,0a1.68,1.68,0,0,1-.36-.21h0C13.54,10.49,13.41,10.47,13.36,10.47Z"/><path class="cls-1" d="M50,36a1.5,1.5,0,0,1-.37-.05,3.3,3.3,0,0,1-1.81-1.49,6.44,6.44,0,0,1-1-2.75c-.1-1-.26-1.28-.33-1.35a2.26,2.26,0,0,1-.45-1.17,1.47,1.47,0,0,1,0-.71c.08-.28.4-.37.5-.4s.16-.06.17-.1a1.76,1.76,0,0,0,.07-.65,8.32,8.32,0,0,1,.13-1.3,13.53,13.53,0,0,0,.28-2.49A4.12,4.12,0,0,1,48.15,21,8,8,0,0,1,51,18.84a.4.4,0,0,0,.2-.34c0-.56.35-.61.45-.61a.46.46,0,0,1,.27.08,1.5,1.5,0,0,1,.49-.6h0c.55-.4.88-.52,1.12-.4a.44.44,0,0,1,.23.44,2.12,2.12,0,0,1,0,.38,4.7,4.7,0,0,1-1.88,2.39c-.5.39-.53.54-.53.55a.88.88,0,0,1-.48.7c-.5.36-.73,1.24-.68,2.61a11.57,11.57,0,0,0,.11,1.21c.19-.07.59-.24,1.48-.68a15.75,15.75,0,0,1,3.8-1.41,6.43,6.43,0,0,1,3.07.19c.87.28,1.35.71,1.44,1.28a2.14,2.14,0,0,1-.13.92l.67-.62c.08-.16.21-.37.39-.65.1-.13.19-.23.27-.32.5-.58.71-.72.92-.63a.3.3,0,0,1,.16.16A3.54,3.54,0,0,1,65.05,22a3.09,3.09,0,0,1,1.8.28,1.54,1.54,0,0,0,.5.22,1.47,1.47,0,0,0,.43-.28,2.17,2.17,0,0,1,.94-.51c0-.15.14-.37.64-.37.16,0,.28,0,.31-.09.11-.21.44-.51,1.89-.92a12.23,12.23,0,0,1,2.75-.49h0a20.28,20.28,0,0,1,2.51.19,9.68,9.68,0,0,1,2,.41,5.22,5.22,0,0,1,1.33.92,1.85,1.85,0,0,1,.62.77,3.42,3.42,0,0,1,.12,1.08,2.62,2.62,0,0,1-.39,1.65,13.49,13.49,0,0,1-2.18,1.79c-1.71,1.21-2,1.21-2.08,1.21s-.09,0-.27.27a2.52,2.52,0,0,1-.85.71,4.61,4.61,0,0,0-.91.65l-.15.16.46.22c.78.34,1.19.74,1.26,1.21s-.27.9-1,1.16a11.56,11.56,0,0,1-2.61.55,6.32,6.32,0,0,1-2.19.08c-.72-.31-1.07-1.21-1.1-2.77a3.15,3.15,0,0,1,.07-1.25c.09-.2.31-.35.73-.49a2.93,2.93,0,0,0,1.24-.69,28.62,28.62,0,0,1,2.77-2.1c.32-.21.34-.32.34-.32-.06-.34.28-.61.55-.78a3.4,3.4,0,0,0,.92-1.12,3.66,3.66,0,0,1,1.05-1.27.38.38,0,0,0,.13-.11,2.18,2.18,0,0,0-.59-.09c-.37,0-.89,0-1.55,0-1.32.06-2.19.08-2.58.08a4.09,4.09,0,0,0-1.61.6,6.08,6.08,0,0,0-1.61,1.11,2.33,2.33,0,0,0-.61,1,13.12,13.12,0,0,0-.32,2.16,9.2,9.2,0,0,0,0,1.84,1.19,1.19,0,0,1-.43,1.21,1.23,1.23,0,0,1-1,.21c-.52-.13-1-.64-1.48-1.55a7.24,7.24,0,0,1-.73-1.79,3,3,0,0,1,0-1.37,2.41,2.41,0,0,0,.08-1c0-.28-.11-.34-.11-.34a2.88,2.88,0,0,0-.74.46,2.17,2.17,0,0,1-1.1.54s-.15.07-.39.68a7.59,7.59,0,0,1-1.27,1.95c-.81,1-.83,1.21-.83,1.23a2,2,0,0,1-.69,1.17,25.15,25.15,0,0,1-2,1.59c-1.39,1-1.57,1-1.68,1s-.15,0-.63.44a1.75,1.75,0,0,1-1.59.55.42.42,0,0,1-.35-.35.44.44,0,0,0-.15,0c-.19,0-.64-.08-.64-.81a3.91,3.91,0,0,0-.28-1.26A3.17,3.17,0,0,1,51.44,30c0-.21.12-.5.59-.69a1.19,1.19,0,0,0,.57-.58,3.09,3.09,0,0,1,1.06-1.09,3.82,3.82,0,0,0,1.07-1.09l.09-.17h0a7.55,7.55,0,0,0-1.76.91,6.57,6.57,0,0,0-1.59,1.29,2.15,2.15,0,0,0-.46.68,2.3,2.3,0,0,0,0,.88c.08.66.14,1.18.17,1.54a2.17,2.17,0,0,0,0,.34c.25.1.25.52.25.76s0,.42.12.47c.29.17.33.51.13,1s-.15.59-.14.63c.09.24.06.61-.63.93A2.19,2.19,0,0,1,50,36Zm-3.48-7.36a3.84,3.84,0,0,0,.06.47,1.75,1.75,0,0,0,.33.91c.14.15.34.49.46,1.64a5.65,5.65,0,0,0,.87,2.52,2.79,2.79,0,0,0,1.52,1.29,1.54,1.54,0,0,0,.95-.15c.25-.12.39-.24.37-.31a1.47,1.47,0,0,1,.15-1c.12-.31.08-.4.08-.4a1,1,0,0,1-.37-.9,1.81,1.81,0,0,0,0-.32c-.23-.12-.25-.51-.27-.74s-.08-.86-.17-1.52a2.83,2.83,0,0,1,0-1.08,3,3,0,0,1,.55-.86,7.3,7.3,0,0,1,1.72-1.4,7.68,7.68,0,0,1,1.89-1l1.14-.33-.65,1.23A4.26,4.26,0,0,1,53.94,28a2.77,2.77,0,0,0-.89.9,1.7,1.7,0,0,1-.83.82c-.28.11-.28.23-.29.27a3.28,3.28,0,0,0,.3,1,4.45,4.45,0,0,1,.31,1.44c0,.31.09.31.14.31.49,0,.61.23.64.39a1.32,1.32,0,0,0,1.12-.45c.58-.49.81-.56,1-.56a8.17,8.17,0,0,0,1.39-.93,23.93,23.93,0,0,0,1.92-1.53c.51-.54.55-.76.55-.82,0-.21.11-.56,1-1.55a7.24,7.24,0,0,0,1.14-1.72l-.14.13c-.46.47-.65.61-.83.57h-.09a.53.53,0,0,1-.06.19c-.06.22-.34.5-.88.85l-1.74,1.07,1.19-1.75c.71-1.13.81-1.7.77-2s-.42-.67-1.09-.88a5.94,5.94,0,0,0-2.83-.18A14.9,14.9,0,0,0,52,25c-1.82.91-1.91.82-2,.68s-.17-.17-.26-1.64.23-2.57.89-3c.25-.17.27-.27.27-.29,0-.26.22-.54.72-.95a4.31,4.31,0,0,0,1.7-2.09,1.29,1.29,0,0,0,0-.25,2.46,2.46,0,0,0-.55.33,1.21,1.21,0,0,0-.31.32.43.43,0,0,1-.23.6.38.38,0,0,1-.4,0,.32.32,0,0,1-.09-.08.88.88,0,0,1-.44.66,7.82,7.82,0,0,0-2.71,2,3.72,3.72,0,0,0-.83,2.31,15.4,15.4,0,0,1-.29,2.58,6.55,6.55,0,0,0-.12,1.21,2.4,2.4,0,0,1-.1.83.67.67,0,0,1-.53.4.3.3,0,0,0-.14.07Zm29.53-7.29c.69,0,1,.17,1.1.45s-.26.58-.37.66a3.21,3.21,0,0,0-.91,1.11,3.67,3.67,0,0,1-1.08,1.29c-.3.2-.32.3-.32.3.06.33-.3.62-.57.8a29.17,29.17,0,0,0-2.72,2.06,3.38,3.38,0,0,1-1.42.79c-.36.12-.41.21-.42.22a4,4,0,0,0,0,1c0,1.32.29,2.11.77,2.32a7.25,7.25,0,0,0,2-.1,11.82,11.82,0,0,0,2.5-.53c.51-.18.74-.39.71-.62s-.38-.56-1-.83l-1.12-.52.67-.67a4.87,4.87,0,0,1,1-.73,2,2,0,0,0,.68-.57,1,1,0,0,1,.68-.47A8.18,8.18,0,0,0,78,26.24a13.46,13.46,0,0,0,2.09-1.7,2.21,2.21,0,0,0,.27-1.33,3.09,3.09,0,0,0-.09-.92,1.41,1.41,0,0,0-.48-.55,4.66,4.66,0,0,0-1.19-.84,10.28,10.28,0,0,0-1.86-.37,19.12,19.12,0,0,0-2.44-.19,11.83,11.83,0,0,0-2.63.47c-1.33.38-1.55.63-1.59.69a.78.78,0,0,1-.74.34h-.15a.42.42,0,0,1-.45.36,2.2,2.2,0,0,0-.68.41,1.36,1.36,0,0,1-.73.38,1.59,1.59,0,0,1-.74-.28,2.7,2.7,0,0,0-1.52-.22,3.18,3.18,0,0,0-2.63,1.7,1.85,1.85,0,0,1-.21.33c.06,0,.27,0,.8-.44s.91-.55,1.06-.55c.31,0,.51.25.58.75a2.89,2.89,0,0,1-.09,1.23,2.59,2.59,0,0,0,0,1.14,6.6,6.6,0,0,0,.68,1.66c.39.76.8,1.2,1.16,1.3a.74.74,0,0,0,.59-.14c.07-.05.29-.21.23-.72a8.8,8.8,0,0,1,0-2,12,12,0,0,1,.34-2.25,2.78,2.78,0,0,1,.72-1.18,6.51,6.51,0,0,1,1.75-1.21,4.53,4.53,0,0,1,1.84-.66c.39,0,1.25,0,2.56-.08C75.15,21.39,75.68,21.38,76.07,21.38ZM59.35,26.74v0l0,0Zm.56-.46,0,0,.11,0ZM52.4,18Zm7.13.14a1.92,1.92,0,0,1-.71-.16A4.27,4.27,0,0,1,57.25,17c-.57-.64-.76-.66-.77-.66a.52.52,0,0,1-.67-.19.38.38,0,0,1-.05-.34.71.71,0,0,1,.48-.35c.17-.06.17-.13.18-.15a1.27,1.27,0,0,0-.24-.6,2.11,2.11,0,0,1-.33-1.08.41.41,0,0,0,0-.21c-.16,0-.59,0-.59-.64A.72.72,0,0,0,55,12.2c-.27-.27-.35-.83-.25-1.76s.15-1.61.2-2.36.11-1.39.17-1.91a3.25,3.25,0,0,1,.22-1.12,5.83,5.83,0,0,0,.22-1.13h0a3.16,3.16,0,0,1,.68-1.71,1.22,1.22,0,0,1,1.31-.45,2.83,2.83,0,0,1,2.12,1.51c.15.36.33.58.5.63s.38,0,1-.26a3.55,3.55,0,0,1,1.26-.4.88.88,0,0,0,.49-.17,10.85,10.85,0,0,1,1.54-.54c.71-.21,1.28-.36,1.7-.44a4.57,4.57,0,0,1,2.33.43A3,3,0,0,1,70.2,3.77c.39.94.09,2.1-.9,3.44A16.88,16.88,0,0,1,67.63,9c-1,.93-1.31,1.08-1.49,1.1a.75.75,0,0,0-.28,0,11,11,0,0,0-1.12.94c-.27.24-.47.43-.61.58s-.16.24-.16.26a1.21,1.21,0,0,0,.38.09c1.66.28,2.46.78,2.46,1.54a.87.87,0,0,1-.53.8,16.43,16.43,0,0,1-2,.72c-.84.25-1.71.53-2.62.83-.44.14-.55.23-.57.26a1.07,1.07,0,0,0-.17.54c0,.26-.11,1-.6,1,0,0-.13,0-.22.16A.64.64,0,0,1,59.53,18.18ZM56.59,15.8a2.33,2.33,0,0,1,1,.81,3.85,3.85,0,0,0,1.38.95c.38.14.64.16.7.05a.74.74,0,0,1,.65-.42,2.22,2.22,0,0,0,.11-.57,1.67,1.67,0,0,1,.29-.8,1.81,1.81,0,0,1,.8-.41c.91-.3,1.78-.58,2.62-.83a15.28,15.28,0,0,0,1.88-.68c.23-.12.26-.26.26-.36,0-.46-.72-.82-2-1a1.39,1.39,0,0,1-.56-.16.47.47,0,0,1-.25-.49,1.07,1.07,0,0,1,.29-.54c.15-.16.36-.36.64-.62,1.13-1,1.24-1,1.33-1a1.58,1.58,0,0,1,.38-.05,5.57,5.57,0,0,0,1.17-1A15.93,15.93,0,0,0,68.9,6.91c.87-1.19,1.16-2.18.84-2.95-.1-.22-.42-.57-1.43-1a4,4,0,0,0-2-.4c-.4.08-1,.22-1.65.43a9.65,9.65,0,0,0-1.43.5,1.42,1.42,0,0,1-.74.23,3.63,3.63,0,0,0-1.06.36A2.13,2.13,0,0,1,60,4.38a1.4,1.4,0,0,1-.82-.91,2.38,2.38,0,0,0-1.78-1.23.75.75,0,0,0-.82.3A2.77,2.77,0,0,0,56,4h0a4.15,4.15,0,0,1-.28,1.32,3.42,3.42,0,0,0-.15.92c-.06.52-.11,1.15-.17,1.9s-.12,1.54-.21,2.37c-.1,1,.05,1.29.12,1.36a1.22,1.22,0,0,1,.38.88c0,.11,0,.14,0,.14.17,0,.59.05.59.71a1.67,1.67,0,0,0,.26.83,1.57,1.57,0,0,1,.3.89A.63.63,0,0,1,56.59,15.8Zm-.36,0Zm-2.16,1.36c-.25,0-.33-.14-.35-.22-.06-.25.21-.39.44-.52h0c.45-.25.7-.3.88-.17a.33.33,0,0,1,.13.32c0,.17-.17.3-.5.44A1.51,1.51,0,0,1,54.07,17.19Zm6-5.06a.56.56,0,0,1-.31-.09c-.19-.12-.35-.43-.25-2.69.09-2.1.26-2.55.42-2.71a3.53,3.53,0,0,1,1.14-.82A6.9,6.9,0,0,0,62,5.34c0-.06.14-.19,2.78-1.21.43-.14.86-.26,1.3-.36a5.33,5.33,0,0,1,1.11-.15c.55,0,.67.22.67.41s-.07.38-.54,1.08a3.91,3.91,0,0,0-.46.75c0,.12,0,.23-1.79,2.06a12.07,12.07,0,0,0-1.66,1.85.35.35,0,0,1-.15.31.35.35,0,0,1-.25,0,10.39,10.39,0,0,0-1.33,1.11A2.84,2.84,0,0,1,60.09,12.13Zm7-8a4.36,4.36,0,0,0-1,.14,12.57,12.57,0,0,0-1.24.34,18.85,18.85,0,0,0-2.6,1.1,5,5,0,0,1-1,.57,3,3,0,0,0-1,.69c-.06.08-.21.43-.3,2.42a6.61,6.61,0,0,0,.06,2.27s.28,0,1.2-.79a6,6,0,0,1,1.6-1.25,9.94,9.94,0,0,1,1.77-2,21.7,21.7,0,0,0,1.66-1.79,2.94,2.94,0,0,1,.53-1,4.79,4.79,0,0,0,.43-.71Z"/><path class="cls-1" d="M93.79,39.37c-.3,0-.69-.22-1.28-.72a1.08,1.08,0,0,1-.43-.85.91.91,0,0,0-.26-.58,1.27,1.27,0,0,1-.4-.77,2.15,2.15,0,0,1,.25-.83c.15-.34.31-.66.46-1s.46-.58.66-.55V34c0-.28,0-.62.29-.75a.5.5,0,0,1,.52.1l.09-.1a1.87,1.87,0,0,0,.29-.64.92.92,0,0,0,0-.55.55.55,0,0,1,0-.51l.07-.11h.2l.13,0a3.4,3.4,0,0,0,.12-.58c.07-.44.2-1.05.65-1.16a.4.4,0,0,0,.12,0h0a1.63,1.63,0,0,0,.06-.37,1,1,0,0,1,.41-.67c.13-.12.19-.23.17-.28a.47.47,0,0,1,0-.45.35.35,0,0,1,.28-.15s0-.06.09-.21.31-.72.65-1.43a5.24,5.24,0,0,0,.54-1.56,1.13,1.13,0,0,1,.43-.93.24.24,0,0,0,.13-.24.85.85,0,0,1,.25-.61.05.05,0,0,1,0,0,.35.35,0,0,1,0-.38c.05-.07.18-.28.4-.28h0q0-.15.06-.36a2.18,2.18,0,0,1,.35-1.2c.06-.07.06-.1.06-.1a.4.4,0,0,1-.06-.41.35.35,0,0,1,.33-.17.38.38,0,0,1,.19,0v-.17a2.46,2.46,0,0,1,.27-1.27,12.52,12.52,0,0,0,.77-1.7c.12-.32.65-1.64,1.63-4l.55-1.36-.27-.22c-.28-.25-.42-.28-.46-.28a.48.48,0,0,1-.46-.23.37.37,0,0,1-.21,0,.35.35,0,0,1-.16-.32.53.53,0,0,1,.33-.52.49.49,0,0,1,.61.16h0a2.14,2.14,0,0,0,.57-.12,1.14,1.14,0,0,0,.58-.26,2.49,2.49,0,0,0,.4-.58,15.37,15.37,0,0,0,.58-1.43c.16-.47.57-1.44,1.25-2.95a16.46,16.46,0,0,0,1.09-2.72,4.78,4.78,0,0,1,.24-1.09.67.67,0,0,1,.48-.44c.39-.11.61-.11.76,0a.42.42,0,0,1,.13.21l.15,0a.63.63,0,0,1,.56.52,12.82,12.82,0,0,1,0,1.65,2.35,2.35,0,0,1-.18.84,1.52,1.52,0,0,1-.57.49c-.26.15-.3.22-.3.23a4.21,4.21,0,0,1-.49,1.29c-.31.69-.51,1.17-.59,1.41a12.44,12.44,0,0,0-.48,1.54c-.13.51-.2.79-.23,1,.14,0,.37,0,.77,0a4.09,4.09,0,0,1,2.87,1.16L110,11a.92.92,0,0,0,.13.14.3.3,0,0,1,.09.32c0,.09.07.33.24.93.13.39.21,1.33-.62,4.78-.22.93-.36,1.56-.41,1.89a12.4,12.4,0,0,1-1.24,3.61,13.37,13.37,0,0,1-1.94,3.24,1.86,1.86,0,0,1-1.75.82c-.56-.13-1-.64-1.16-1.51a1.88,1.88,0,0,0-.26-.65c-.09-.05-.23-.2-.44-.83a16.62,16.62,0,0,0-.63-1.61l-.29-.57a12.88,12.88,0,0,0-.58,1.31,6.7,6.7,0,0,0-.61,1.84,1.28,1.28,0,0,1-.28.85,2.05,2.05,0,0,0-.33.68,13.33,13.33,0,0,1-.61,1.51c-.33.7-.56,1.24-.7,1.63s-.39.95-.69,1.65-.58,1.24-.75,1.65a8.13,8.13,0,0,1-.48.88,10.63,10.63,0,0,0-.92,2.17,19.41,19.41,0,0,1-.91,2C94,39.37,94,39.37,93.79,39.37Zm-1.05-4.78a1.34,1.34,0,0,0-.16.26c-.15.32-.3.64-.45,1a1.76,1.76,0,0,0-.21.62s0,.15.27.43a1.41,1.41,0,0,1,.39.92.6.6,0,0,0,.25.47,2.93,2.93,0,0,0,.86.58c.09-.14.28-.49.72-1.37a17.42,17.42,0,0,0,.88-1.91,10.81,10.81,0,0,1,1-2.3q.17-.26.45-.81c.16-.41.41-1,.74-1.66s.53-1.23.68-1.62.38-.94.71-1.66a12.64,12.64,0,0,0,.59-1.43,2.58,2.58,0,0,1,.41-.85.8.8,0,0,0,.18-.52,6.12,6.12,0,0,1,.64-2.06c.68-1.67.83-1.76,1-1.76s.35.14.75,1a15.43,15.43,0,0,1,.65,1.67,1.63,1.63,0,0,0,.26.57c.12.07.25.26.45.93s.44,1.07.79,1.15.79-.14,1.28-.67a13.12,13.12,0,0,0,1.84-3.11,12.23,12.23,0,0,0,1.2-3.47c.06-.35.2-1,.43-1.94.74-3.06.75-4.14.62-4.51a6.65,6.65,0,0,1-.26-1.11.65.65,0,0,1-.11-.12,2.88,2.88,0,0,1-.21-.28,3.65,3.65,0,0,0-2.51-1c-1.09,0-1.12-.07-1.2-.15s-.15-.14.2-1.47a11.41,11.41,0,0,1,.49-1.59c.08-.24.29-.73.6-1.43a5.74,5.74,0,0,0,.46-1.14c0-.26.29-.47.54-.62s.36-.26.38-.3a1.59,1.59,0,0,0,.12-.62,11.11,11.11,0,0,0,0-1.54s0-.09-.12-.1c-.36,0-.51-.18-.56-.32a2.12,2.12,0,0,0-.29.06h0s-.08,0-.13.14a5.4,5.4,0,0,0-.21,1,17,17,0,0,1-1.12,2.84c-.67,1.48-1.09,2.46-1.23,2.9a14.68,14.68,0,0,1-.62,1.51,3,3,0,0,1-.48.71,1.75,1.75,0,0,1-.8.38,2.58,2.58,0,0,1-.6.13,1.89,1.89,0,0,1,.54.35l.55.44-.7,1.71c-1,2.4-1.5,3.71-1.61,4a14.21,14.21,0,0,1-.8,1.77,1.91,1.91,0,0,0-.22,1c0,.5,0,.76-.21.89a.41.41,0,0,1-.29.08.86.86,0,0,1-.15.22c0,.05-.16.24-.23.91a1.75,1.75,0,0,1-.51,1.26c-.23.17-.23.31-.23.36a.73.73,0,0,1-.38.67s-.14.11-.18.56a5.8,5.8,0,0,1-.59,1.72c-.33.68-.54,1.15-.63,1.39a.91.91,0,0,1-.36.49c.06.19,0,.46-.31.79s-.25.33-.25.33a1.52,1.52,0,0,1-.14.61.63.63,0,0,1-.43.26h0s-.16.06-.26.74a2.9,2.9,0,0,1-.19.79.41.41,0,0,1-.29.23,1.37,1.37,0,0,1,0,.75,2.27,2.27,0,0,1-.37.82.73.73,0,0,1-.43.32.44.44,0,0,1-.31-.09l0,0a1.29,1.29,0,0,0,0,.25.61.61,0,0,1-.2.53A.38.38,0,0,1,92.74,34.59Zm.5-.86Zm5.3-11.15h0v-.13h0a.13.13,0,0,0-.06.09l0,0a.1.1,0,0,0,0-.05Zm-6.08-.7a3.39,3.39,0,0,1-.78-.15c-.46-.13-1-.3-1-.66-.28,0-.52-.31-.85-1a4.47,4.47,0,0,0-.6-1,1.1,1.1,0,0,1-.3-.82.34.34,0,0,0,0-.18h0c-.85,0-1-1.36-1-2.39a7.29,7.29,0,0,0-.32-2.41,3.18,3.18,0,0,1-.26-2.15.66.66,0,0,1,.37-.33.62.62,0,0,1,.49,0,.36.36,0,0,1,.12.45s0,.06.17.14a4.48,4.48,0,0,1,1.15,1.08,6.8,6.8,0,0,0,.56.55.45.45,0,0,0,.1-.1,4,4,0,0,1,1.16-.85,21.18,21.18,0,0,1,2.27-.88h0a8.06,8.06,0,0,1,2.55-.64l1.11.22a2.19,2.19,0,0,1,1.21.69,2.08,2.08,0,0,1,.37.67,2.14,2.14,0,0,1,0,.87,9.24,9.24,0,0,1-.76,2.18,11.76,11.76,0,0,1-1.11,2.08c-.54.62-1.13,1.26-1.79,1.92-1,1-1.16,1.05-1.25,1.08a1,1,0,0,1-.76-.24,1.66,1.66,0,0,1-.23,1.4,1,1,0,0,1-.58.4ZM91.22,21a4.54,4.54,0,0,0,.6.21,2,2,0,0,0,.65.13s.08,0,.26-.22.22-.84,0-1.58l-.07-.19.18-.16c.21-.13.42.06.62.24.34.34.52.37.59.36s.19-.13,1-.95c.64-.64,1.23-1.27,1.75-1.87a10.65,10.65,0,0,0,1-2,9.17,9.17,0,0,0,.73-2,2.33,2.33,0,0,0,0-.67,2,2,0,0,0-.27-.48,1.74,1.74,0,0,0-.93-.52c-.42-.09-.77-.16-1.08-.21a8.7,8.7,0,0,0-2.32.61,22.14,22.14,0,0,0-2.21.86,3.6,3.6,0,0,0-1,.73c-.26.32-.49.31-.63.25s-.27-.16-.77-.7a4,4,0,0,0-1-1c-.35-.18-.44-.4-.44-.56l0,0c-.07.15-.13.57.28,1.77a7.57,7.57,0,0,1,.35,2.58c0,1.18.18,1.9.49,1.9.12,0,.5,0,.5.66a.62.62,0,0,0,.16.47,4.85,4.85,0,0,1,.69,1.12c.3.61.44.69.45.7h0a.42.42,0,0,1,.42.46Zm23.64.58a3.05,3.05,0,0,1-1.46-.25,2.64,2.64,0,0,1-1-1.32,2.41,2.41,0,0,0-.58-.94c-.3-.21-.46-.76-.54-1.78a3.78,3.78,0,0,1,.26-2.07,2.64,2.64,0,0,0,.3-1.28,5.06,5.06,0,0,0-.16-1.6h0a.85.85,0,0,1,0-.59c.07-.15.23-.22.47-.22.49,0,.6.23.62.37.37,0,.7.44,1.1,1.31.07.16.12.25.14.3l.18-.08a2.51,2.51,0,0,1,1-.38c.34-.07,1.06-.25,2.21-.54,1.58-.41,2-.34,2.22-.22a2.89,2.89,0,0,0,.94.23,3.2,3.2,0,0,1,1.36.57c.5.35.73.65.73,1a2.8,2.8,0,0,1-.44,1.18,9.41,9.41,0,0,1-.78,1.22.9.9,0,0,1-.71.42s-.19,0-.46.32a5.31,5.31,0,0,1-.79.68l-.18.12,0,0a2.15,2.15,0,0,1,1.56,1.37,1.28,1.28,0,0,1,.05.78.51.51,0,0,1-.54.32h0c0,.16-.25.27-1.17.53a14.11,14.11,0,0,1-1.9.43,13.18,13.18,0,0,1-2.11.12Zm-2.65-9.37a5.76,5.76,0,0,1,.17,1.76,3.09,3.09,0,0,1-.37,1.51,3.33,3.33,0,0,0-.19,1.78c.09,1.14.28,1.37.33,1.41a2.79,2.79,0,0,1,.75,1.14,2.27,2.27,0,0,0,.74,1.09,3.3,3.3,0,0,0,1.55.17,12.35,12.35,0,0,0,2-.12,12.86,12.86,0,0,0,1.84-.41,8.2,8.2,0,0,0,.84-.27.46.46,0,0,1,.48-.28h.08a1.35,1.35,0,0,0-.07-.46c-.12-.44-.54-.79-1.26-1-.33-.14-.47-.32-.43-.53s.16-.31.47-.5a4.54,4.54,0,0,0,.69-.6,1.26,1.26,0,0,1,.83-.48c.12,0,.24-.12.32-.23a8.4,8.4,0,0,0,.73-1.15,2.61,2.61,0,0,0,.38-.94s0-.23-.52-.56a2.51,2.51,0,0,0-1.13-.48,3.25,3.25,0,0,1-1.13-.3s-.33-.11-1.85.27c-1.15.3-1.88.48-2.23.55a2.31,2.31,0,0,0-.8.31c-.29.17-.48.21-.63.15s-.26-.22-.41-.59c-.45-1-.68-1-.68-1a.42.42,0,0,1-.45-.36h-.13A.54.54,0,0,0,112.21,12.25Zm-8.48,8.47h-.1c-.31-.07-.48-.42-.59-1.18-.09-.55-.2-.63-.2-.64a.58.58,0,0,1-.38-.6,5.2,5.2,0,0,1,.37-1.41,12.13,12.13,0,0,1,.61-1.56,1.62,1.62,0,0,0,.22-.76,1.47,1.47,0,0,1,.28-.89,4.56,4.56,0,0,0,.42-1.09c.22-.8.36-1,.48-1.09a3.36,3.36,0,0,1,1.41-.38c.73-.07,1.09,0,1.24.25h0c.08.13.18.3-.52,2.64a19.86,19.86,0,0,1-1.13,3.16,1.15,1.15,0,0,0-.14.61,1.17,1.17,0,0,1-.32.86,2.15,2.15,0,0,0-.19.22s0,.13-.57,1.07C104.39,20.3,104.08,20.72,103.73,20.72Zm1.39-8.81a3.56,3.56,0,0,0-.28.8,4.3,4.3,0,0,1-.49,1.24,1,1,0,0,0-.19.61,2,2,0,0,1-.28,1A14.77,14.77,0,0,0,103.3,17a5.1,5.1,0,0,0-.34,1.25c0,.12,0,.13.06.14.26.09.41.41.52,1s.19.76.21.78a2.11,2.11,0,0,0,.45-.58,8.31,8.31,0,0,0,.51-.88c0-.11.08-.26.31-.49a.67.67,0,0,0,.18-.51,1.72,1.72,0,0,1,.2-.85,19.83,19.83,0,0,0,1.1-3.06,11.45,11.45,0,0,0,.54-2.24,2,2,0,0,0-.74,0,2.85,2.85,0,0,0-1.18.3ZM92.54,18.76h-.15c-.17,0-.3-.18-.53-.62s-.41-.82-.64-1.32a8,8,0,0,1-.49-1.2,2.06,2.06,0,0,1,.09-1.5,1.9,1.9,0,0,1,.49-.67,2.52,2.52,0,0,1,1-.38L94,12.53a4.52,4.52,0,0,1,1.26-.26.62.62,0,0,1,.51.18.62.62,0,0,1,0,.56,2.79,2.79,0,0,1-.55.88c-.28.33-.88,1-1.79,2a6,6,0,0,0-1.18,1.39,1.87,1.87,0,0,0,.22.61c.24.48.32.67.16.83Zm2.7-6a4,4,0,0,0-1.11.24l-1.72.54a2.29,2.29,0,0,0-.79.29,1.33,1.33,0,0,0-.35.5,1.6,1.6,0,0,0-.07,1.14,9,9,0,0,0,.47,1.13c0,.12.11.23.16.34a9.08,9.08,0,0,1,1.24-1.45c.9-.95,1.5-1.6,1.77-1.93a2.3,2.3,0,0,0,.45-.7h0a.34.34,0,0,1,0-.08Zm19.75,5c-.27,0-.46-.22-.55-.67s-.15-.63-.25-1a2.57,2.57,0,0,1-.15-.73c0-.2,0-.26,1.47-.78a8.78,8.78,0,0,1,2-.51c1.1-.18,1.32-.09,1.44,0l.09.08,0,.16c0,.16,0,.37-1.83,1.89S115.14,17.79,115,17.79Zm-.44-2.24c0,.09,0,.24.12.47s.19.67.26,1,.1.3.11.3a22.2,22.2,0,0,0,1.83-1.41,18.59,18.59,0,0,0,1.51-1.36,6.15,6.15,0,0,0-.86.1,8.56,8.56,0,0,0-1.84.48C115,15.37,114.68,15.49,114.55,15.55Z"/><path class="cls-1" d="M147,38.52a1.1,1.1,0,0,1-.38-.07,3.06,3.06,0,0,1-1-.65c-.57-.5-.68-.7-.68-.88a10.25,10.25,0,0,0-.67-1.1c-.66-1-.75-1.37-.75-1.57a1.62,1.62,0,0,0-.38-.81,4,4,0,0,1-.63-1.88c-.1-.77-.19-1.35-.27-1.72l-.13-1.08.51.52a23,23,0,0,1,1.58,2.84,1.86,1.86,0,0,0,.2.37,1.74,1.74,0,0,1,.11.18c0-.51,0-1.37-.07-2.83l-.15-3.08L144,27a6.77,6.77,0,0,1-1.48.64,5.55,5.55,0,0,1-1.57.32c-.15,0-.37-.06-1.16-.79a2.2,2.2,0,0,1-.87-1.56c0-.46-.1-.63-.16-.69-.25-.25-.16-.73.29-1.6.56-1.08.72-1.21.86-1.26h0a6.12,6.12,0,0,0,.44-.92c.36-.87.56-1.11.77-1.14v-.05a.41.41,0,0,0-.23,0,1.77,1.77,0,0,1-1.13-.47,2.76,2.76,0,0,0-.34-.26v0c0,.23-.12.59-1,1.45-.63.59-1.37,1.31-2.19,2.13-2.43,2.36-3.1,2.56-3.46,2.43a1.5,1.5,0,0,1-.39.88,2,2,0,0,1-2.12.2c-.1-.07-.25-.24-.49-.81a4,4,0,0,0-.4-.79c-.16-.11-.26-.36-.37-.87a6.08,6.08,0,0,0-1.12-2.48,2.27,2.27,0,0,1-.42-1.17,1.4,1.4,0,0,1,.32-1.08,7,7,0,0,0,.56-2.5c.53-3.56,1-4.16,1.34-4.27s.63.14.86.35A5.14,5.14,0,0,1,132.08,15c0,.12.06.19.07.23a3.8,3.8,0,0,0,.52-.15,8.28,8.28,0,0,1,2-.43,3.93,3.93,0,0,1,1.2,0A5.48,5.48,0,0,1,137,15a8,8,0,0,1,1.71,1.2,4.19,4.19,0,0,0,.35.3,6.1,6.1,0,0,1,.58-.74,4.59,4.59,0,0,1,1.07-1,5.84,5.84,0,0,0,1-1.15l.6-.71-1.07-.21a8.1,8.1,0,0,1-1.29-.3,1.05,1.05,0,0,1-.6-.55.82.82,0,0,1,0-.7,2.31,2.31,0,0,1,.77-.65c1.35-.94,2.44-1.25,3.33-.94l.3.11.12-.74a17.41,17.41,0,0,1,.42-2.08c.28-1.11.39-1.29.48-1.38l.34-.34.14.79,0,.06a.88.88,0,0,0,0,.16v.07a16.16,16.16,0,0,0-.37,2.35c-.07.67-.09,1.06-.09,1.3a.19.19,0,0,1,0-.08,27.76,27.76,0,0,1,.51-3.91,25.24,25.24,0,0,1,.9-3.75c.14-.37.38-1,.71-1.95h0a9.83,9.83,0,0,1,.54-1.18c.23-.38.48-.42.66-.38s.52.15.55.77c0,.32.06.85.14,1.58a6.53,6.53,0,0,1-.08,2.13,48.71,48.71,0,0,0-.7,5c-.22,2.18-.36,4.26-.42,6.19,0,2.16-.12,3.47-.2,4,.18-.24.47-.65.92-1.36s.69-1.09.84-1.38c-.08,0-.17-.15-.09-.39a10.26,10.26,0,0,1,.67-1.64c.9-1.88.95-2.5.9-2.69v-.07c0-.32.24-.33.27-.33a.4.4,0,0,1,.21.07h0a.48.48,0,0,0,.09-.1,1.52,1.52,0,0,0,.21-.38.22.22,0,0,1-.1,0,.34.34,0,0,1-.18-.25.65.65,0,0,1,.07-.39c0-.25.07-.51.32-.51a.27.27,0,0,1,.22.11.43.43,0,0,1,.32-.15.35.35,0,0,1,.26.11.24.24,0,0,1,.09-.06.31.31,0,0,1,.35.08c.12.13.18.3-.12,1.63a43.46,43.46,0,0,0-.91,4.51,5.83,5.83,0,0,1-.77,2.12,6.88,6.88,0,0,0-.76,2,5.07,5.07,0,0,1-1.4,2.48,4.19,4.19,0,0,0-.72.91c0,.12-.1.33-.56.83a1.52,1.52,0,0,0-.34.62,9.32,9.32,0,0,0-.14,1.5,39.31,39.31,0,0,0,.54,6.35,20.82,20.82,0,0,1,.33,3.77,7.21,7.21,0,0,1-.16,2.26A.71.71,0,0,1,147,38.52Zm-1.58-1.6a3.83,3.83,0,0,0,.51.5,2.4,2.4,0,0,0,.83.55c.35.12.42,0,.47-.15a6.59,6.59,0,0,0,.13-2.09,21,21,0,0,0-.32-3.7,39.33,39.33,0,0,1-.55-6.44,8.16,8.16,0,0,1,.16-1.61,1.91,1.91,0,0,1,.44-.83c.4-.43.44-.55.44-.57s.06-.31.85-1.18a4.61,4.61,0,0,0,1.27-2.19A7.79,7.79,0,0,1,150.5,17a6,6,0,0,0,.72-1.9,38.24,38.24,0,0,1,.92-4.62q0-.23.09-.39l-.65.65a.86.86,0,0,1-.22.21h0a.46.46,0,0,1-.23.08,8.07,8.07,0,0,1-1,2.71l-.43,1,0,0c.17.1.13.25,0,.55a10.11,10.11,0,0,1-1.08,1.93A9.39,9.39,0,0,1,147.44,19c-.19.14-.27.19-.37.19H147l-.09-.11c-.1-.12-.09-.29,0-.78a39,39,0,0,0,.2-4c.06-1.93.2-4,.42-6.22a49.54,49.54,0,0,1,.71-5.07,6.1,6.1,0,0,0,.08-2c-.09-.75-.14-1.28-.15-1.62s-.1-.3-.13-.3-.07,0-.15.15a7.37,7.37,0,0,0-.5,1.1c-.33.94-.57,1.59-.71,2A25.81,25.81,0,0,0,145.76,6a29.65,29.65,0,0,0-.51,3.89,1.38,1.38,0,0,0,0,.28c0,.2-.11.57-.39.62s-.44-.24-.49-.33-.1-.12-.09-.57l-.08.49-.86-.31c-.72-.25-1.69.05-2.89.88a2.11,2.11,0,0,0-.61.48.34.34,0,0,0,0,.26.53.53,0,0,0,.32.28,9.48,9.48,0,0,0,1.2.28l1.91.37L142.12,14a5.42,5.42,0,0,1-1.19,1.26,4.6,4.6,0,0,0-.93.86,3,3,0,0,0-.57.74.27.27,0,0,1-.17.25c-.19.08-.4,0-.91-.51a7.63,7.63,0,0,0-1.6-1.13,4.61,4.61,0,0,0-1-.39,3.26,3.26,0,0,0-1,0,7.88,7.88,0,0,0-1.89.4c-.55.19-.74.21-.87.16s-.32-.35-.37-.59A4.7,4.7,0,0,0,130.18,13c-.26-.24-.37-.24-.37-.24h0c-.08,0-.48.39-1,3.87-.3,2.12-.53,2.59-.69,2.77a.91.91,0,0,0-.18.7,1.73,1.73,0,0,0,.33.91,6.86,6.86,0,0,1,1.21,2.68,1.55,1.55,0,0,0,.17.57c.09.06.22.2.56,1,.21.49.31.59.33.6s.13.08.57.12a1.2,1.2,0,0,0,.88-.25,1,1,0,0,0,.27-.71.35.35,0,0,1,.15-.31.56.56,0,0,1,.52,0c.08,0,.58,0,2.93-2.31.83-.83,1.57-1.55,2.2-2.14.84-.78.88-1,.88-1.09a1.3,1.3,0,0,1,0-.31c.06-.26.32-.37.69-.15a2.43,2.43,0,0,1,.44.31,1.27,1.27,0,0,0,.81.36c.66,0,.73.38.73.54,0,.42-.25.52-.38.53a4.18,4.18,0,0,0-.43.85c-.42,1-.58,1.15-.72,1.2a5.7,5.7,0,0,0-.6,1c-.43.83-.36,1-.36,1a1.44,1.44,0,0,1,.29,1,1.77,1.77,0,0,0,.71,1.19c.64.59.81.66.84.66a5,5,0,0,0,1.4-.3,6.37,6.37,0,0,0,1.35-.57l1-.71.19,4c.13,3.63.07,3.69,0,3.79l-.25.25-.18-.36-.11-.13c-.06-.08-.13-.18-.19-.28a3.19,3.19,0,0,0-.2-.32,2.64,2.64,0,0,1-.23-.44c-.36-.68-.63-1.19-.84-1.57,0,.22.06.47.1.74a3.68,3.68,0,0,0,.53,1.65,2,2,0,0,1,.48,1.1c0,.06.05.35.67,1.29.74,1.14.75,1.28.75,1.38Zm-6-18Zm16.13,17.79a2,2,0,0,1-.92-.28c-.27-.13-.62-.35-.62-.68a1.79,1.79,0,0,0-.28-.71,2.32,2.32,0,0,1-.34-1,1.11,1.11,0,0,0-.24-.58,2.84,2.84,0,0,1-.44-1.27c-.09-.63-.21-.74-.22-.75a1.82,1.82,0,0,1-.61-1.14,5.05,5.05,0,0,1-.13-1.57q.09-.93.63-.93a.43.43,0,0,1,.32.14,1.28,1.28,0,0,1,.11,1,3,3,0,0,0-.05.65h0a.47.47,0,0,0,.16.07l.27.07c0-.29,0-1.17,0-3.52,0-.22,0-1.61.09-3.74.08-2.32.16-5.12.25-8.34.07-3.67.18-6.34.33-8h-.06a.28.28,0,0,1-.25-.17,3.89,3.89,0,0,1-.53.85.57.57,0,0,1-.23.19.71.71,0,0,1-.18.54c-.15.27-.31.5-.54.46a.31.31,0,0,1-.24-.26,1.36,1.36,0,0,1,.09-.5v0c.14-.33.33-.42.48-.44V6.8a3.77,3.77,0,0,1,.43-1.29c.39-.87.56-1,.68-1.12-.09-.2,0-.48.2-.91.11-.24.25-.47.47-.5V3a.31.31,0,0,1-.19-.06.53.53,0,0,1-.18-.45A3.35,3.35,0,0,1,154.28,1c.32-.6.6-.92.9-1a2.07,2.07,0,0,1,2.2.52c.33.36.64.77.45,1.09a6.67,6.67,0,0,0-.3,1.49l-.29,1.87a28.54,28.54,0,0,0-.45,4.4l0,.45H158a5.61,5.61,0,0,1,1.5.14,5.33,5.33,0,0,1,1.3.74,5.35,5.35,0,0,1,1,.81,1.55,1.55,0,0,1,.33.82,1.54,1.54,0,0,1-.32,1.05,19.48,19.48,0,0,1-1.75,1.77,7.71,7.71,0,0,0-1.75,2,1.57,1.57,0,0,0,.29,0,1.08,1.08,0,0,1,.9.4c.11.14.22.22.3.22s.46.11,1.18.87c.54.54.77.95.71,1.31s-.42.65-1.1.88a4.5,4.5,0,0,1-1.16.26,2.55,2.55,0,0,0-1.62,1c-.8.83-.82,1.22-.76,1.39a.16.16,0,0,0,.15.12,5.54,5.54,0,0,0,1.17,0,6.11,6.11,0,0,1,2.88.37c.84.37,1.24.89,1.21,1.55s-.11,1.48-.58,1.48a3.66,3.66,0,0,0-.88.61,2.33,2.33,0,0,1-3.18.13,1.82,1.82,0,0,0-.55-.36h0c-.23,0-.4-.26-.59-.64l0-.07a3.7,3.7,0,0,0,0,.42v.87a2.12,2.12,0,0,1,0,.5c.19,3.59.28,5.76.27,6.41a2.1,2.1,0,0,1-.43,1.48A1.34,1.34,0,0,1,155.58,36.76Zm-1-1a1.21,1.21,0,0,0,.35.24,1.54,1.54,0,0,0,.69.22c.1,0,.29-.06.57-.34.12-.12.26-.41.28-1.14s-.08-2.79-.27-6.39a1.3,1.3,0,0,0,0-.39V27c0-.62.09-1,.39-1.09s.52.32.62.51a1.34,1.34,0,0,0,.23.37,2.13,2.13,0,0,1,.78.46,1.84,1.84,0,0,0,2.55-.12c.73-.58,1-.69,1.14-.71a2.81,2.81,0,0,0,.14-1c0-.44-.27-.79-.91-1.07a5.61,5.61,0,0,0-2.64-.33,6.72,6.72,0,0,1-1.28,0,.66.66,0,0,1-.55-.46,1,1,0,0,1,0-.56.25.25,0,0,1-.12,0c-.32,0-.41-.33-.41-1.55s.1-1.56.43-1.56a3,3,0,0,1,.9.24h0c.39.15.78.34.78.67a.5.5,0,0,1-.07.27,2.32,2.32,0,0,1,1.36-.56,4.2,4.2,0,0,0,1-.23c.68-.23.76-.43.77-.49s0-.31-.58-.88-.81-.72-.83-.72h0a.92.92,0,0,1-.68-.4.6.6,0,0,0-.51-.22,1.13,1.13,0,0,1-.64-.13.38.38,0,0,1-.16-.3c0-.29.2-.8,1.91-2.45a22,22,0,0,0,1.7-1.71,1,1,0,0,0,.22-.7.94.94,0,0,0-.21-.55,5.39,5.39,0,0,0-.92-.72,5.19,5.19,0,0,0-1.17-.67,4.53,4.53,0,0,0-1.35-.12h-1.76l.06-1a29.74,29.74,0,0,1,.46-4.47c.05-.33.15-.95.29-1.86a5.37,5.37,0,0,1,.36-1.66,2.22,2.22,0,0,0-.38-.5,1.59,1.59,0,0,0-1.7-.38h0c-.05,0-.25.11-.59.75a3.15,3.15,0,0,0-.38,1.12h0l.13,0,.16.16c0,.07.07.18.07.65v.21c0,.17-.05.42-.28.45a.26.26,0,0,1-.23-.08v0a1.66,1.66,0,0,0-.19.45l.06,0,.13-.06.15.08c.15.11.23.24.08,1.69s-.29,4.35-.37,8.36c-.09,3.22-.17,6-.25,8.34-.06,2.5-.09,3.57-.09,3.73,0,3.73,0,3.81-.08,3.91l0,.06-.06,0c-.11,0-.25.06-.71-.07a.61.61,0,0,1-.5-.4,3.73,3.73,0,0,0,.08.44c.14.6.32.78.41.84s.34.5.42,1.09a2.52,2.52,0,0,0,.36,1.05,1.61,1.61,0,0,1,.33.87,1.89,1.89,0,0,0,.28.78,2.14,2.14,0,0,1,.34.94Zm-2.17-7.41a1.25,1.25,0,0,0-.09.42,3.78,3.78,0,0,0,0,.75,4,4,0,0,1,.06-.64A2,2,0,0,0,152.37,28.39Zm4.23-7.92a5.38,5.38,0,0,0-.06,1,8.83,8.83,0,0,0,0,.91c.1-.12.25-.31.49-.63a4.07,4.07,0,0,0,.59-.92,3.42,3.42,0,0,0-.45-.21h0A6.27,6.27,0,0,0,156.6,20.47ZM153.66,5a.1.1,0,0,1,.05,0l0-.18Zm.69-2.49ZM140.56,25.1c-.1,0-.42,0-.42-.56s.32-.56.42-.56,0,0,0,0l0,0c-.22-.19-.15-.54-.08-.78a4.8,4.8,0,0,1,1.36-1.69c1.06-1,1.47-1.1,1.7-1.1a.71.71,0,0,0,.58-.39c.31-.46.47-.61.65-.61h.12l.1.11c.1.12.1.31,0,.73v0a2.72,2.72,0,0,0-.12,1,1.68,1.68,0,0,1-.7,1.34c-.45.4-1.11.92-2,1.55C140.81,25.1,140.67,25.1,140.56,25.1Zm.09-.64a.19.19,0,0,0,0,.08h0c.14-.09.48-.3,1.22-.86s1.5-1.14,1.94-1.52l.06-.06-.17.12-1,.72a.77.77,0,0,1-.29.22l-1.12.84,0-.06A2.43,2.43,0,0,1,140.65,24.46Zm3.74-4.05a1.14,1.14,0,0,1-.89.46c-.07,0-.39.07-1.36,1a4.35,4.35,0,0,0-1.22,1.46l0,.18.11-.08a2.2,2.2,0,0,1,.72-.49H142v-.07a.67.67,0,0,1,.32-.43h0c.31-.2.42-.24.54-.21l.48-.57c.61-.76.83-.91,1-.87A2,2,0,0,1,144.39,20.41Zm-12.34.66c-.3,0-.37-.17-.37-1.91a3.81,3.81,0,0,1,.43-2.27,2.79,2.79,0,0,1,1.66-.84,3.71,3.71,0,0,1,2,.1l.77.32-.52.87a10.81,10.81,0,0,1-1.95,2.27C132.71,20.9,132.3,21.07,132.05,21.07Zm2.6-4.61a4.5,4.5,0,0,0-.79.08,2.36,2.36,0,0,0-1.37.67c-.12.14-.31.59-.31,1.95,0,.76,0,1.15,0,1.34a9.41,9.41,0,0,0,1.48-1.25,10.28,10.28,0,0,0,1.87-2.16l.23-.38-.23-.09A2.51,2.51,0,0,0,134.65,16.46Zm9.64-.12a.92.92,0,0,1-.57-.26.88.88,0,0,0-.73-.14c-.36.07-.58.05-.72-.07s-.05,0-.06-.07c-.16.12-.33.22-.5.14l-.14-.07,0-.19c0-.11,0-.26.32-.65s.37-.49.55-.7.35-.36.48-.36H143l0,0a1.71,1.71,0,0,0,.42-.1c.62-.17.95-.18,1.14,0s.26.45.26,1.07c0,.85-.11,1.11-.22,1.23a.45.45,0,0,1-.3.18Zm-1.06-.92a1.27,1.27,0,0,1,.8.27c.19.15.26.15.26.15s.08-.13.08-.91a1.75,1.75,0,0,0-.07-.68,2.84,2.84,0,0,0-.69.13,1.63,1.63,0,0,1-.66.12l-.15.16c-.15.17-.29.35-.44.55l.09,0a.32.32,0,0,1,.18.24,1.16,1.16,0,0,0,.27,0ZM143.08,14l0,0Zm13.54,1.79a.39.39,0,0,1-.26-.1c-.2-.15-.32-.54-.32-1.91V12l1.05.24a6.13,6.13,0,0,0,1.46.12h0c.55,0,.69,0,.78.13s.06.44-.06.68-.27.57-.51.63v0c0,.2-.13.49-1,1.29A2.08,2.08,0,0,1,156.62,15.82Zm-.08-3.19v1.18a5.18,5.18,0,0,0,.12,1.5,2.7,2.7,0,0,0,.74-.56c.81-.71.87-.91.88-.93,0-.45.3-.5.4-.51s0-.09.16-.34a.76.76,0,0,0,0-.11h-.3a6.74,6.74,0,0,1-1.6-.13Zm2.25,1.12Z"/></svg>