<svg xmlns="http://www.w3.org/2000/svg" viewBox="0 0 157.3 39.23"><defs><style>.cls-1{fill:#cfab7a;}.cls-2{fill:#c69c6d;}</style></defs><title>資產 1</title><g id="圖層_2" data-name="圖層 2"><g id="圖層_1-2" data-name="圖層 1"><path class="cls-1" d="M6,3.2A.23.23,0,0,1,6.2,3a.86.86,0,0,1,.44,0A.7.7,0,0,1,7,3.28c.13.22.28.29.44.21.43-.25.8-.11,1.09.4a1,1,0,0,0,.59.47c.26.06.42.35.49.85A2,2,0,0,1,9.54,6.3c-.13.23-.14.34,0,.34s.09.05,0,.14a3,3,0,0,0-.5,1,10.29,10.29,0,0,1-1.18,2.34,11.79,11.79,0,0,0-.64,1.18,2.23,2.23,0,0,1-.57.75,2.57,2.57,0,0,0-.65.91l-.28.6.69.69a2.55,2.55,0,0,1,.56.67,1.82,1.82,0,0,1,.13.79A6.06,6.06,0,0,1,7,17a7.53,7.53,0,0,1-.45,1.2c-.32.7-.59,1.33-.79,1.9a11.94,11.94,0,0,1-1.07,2.11,16.39,16.39,0,0,0-1.05,1.86,1.93,1.93,0,0,0-.21.58.68.68,0,0,0,.21.39c.27.32.48.4.64.24a13,13,0,0,0,1-1.9l.37-.65a3,3,0,0,1,0,.33,22.39,22.39,0,0,0-.12,3c0,1.59,0,2.73.08,3.4.19,1.7.28,2.82.28,3.36a1.57,1.57,0,0,1-.24,1.05c-.41.41-.87.35-1.38-.16a7,7,0,0,1-.83-1.07,2.39,2.39,0,0,1-.46-.95,5,5,0,0,0-.25-.63,2.15,2.15,0,0,1-.2-.63A.84.84,0,0,0,2.17,30,.47.47,0,0,1,2,29.45a7.3,7.3,0,0,0,.24-1.6c.11-1.37,0-2-.4-1.9-.17.05-.35,0-.55-.28a7.8,7.8,0,0,1-.79-1.34A4,4,0,0,1,0,22.69a2.43,2.43,0,0,1,.81-1.23A10.56,10.56,0,0,0,3,18.83a7.84,7.84,0,0,1,.65-1.34A6.9,6.9,0,0,0,4.66,15c0-.16-.16-.18-.47-.06a2.43,2.43,0,0,0-.75.43,2.16,2.16,0,0,1-.89.28,1.33,1.33,0,0,1-.85-.08A5.18,5.18,0,0,1,1,14a9.9,9.9,0,0,1-.4-1.23,1,1,0,0,1,.16-.63A11.25,11.25,0,0,1,2.59,10C3.67,8.92,4.37,8.21,4.7,7.86A13.58,13.58,0,0,0,6,6.06,4.06,4.06,0,0,0,6.68,4.7a2.08,2.08,0,0,0-.2-.81q-.21-.45-.36-.45C6,3.44,6,3.36,6,3.2ZM5.18,24.74c.14-.14.17-.23.11-.29s-.15,0-.23.21,0,.2,0,.2S5.1,24.82,5.18,24.74ZM15.79,7.09s0-.58,0-1.74A7.68,7.68,0,0,1,16,3.61c.08,0,.32.3.73.91a4.34,4.34,0,0,1,.61,1.07c0,.14.05.2.16.2s.19.16.24.49.15.81.28,1.46.22,1.13.25,1.29a.19.19,0,0,0,.16.18,1.69,1.69,0,0,0,.57-.1c.24-.08.36-.07.36,0s-.18.2-.53.29-.44.13-.44.16.23.05.61,0,.52-.19.52-.33.15-.29.45,0a.93.93,0,0,0,.65.25,2.88,2.88,0,0,1,1.55.58c.58.4.89.74.91,1s-.45.7-1.37,1.53c-.54.49-.81.84-.81,1.06s-.08.14-.22,0S19.94,14,19,14.94a12.49,12.49,0,0,0-1.36,1.42c.11.08.27.06.49-.06s.32-.25.32-.39.09-.25.26-.2A.32.32,0,0,1,19,16c0,.11.16.19.48.25a2.9,2.9,0,0,0,.93,0,2.22,2.22,0,0,1,.65.3,3.28,3.28,0,0,1,.65.43c.05.08.15,0,.28-.25a1.34,1.34,0,0,1,.12-.24,1,1,0,0,1,.13-.3.83.83,0,0,1,.14-.21s.07,0,.1,0,0,.2-.1.43-.11.35,0,.36.12.09-.06.23a1,1,0,0,0-.39.62,2,2,0,0,1-.34.75c-.14.11-.2.15-.2.12s.08-.19,0-.18a3.17,3.17,0,0,0-.69.34,7,7,0,0,0-1.4,1.18,7.55,7.55,0,0,0-1.15,1.42,10.16,10.16,0,0,1-1,1.45c-.44.65-.57,1-.41,1,.32,0,.73.4,1.21,1.18.11.16.27.15.49,0a12.35,12.35,0,0,0,1.82-3.48,3.78,3.78,0,0,1,.51-1,.86.86,0,0,0,.22-.58,1.16,1.16,0,0,1,.36-.85c.09-.06.13,0,.13,0a.34.34,0,0,1-.17.3.33.33,0,0,0-.16.28c0,.13.06.15.18.09s.17-.07.15,0a2.33,2.33,0,0,1-.25.64c-.16.41-.23.64-.2.69s.08,0,.16-.12.29-.57.61-1.3l.32-.72-.08,1.05a8.12,8.12,0,0,1-.22,1.56,1.16,1.16,0,0,0-.06.66,2.82,2.82,0,0,1-.24,1.18c-.22.59-.27.88-.17.85s.14,0,.09.28a.88.88,0,0,1,0,.2c-.3,1.19-.19,1.73.32,1.62a1.35,1.35,0,0,0,.57-.28q.53-.33.6-.24H23l0,0c-.05-.08,0-.21.25-.37s.29-.28.24-.36,0-.31.32-.59.47-.42.61-.42.17-.06.1-.17,0-.29.22-.56a2.51,2.51,0,0,0,.41-.65l.08-.16a.22.22,0,0,1,0,.16q0,.24.24-.12.41-.53-.48-1.74a1.88,1.88,0,0,1-.45-.75c0-.12-.13-.32-.4-.59s-.41-.45-.41-.54-.2-.34-.6-.73-.59-.68-.53-.87.05-.13.08-.14.07,0,.12,0,.12.09.2.2.36.36.43.36a16.43,16.43,0,0,1,1.8,1.22l.87.58.63.43L27,20a7.79,7.79,0,0,0,.75-1.7,14.18,14.18,0,0,0,.55-1.88c.08-.45.07-.69,0-.73a2,2,0,0,0-.91.22,3.17,3.17,0,0,1-1,.24c-.2,0-.3.09-.3.25s-.05.24-.16.24-.16-.09-.16-.26-.12-.29-.35-.35-.34-.14-.34-.26a.76.76,0,0,0-.24-.45,2,2,0,0,1-.33-1.11,4.64,4.64,0,0,0-.2-1.15.49.49,0,0,1,.1-.55c.15-.16.19-.27.12-.34s0-.33.24-.77.4-.67.49-.67.14-.08.14-.24a1.5,1.5,0,0,1,.1-.43,2.56,2.56,0,0,1,.23-.44c.08-.12.14-.17.2-.14s.09,0,.12-.09a.49.49,0,0,0,0-.24c0-.29.09-.48.26-.54s.25-.23.23-.47a.64.64,0,0,0,0-.24s-.06,0-.15.16a1,1,0,0,1-.68.57c-.08,0-.13,0-.13-.05s.17-.33.51-.68.45-.61.32-.77-.08-.26.13-.31a.73.73,0,0,1,.58.13.54.54,0,0,0,.61,0,.44.44,0,0,1,.61.08,1.67,1.67,0,0,1,.24.89,1.32,1.32,0,0,1-.16.89,11.62,11.62,0,0,0-.55,1.64,15.36,15.36,0,0,0-.46,1.76,1.37,1.37,0,0,0,0,.58c0,.1.12.12.26.07s.21-.14.16-.25,0,0,0-.06a.49.49,0,0,1,.2,0c.22.06.36,0,.43-.18s.26-.26.57-.26a.67.67,0,0,0,.66-.45c.14-.3.18-.49.13-.59s0-.2.16-.34.24-.11.24.08.11.27.32.33a6.69,6.69,0,0,0,1.26.08,1.74,1.74,0,0,1,1.27.36.93.93,0,0,0,.61.36c.18,0,.26.08.26.23a1.92,1.92,0,0,0,.08.5.16.16,0,0,1,0,.23.68.68,0,0,1-.34.14,14.72,14.72,0,0,0-2.06.89,11.78,11.78,0,0,0-1.2.65c-.2.13-.29.25-.26.36a7.43,7.43,0,0,1,.1,1.8,6.05,6.05,0,0,1-.18,1.84c-.11.27-.13.43-.06.49s0,.21-.16.46a1.73,1.73,0,0,0-.29.92,1.9,1.9,0,0,1-.26.93,2.13,2.13,0,0,0-.18.52,1.37,1.37,0,0,0,0,.47c0,.12.06.18.14.18s.19.12.26.34a3.39,3.39,0,0,0,.77,1.06c.45.47.67.77.67.89s.23.33.69.64a2.61,2.61,0,0,1,.87.87c.12.27.28.41.48.41a.5.5,0,0,1,.45.22,1.81,1.81,0,0,0,.6.51,1.58,1.58,0,0,0,.67.28.37.37,0,0,1,.35.26.35.35,0,0,0,.34.27,7.44,7.44,0,0,1,1.94.87,20.57,20.57,0,0,1,2.27,1.35,4.25,4.25,0,0,1,.85.79,2.56,2.56,0,0,1,.32.87c.11.6-.18,1-.89,1.34a1.56,1.56,0,0,1-.85.1c-.32,0-1.05-.21-2.18-.51l-.77-.2a1.5,1.5,0,0,1-.59-.22,5.81,5.81,0,0,0-.77-.51,14.21,14.21,0,0,1-1.39-1,2.8,2.8,0,0,0-.89-.56c-.11,0-.46-.33-1.06-1L30,28.06A14.37,14.37,0,0,1,28.09,26a.58.58,0,0,0-.16-.28,2.27,2.27,0,0,0-.34-.35c-.12-.09-.2-.12-.22-.1a13.85,13.85,0,0,1-1.26,1.56c-.57.63-.89.95-1,.95a3.43,3.43,0,0,0-.89.61,3,3,0,0,1-1.38.55,1.26,1.26,0,0,1-1.05-.31,4.78,4.78,0,0,1-.65-.81c-.21-.32-.29-.51-.24-.56s.05-.19-.08-.41-.14-.2-.16-.18-.08.11-.17.3a1.55,1.55,0,0,1-.42.63c-.18.15-.24.26-.2.34s-.13.34-.51.77a2.27,2.27,0,0,1-.59.57,1.41,1.41,0,0,1-.66.12c-.87,0-1.43-.5-1.7-1.5a3.09,3.09,0,0,0-.37-.89c-.11-.13-.12-.52,0-1.17l.12-1-.52.32a2.21,2.21,0,0,0-.89.95c-.22.42-.38.63-.49.63s-.19.12-.26.36a5.6,5.6,0,0,1-1,1.44,8.24,8.24,0,0,0-.92,1.17,4.26,4.26,0,0,1-.6.92,2.35,2.35,0,0,1-.93.83q-.37.09-.69-.39a2.92,2.92,0,0,1-.39-1.42,10.9,10.9,0,0,1,0-2c.07-.62.19-.93.35-.93s.24-.09.24-.26a.41.41,0,0,1,.28-.39,3.88,3.88,0,0,0,1.08-.61q.66-.48.66-.6a.72.72,0,0,1,.07-.37.77.77,0,0,1,.3-.16c.22-.08.31-.21.28-.4a.43.43,0,0,1,0-.23.14.14,0,0,1,.12-.06c.14,0,.37-.16.69-.58a5,5,0,0,1,.73-.81c.16-.12.2-.25.12-.37s0-.23.12-.34a1.86,1.86,0,0,0,.61-1c0-.08-.07-.07-.2,0A3.33,3.33,0,0,1,14,21a2.64,2.64,0,0,0-.93.45,5.51,5.51,0,0,1-1.14.64c-.59.29-.89.51-.89.67s-.23.29-.69,0a.61.61,0,0,0-.16-.12,2.29,2.29,0,0,1-.56-1.68c0-.79.13-1.3.48-1.52a3.26,3.26,0,0,0,.75-.54,1.19,1.19,0,0,1,.65-.39c.15,0,.22-.05.22-.16s.33-.39,1-.85a27,27,0,0,0,2.9-2.51c1.21-1.19,1.72-1.78,1.54-1.78h-.09c-.29.08-.44.05-.44-.08,0-.33-.43-.23-1.3.28a6,6,0,0,0-1.05.77,2.26,2.26,0,0,1-2,.57,2,2,0,0,1-1.66-1.22,4.59,4.59,0,0,1-.25-1.72,4.22,4.22,0,0,1,.45-2c.27-.54.53-.84.77-.89a5.2,5.2,0,0,1,1.78.32A2.91,2.91,0,0,0,15,9.38c.27-.13.46-.54.57-1.24ZM12.67,11.3c-.46-.35-.75-.35-.89,0s-.09.5.06.6a1.13,1.13,0,0,0,.79.09c.65-.11,1-.23.93-.37s-.08-.08-.24-.08A1.09,1.09,0,0,1,12.67,11.3ZM18,16.8c.32-.19.47-.31.44-.36a6.48,6.48,0,0,0-1.7.73c-.94.48-1.43.79-1.46.93s0,.2.12.2.21-.09.21-.26,0-.27.16-.27.16.06.16.19.05.14.16.08a.18.18,0,0,0,.08-.27c-.05-.08,0-.12,0-.12a1,1,0,0,1,.21,0,.86.86,0,0,0,.89-.24c.08-.08.09-.13,0-.16s0-.06.08-.1l.22-.16C17.77,17,17.88,16.88,18,16.8ZM18.5,12c.16-.27.19-.42.08-.45-.3,0-.48.22-.56.65,0,.13,0,.2.08.2A1.39,1.39,0,0,0,18.5,12Zm2.39,9.63c.08-.24.11-.38.08-.41s-.15,0-.36.13a.52.52,0,0,0-.19.6c.07.27,0,.44-.16.51s-.23.18-.16.32,0,.29-.28.43-.32.24-.19.32,0,.31-.36.69c-.65.65-1,1.13-1,1.46,0,.08.19-.08.57-.47s.55-.63.54-.71,0-.16.16-.24a4.12,4.12,0,0,0,.71-1.13A6.32,6.32,0,0,0,20.89,21.62Z"/><path class="cls-1" d="M50.36,18.2c.62-.46.93-.52.93-.17a2.63,2.63,0,0,1,0,.33,4.38,4.38,0,0,1-1.74,2.18c-.41.33-.61.57-.61.73s-.12.33-.36.49c-.57.4-.83,1.32-.77,2.75A4.79,4.79,0,0,0,48,26c.07.07.64-.17,1.72-.71a15.21,15.21,0,0,1,3.64-1.36,6,6,0,0,1,2.88.19q1.13.36,1.23,1.05a3.64,3.64,0,0,1-.79,2.1L56.1,28l.73-.44c.46-.3.72-.54.77-.73s.06-.16,0-.16l-.2.16c-.19.13-.28.17-.28.12s.14-.38.52-.73l.53-.48-.12.48c-.06.19-.07.28,0,.28s.25-.13.6-.48a6.93,6.93,0,0,0,1.18-1.46,3.33,3.33,0,0,1,2.75-1.78,3,3,0,0,1,1.62.24,1.59,1.59,0,0,0,.61.25,1.27,1.27,0,0,0,.56-.33,2.14,2.14,0,0,1,.81-.44c.14,0,.2-.06.2-.19s.13-.18.39-.18a.55.55,0,0,0,.51-.2c.13-.24.7-.51,1.7-.79a11,11,0,0,1,2.63-.46,18.38,18.38,0,0,1,2.4.18,9.87,9.87,0,0,1,1.89.38,4.7,4.7,0,0,1,1.21.85,1.74,1.74,0,0,1,.55.65,3.5,3.5,0,0,1,.1,1,2.48,2.48,0,0,1-.32,1.46,13.37,13.37,0,0,1-2.09,1.7A7.23,7.23,0,0,1,73.43,28c-.14,0-.29.12-.47.37a2,2,0,0,1-.75.62,5.18,5.18,0,0,0-.93.67l-.4.41.77.36c.67.3,1,.63,1.09,1s-.23.66-.85.87a11.38,11.38,0,0,1-2.49.53,7.14,7.14,0,0,1-2,.08c-.57-.24-.87-1.07-.89-2.47a3.41,3.41,0,0,1,0-1.11c0-.12.24-.24.56-.35a3.15,3.15,0,0,0,1.3-.72,27.68,27.68,0,0,1,2.67-2c.32-.21.47-.4.45-.55s.11-.32.42-.52a3.52,3.52,0,0,0,1-1.18,3.48,3.48,0,0,1,1-1.15c.52-.38.33-.59-.56-.65l-1.54,0c-1.3.06-2.13.08-2.51.08a4.4,4.4,0,0,0-1.68.61A6.3,6.3,0,0,0,65.9,24a2.45,2.45,0,0,0-.65,1,13,13,0,0,0-.32,2.14,8.64,8.64,0,0,0,0,1.87.92.92,0,0,1-.33.93c-.7.48-1.39.08-2.06-1.22a7.21,7.21,0,0,1-.69-1.68,2.71,2.71,0,0,1,0-1.23,2.44,2.44,0,0,0,.08-1.1c0-.35-.16-.52-.32-.52a2.07,2.07,0,0,0-.89.48,1.94,1.94,0,0,1-.93.49c-.19,0-.39.27-.61.81A7.2,7.2,0,0,1,58,27.89c-.58.69-.87,1.14-.87,1.36s-.21.54-.61,1-1,.88-1.9,1.52a6.47,6.47,0,0,1-1.5.95c-.14,0-.39.16-.77.48a1.48,1.48,0,0,1-1.34.49c-.1,0-.16-.08-.16-.16s-.13-.21-.38-.21-.39-.18-.39-.54a3.91,3.91,0,0,0-.28-1.32,2.91,2.91,0,0,1-.3-1.11c0-.2.15-.36.42-.47a1.38,1.38,0,0,0,.69-.68,2.79,2.79,0,0,1,.95-1,3.84,3.84,0,0,0,1.11-1.13l.37-.69-.57.17a7,7,0,0,0-1.78.91,6.8,6.8,0,0,0-1.62,1.31,2.44,2.44,0,0,0-.48.75,2.41,2.41,0,0,0,0,.95c.08.65.13,1.15.16,1.5s.08.53.16.53.12.17.12.52.08.57.24.67.17.32,0,.69a1.37,1.37,0,0,0-.14.79q.12.31-.48.6a1.66,1.66,0,0,1-1.1.17,3,3,0,0,1-1.62-1.36A5.88,5.88,0,0,1,45.05,32a3,3,0,0,0-.38-1.46,1.93,1.93,0,0,1-.38-1,1.75,1.75,0,0,1,0-.59c0-.09.14-.16.33-.22a.39.39,0,0,0,.32-.24,2.1,2.1,0,0,0,.08-.73,9,9,0,0,1,.12-1.21,13.38,13.38,0,0,0,.29-2.47,3.78,3.78,0,0,1,.85-2.39,7.77,7.77,0,0,1,2.71-2,.59.59,0,0,0,.32-.54c0-.23.07-.35.21-.35a.18.18,0,0,1,.2.21c0,.13.07.16.2.1s.17-.16.1-.29S50,18.47,50.36,18.2ZM52,17.33c.32-.18.52-.24.6-.19s0,.19-.32.33a1.29,1.29,0,0,1-.49.12C51.62,17.59,51.69,17.5,52,17.33ZM53.49,4.92a3,3,0,0,1,.61-1.54,1,1,0,0,1,1-.36A2.53,2.53,0,0,1,57,4.35c.18.44.4.69.64.75a2,2,0,0,0,1.18-.26A3.9,3.9,0,0,1,60,4.47a1.13,1.13,0,0,0,.61-.2A10.61,10.61,0,0,1,62,3.77c.69-.21,1.24-.35,1.64-.43a4.25,4.25,0,0,1,2.13.41,2.73,2.73,0,0,1,1.52,1.09c.35.84.06,1.87-.85,3.12a16.46,16.46,0,0,1-1.6,1.7,4.53,4.53,0,0,1-1.32,1,1,1,0,0,0-.3,0,8.77,8.77,0,0,0-1.2,1,6.8,6.8,0,0,0-.6.59.69.69,0,0,0-.22.38.2.2,0,0,0,.12.24,1.22,1.22,0,0,0,.46.13c1.46.24,2.19.66,2.19,1.25a.64.64,0,0,1-.39.57,16,16,0,0,1-1.88.68l-2.55.81a1.62,1.62,0,0,0-.67.33,1.4,1.4,0,0,0-.22.65c0,.51-.17.76-.34.76a.49.49,0,0,0-.43.29q-.2.36-1,.06a3.81,3.81,0,0,1-1.44-1c-.48-.54-.81-.78-1-.71s-.3,0-.38-.08,0-.22.28-.31.33-.2.34-.36a1.38,1.38,0,0,0-.26-.73,1.81,1.81,0,0,1-.28-.93c0-.3-.1-.44-.31-.44s-.3-.13-.3-.39a1,1,0,0,0-.3-.69c-.21-.2-.27-.71-.19-1.52s.15-1.57.21-2.3.1-1.35.16-1.86a3.42,3.42,0,0,1,.18-1A4.91,4.91,0,0,0,53.49,4.92ZM65,5c0-.11-.14-.16-.41-.16a5.16,5.16,0,0,0-1,.14c-.42.1-.83.21-1.23.34a15.71,15.71,0,0,0-2.63,1.14,8.52,8.52,0,0,1-.89.5,3.66,3.66,0,0,0-1.06.75,6.65,6.65,0,0,0-.34,2.49c-.07,1.5,0,2.3.14,2.41s.74-.09,1.5-.77,1.38-1.19,1.48-1.15.14,0,.14-.14a9.75,9.75,0,0,1,1.68-1.93A12.42,12.42,0,0,0,64,6.76a3,3,0,0,1,.48-.85A2.41,2.41,0,0,0,65,5ZM59,24.59c.46-.54.67-.69.65-.44a1.76,1.76,0,0,1-.49.81,5.35,5.35,0,0,1-.81.89c-.16,0,0-.33.41-1A2.47,2.47,0,0,1,59,24.59Z"/><path class="cls-1" d="M90.63,12.27A9.63,9.63,0,0,1,93,11.66l1,.2a2,2,0,0,1,1.05.61,1.66,1.66,0,0,1,.31.55,2.14,2.14,0,0,1,0,.75,9.57,9.57,0,0,1-.73,2.06,10.77,10.77,0,0,1-1.05,2c-.52.6-1.09,1.21-1.72,1.85a6.38,6.38,0,0,1-1.12,1,1.06,1.06,0,0,1-.77-.41c-.24-.21-.35-.27-.32-.16a1.82,1.82,0,0,1,0,1.78.85.85,0,0,1-.4.31,2.63,2.63,0,0,1-.73-.15c-.52-.13-.77-.27-.77-.42a.2.2,0,0,0-.22-.22q-.22,0-.63-.81a4.68,4.68,0,0,0-.63-1,.81.81,0,0,1-.22-.62c0-.27-.08-.41-.24-.41-.49,0-.73-.7-.73-2.1A7,7,0,0,0,84.8,14c-.43-1.27-.44-2,0-2.11a.57.57,0,0,1,.27,0s0,.09,0,.17,0,.3.28.42a4.28,4.28,0,0,1,1,1,3.28,3.28,0,0,0,.67.63c.09,0,.21,0,.34-.18a3.5,3.5,0,0,1,1.06-.77A18.88,18.88,0,0,1,90.63,12.27Zm1.62,1.42c0-.17.06-.27,0-.33s-.14-.08-.3-.08a4.16,4.16,0,0,0-1.16.24c-.5.17-1.06.34-1.68.53a2.83,2.83,0,0,0-.85.32,1.74,1.74,0,0,0-.4.57,1.78,1.78,0,0,0-.08,1.3,8.65,8.65,0,0,0,.46,1.13c.23.49.44.91.63,1.27s.31.52.36.47,0-.2-.2-.53a1.84,1.84,0,0,1-.24-.72c0-.17.4-.67,1.21-1.5s1.47-1.58,1.74-1.9A2.56,2.56,0,0,0,92.25,13.69ZM103.91,1.62c.38-.1.56-.09.56,0s.13.18.37.21a.32.32,0,0,1,.32.3,10,10,0,0,1,0,1.56,2,2,0,0,1-.14.71,1.16,1.16,0,0,1-.46.38c-.28.16-.41.3-.41.41a6.49,6.49,0,0,1-.47,1.19c-.31.69-.5,1.15-.58,1.4a11.42,11.42,0,0,0-.47,1.51,5.76,5.76,0,0,0-.26,1.2,5.54,5.54,0,0,0,1,.08A3.71,3.71,0,0,1,106,11.66l.2.27.15.16s0,.06,0,.06a4.32,4.32,0,0,0,.24,1c.19.57,0,2.08-.61,4.53-.21.92-.35,1.54-.4,1.87a12.09,12.09,0,0,1-1.2,3.46,12.64,12.64,0,0,1-1.84,3.09c-.54.6-1,.84-1.48.73s-.76-.54-1-1.29c-.13-.46-.25-.72-.34-.77a1.47,1.47,0,0,1-.34-.69,16.48,16.48,0,0,0-.63-1.6c-.26-.55-.43-.83-.51-.83s-.37.52-.79,1.56a6.7,6.7,0,0,0-.6,1.9,1,1,0,0,1-.23.67,2.27,2.27,0,0,0-.36.75A11.91,11.91,0,0,1,95.71,28c-.31.68-.54,1.21-.69,1.6s-.37.93-.66,1.6-.57,1.22-.73,1.62a7.49,7.49,0,0,1-.45.81,10.29,10.29,0,0,0-.93,2.19,17,17,0,0,1-.87,1.9,8.39,8.39,0,0,1-.83,1.5,2.29,2.29,0,0,1-1.09-.65.85.85,0,0,1-.33-.65,1.1,1.1,0,0,0-.32-.73,1,1,0,0,1-.32-.58,1.91,1.91,0,0,1,.22-.71l.44-.95q.22-.47.45-.39c.15.06.22,0,.22-.32,0-.51.15-.65.45-.41.1.08.23,0,.38-.18A2,2,0,0,0,91,33a1.14,1.14,0,0,0,0-.69c-.09-.18-.1-.28,0-.28L91,32c.1.06.18,0,.24-.08a2.91,2.91,0,0,0,.16-.69q.12-.84.45-.93a.35.35,0,0,0,.26-.14,1.52,1.52,0,0,0,.1-.47.83.83,0,0,1,.32-.5c.22-.2.29-.39.23-.55s0-.24.06-.24.21-.12.3-.36.3-.71.63-1.38a5.8,5.8,0,0,0,.55-1.6c0-.39.14-.63.3-.73a.47.47,0,0,0,.24-.44.68.68,0,0,1,.33-.55,1.48,1.48,0,0,0,.4-1.05,2,2,0,0,1,.28-1c.14-.15.17-.29.08-.41s-.06-.18.07-.18a.16.16,0,0,1,.18.18c0,.12,0,.15.14.08s.13-.28.1-.65a2.08,2.08,0,0,1,.24-1.11,14.26,14.26,0,0,0,.77-1.7c.11-.3.64-1.6,1.58-3.93l.61-1.49-.41-.33a1,1,0,0,0-.6-.32c-.17,0-.25-.06-.25-.18s-.05-.15-.16-.08-.16,0-.16-.06a.3.3,0,0,1,.18-.29.25.25,0,0,1,.31.08c.08.14.36.12.85,0a1.45,1.45,0,0,0,.66-.3,2.77,2.77,0,0,0,.43-.63,11.41,11.41,0,0,0,.58-1.44c.15-.44.56-1.39,1.22-2.85a15.9,15.9,0,0,0,1.07-2.71,6.08,6.08,0,0,1,.22-1A.43.43,0,0,1,103.91,1.62ZM95.19,23.2c-.13,0-.15-.06-.09-.16s.13-.17.19-.17.08.06.08.17S95.31,23.2,95.19,23.2Zm8.52-10.93c-.09-.14-.41-.18-1-.12a3.08,3.08,0,0,0-1.25.32,2.18,2.18,0,0,0-.39.93,3.89,3.89,0,0,1-.44,1.14,1.22,1.22,0,0,0-.22.72,1.69,1.69,0,0,1-.25.85,14.67,14.67,0,0,0-.58,1.5,5.84,5.84,0,0,0-.35,1.3.34.34,0,0,0,.23.36c.14.06.26.33.34.81s.21.91.38,1,.42-.18.71-.67a4.91,4.91,0,0,0,.53-.95c0-.06.08-.18.24-.34a.92.92,0,0,0,.24-.67,1.41,1.41,0,0,1,.17-.71,19.56,19.56,0,0,0,1.09-3A7.8,7.8,0,0,0,103.71,12.27Zm4.57.81a.82.82,0,0,1,0-.41c0-.05.11-.08.24-.08s.37.06.37.19.06.18.2.18.54.38.89,1.13c.11.27.19.42.26.45a.63.63,0,0,0,.39-.13,2.44,2.44,0,0,1,.87-.34c.33-.07,1.06-.24,2.16-.53a4.12,4.12,0,0,1,2-.24,2.74,2.74,0,0,0,1,.26,2.87,2.87,0,0,1,1.21.51c.41.28.61.53.61.75a2.83,2.83,0,0,1-.41,1,8.71,8.71,0,0,1-.72,1.16.7.7,0,0,1-.51.32,1,1,0,0,0-.63.38,3.78,3.78,0,0,1-.73.63c-.21.14-.33.24-.34.32s.07.17.26.25a1.89,1.89,0,0,1,1.38,1.17,1.19,1.19,0,0,1,.06.61c0,.11-.14.16-.3.16s-.25,0-.25.16-.32.18-1,.37a12.82,12.82,0,0,1-1.82.4,12.23,12.23,0,0,1-2,.12,3.46,3.46,0,0,1-1.64-.2,2.4,2.4,0,0,1-.83-1.17,2.54,2.54,0,0,0-.65-1c-.22-.16-.36-.68-.42-1.55a3.44,3.44,0,0,1,.22-1.89,2.78,2.78,0,0,0,.32-1.35A5.28,5.28,0,0,0,108.28,13.08Zm6.64,2q0-.19-1.26,0a8.3,8.3,0,0,0-1.84.49,5.34,5.34,0,0,0-1.27.52,2.58,2.58,0,0,0,.14.65c.09.33.17.64.24.95s.17.47.3.47a7.57,7.57,0,0,0,2-1.42C114.35,15.82,114.92,15.26,114.92,15.1Z"/><path class="cls-1" d="M142.56,1.38a9.3,9.3,0,0,1,.51-1.11c.12-.2.25-.29.38-.27s.33.21.35.53.06.84.14,1.56a6.29,6.29,0,0,1-.08,2Q143.5,5.8,143.17,9c-.22,2.15-.35,4.16-.4,6.05q-.09,3.28-.21,3.93c-.08.38-.09.57,0,.57a.7.7,0,0,0,.21-.13,11.23,11.23,0,0,0,1.19-1.66A10.12,10.12,0,0,0,145,16c.06-.19.08-.27.06-.26l-.14.18c-.19.24-.26.29-.2.12a10.13,10.13,0,0,1,.65-1.58,5.87,5.87,0,0,0,.89-2.79s0-.08,0-.08l.1,0c.11.11.24.06.4-.16s.33-.61.25-.77-.08-.05-.17,0-.08,0-.1-.06a.46.46,0,0,1,.06-.26c0-.22.06-.33.08-.33s.09.1.17.29.12.24.14.24,0-.07,0-.2.07-.37.2-.37.14.19,0,.57l-.12.36.24-.24a1.07,1.07,0,0,0,.29-.55c0-.12,0-.14.1-.08a3.65,3.65,0,0,1-.19,1.36c-.59,2.64-.89,4.13-.89,4.45a6.48,6.48,0,0,1-.72,2,7.29,7.29,0,0,0-.77,2.05,4.76,4.76,0,0,1-1.3,2.27,3.46,3.46,0,0,0-.77,1c0,.11-.16.33-.48.69a1.74,1.74,0,0,0-.39.7,8.66,8.66,0,0,0-.14,1.52,36.61,36.61,0,0,0,.53,6.23,20.49,20.49,0,0,1,.32,3.65A7.09,7.09,0,0,1,143,38c-.12.34-.37.44-.75.31a2.67,2.67,0,0,1-.91-.59c-.39-.34-.59-.56-.59-.67a5.1,5.1,0,0,0-.69-1.21,3.57,3.57,0,0,1-.68-1.4,1.84,1.84,0,0,0-.43-.93,3.85,3.85,0,0,1-.57-1.72c-.09-.76-.18-1.32-.26-1.7l0-.32c.08.08.58,1,1.5,2.71a2,2,0,0,0,.2.38,3.24,3.24,0,0,1,.2.33l.16.24.13.14,0,.08a30.53,30.53,0,0,0,0-3.52l-.17-3.44-.64.44a6.32,6.32,0,0,1-1.38.59,5.22,5.22,0,0,1-1.46.31c-.13,0-.46-.24-1-.71a2,2,0,0,1-.77-1.34,1.21,1.21,0,0,0-.22-.85c-.15-.15,0-.57.32-1.27a3.58,3.58,0,0,1,.71-1.12c.11,0,.3-.38.57-1s.46-1,.59-1,.18-.1.18-.28-.16-.29-.47-.29a1.48,1.48,0,0,1-.95-.4,3.51,3.51,0,0,0-.38-.29.57.57,0,0,0-.23-.08.11.11,0,0,0-.1.08,1.47,1.47,0,0,0,0,.25q0,.36-.93,1.23c-.62.58-1.33,1.28-2.14,2.09-1.73,1.67-2.77,2.44-3.12,2.3s-.32-.05-.32.08a1.21,1.21,0,0,1-.33.85,1.35,1.35,0,0,1-1,.33,1.56,1.56,0,0,1-.69-.16,1.86,1.86,0,0,1-.4-.69,2.81,2.81,0,0,0-.47-.87,1.44,1.44,0,0,1-.26-.71A6.32,6.32,0,0,0,124,21.7a2,2,0,0,1-.36-1,1.08,1.08,0,0,1,.24-.87,7.45,7.45,0,0,0,.61-2.57c.38-2.54.76-3.86,1.13-4,.14,0,.34,0,.61.28a4.82,4.82,0,0,1,1.46,2.15c0,.24.12.38.2.4a1.52,1.52,0,0,0,.69-.16,8,8,0,0,1,1.9-.4,3.23,3.23,0,0,1,1.09,0,4.91,4.91,0,0,1,1,.4,7.63,7.63,0,0,1,1.61,1.14c.44.4.65.54.65.4s.2-.39.61-.85a4.39,4.39,0,0,1,1-.89,6.19,6.19,0,0,0,1.09-1.17l.85-1-1.45-.28a8.9,8.9,0,0,1-1.22-.28.74.74,0,0,1-.44-.41.5.5,0,0,1,0-.46,2.16,2.16,0,0,1,.66-.55c1.25-.86,2.26-1.16,3-.89l.57.2.16-1a20.14,20.14,0,0,1,.4-2,4.76,4.76,0,0,1,.41-1.24l0,.25a.67.67,0,0,0,0,.24,16,16,0,0,0-.37,2.33,5.24,5.24,0,0,0,0,1.72c.19.32.33.27.41-.17a1,1,0,0,1,0-.28A26.94,26.94,0,0,1,141,6.91a24.26,24.26,0,0,1,.87-3.63C142,2.93,142.24,2.3,142.56,1.38ZM131.39,17.05a3.34,3.34,0,0,0-1.8-.09,2.55,2.55,0,0,0-1.48.73,3.79,3.79,0,0,0-.36,2.07q0,1.62.12,1.62c.24,0,.84-.46,1.78-1.36a9.92,9.92,0,0,0,1.86-2.16l.37-.61Zm8.83,3.68c.08-.35.08-.53,0-.53s-.21.16-.43.49a.93.93,0,0,1-.77.48q-.4,0-1.5,1a4.6,4.6,0,0,0-1.25,1.53q-.12.41,0,.51c.08.07.23,0,.44-.14a1.91,1.91,0,0,1,.65-.45h0a3.22,3.22,0,0,1-.44.45,3.18,3.18,0,0,1-.81.61c-.11,0-.16.1-.16.3s.05.3.16.3a6.51,6.51,0,0,0,1.41-.93c.84-.62,1.48-1.12,1.91-1.5a1.45,1.45,0,0,0,.6-1.11A2.84,2.84,0,0,1,140.22,20.73Zm-.09-5.1c0-.49,0-.77-.16-.85s-.4-.06-.89.08-.55.14-.6.08-.13.06-.31.26-.35.43-.52.67a1.2,1.2,0,0,0-.27.49c0,.08.1,0,.29-.1s.28-.15.28,0,.18.19.55.12a1.09,1.09,0,0,1,.91.18c.27.22.46.26.56.12A2,2,0,0,0,140.13,15.63ZM138,23.12c.22-.14.33-.19.34-.16s0,.12-.18.28-.28.25-.34.18S137.8,23.25,138,23.12Zm1-.81c.57-.7.84-.92.81-.65a.5.5,0,0,1,0,.16c-.05.19-.3.43-.73.73l-.65.49Zm11.46-21a1.78,1.78,0,0,1,1.9.44c.35.38.49.64.4.77A7.7,7.7,0,0,0,152.48,4c-.13.89-.23,1.5-.28,1.82a30.5,30.5,0,0,0-.45,4.33l0,.69h1.46a5.5,5.5,0,0,1,1.4.12,5.29,5.29,0,0,1,1.19.69,5.46,5.46,0,0,1,1,.75,1.15,1.15,0,0,1,.26.67,1.19,1.19,0,0,1-.26.85,17.92,17.92,0,0,1-1.68,1.7q-2.1,2-1.74,2.31a1,1,0,0,0,.49.08.83.83,0,0,1,.68.3.68.68,0,0,0,.49.3c.16,0,.49.26,1,.77s.67.82.63,1.08-.35.48-.91.66a4.2,4.2,0,0,1-1,.25,2.71,2.71,0,0,0-1.77,1c-.66.69-.92,1.22-.78,1.6a.39.39,0,0,0,.34.28,6.71,6.71,0,0,0,1.19,0,5.76,5.76,0,0,1,2.7.34c.71.31,1,.74,1,1.28,0,.81-.14,1.21-.33,1.21a3,3,0,0,0-1,.65,2,2,0,0,1-2.79.12,1.76,1.76,0,0,0-.67-.4c-.09,0-.22-.16-.38-.49-.33-.62-.5-.47-.53.45v.89a1.5,1.5,0,0,1,0,.44c.19,3.54.28,5.62.26,6.26a1.84,1.84,0,0,1-.34,1.27,1.12,1.12,0,0,1-.73.41,1.73,1.73,0,0,1-.79-.25c-.31-.16-.46-.31-.46-.44a2.21,2.21,0,0,0-.31-.81,2.11,2.11,0,0,1-.3-.87,1.37,1.37,0,0,0-.28-.71,2.63,2.63,0,0,1-.39-1.13,1.53,1.53,0,0,0-.3-.89,1.53,1.53,0,0,1-.51-1,4.65,4.65,0,0,1-.12-1.46q.06-.69.36-.69c.21,0,.27.28.19.85a2.2,2.2,0,0,0,0,.73c0,.11.13.19.32.24a1.16,1.16,0,0,0,.53.08c.05-.08.06-1.31,0-3.68,0-.19,0-1.4.08-3.64s.16-5,.24-8.14c.08-3.94.2-6.66.37-8.18.1-1,.1-1.47,0-1.41a3.48,3.48,0,0,0-.29,1.41c0,.22-.07.23-.12,0a1.1,1.1,0,0,1-.08-.24c-.11-.38-.16-.44-.16-.2a2.65,2.65,0,0,1-.65,1.33c-.11.14-.16.15-.16,0a4.17,4.17,0,0,1,.4-1.15,2.7,2.7,0,0,1,.57-1c.13-.08.17-.18.1-.28s0-.34.18-.69.29-.45.37-.29v.13c0,.13.09.09.12-.13v-.2a2.1,2.1,0,0,0,0-.52s-.07,0-.12.12-.21,0-.21-.25a3,3,0,0,1,.41-1.33C150,1.6,150.28,1.31,150.5,1.26Zm-3,7c.08-.19.18-.28.31-.28s.1.12-.06.36-.3.42-.33.29A1.45,1.45,0,0,1,147.5,8.3Zm6.24,5.06a5.5,5.5,0,0,1-1.5-.12l-.73-.16v1.46c0,1,.07,1.55.22,1.68s.49-.08,1-.59.94-.9.94-1.07.05-.27.16-.27.23-.16.36-.48.14-.35.1-.39A1.36,1.36,0,0,0,153.74,13.36ZM152.48,21a3,3,0,0,0-.79-.22c-.12,0-.18.42-.18,1.27s.05,1.28.16,1.28.37-.28.79-.85a3.28,3.28,0,0,0,.63-1C153.09,21.28,152.89,21.14,152.48,21Z"/><path class="cls-2" d="M6,3.2A.23.23,0,0,1,6.2,3a.86.86,0,0,1,.44,0A.7.7,0,0,1,7,3.28c.13.22.28.29.44.21.43-.25.8-.11,1.09.4a1,1,0,0,0,.59.47c.26.06.42.35.49.85A2,2,0,0,1,9.54,6.3c-.13.23-.14.34,0,.34s.09.05,0,.14a3,3,0,0,0-.5,1,10.29,10.29,0,0,1-1.18,2.34,11.79,11.79,0,0,0-.64,1.18,2.23,2.23,0,0,1-.57.75,2.57,2.57,0,0,0-.65.91l-.28.6.69.69a2.55,2.55,0,0,1,.56.67,1.82,1.82,0,0,1,.13.79A6.06,6.06,0,0,1,7,17a7.53,7.53,0,0,1-.45,1.2c-.32.7-.59,1.33-.79,1.9a11.94,11.94,0,0,1-1.07,2.11,16.39,16.39,0,0,0-1.05,1.86,1.93,1.93,0,0,0-.21.58.68.68,0,0,0,.21.39c.27.32.48.4.64.24a13,13,0,0,0,1-1.9l.37-.65a3,3,0,0,1,0,.33,22.39,22.39,0,0,0-.12,3c0,1.59,0,2.73.08,3.4.19,1.7.28,2.82.28,3.36a1.57,1.57,0,0,1-.24,1.05c-.41.41-.87.35-1.38-.16a7,7,0,0,1-.83-1.07,2.39,2.39,0,0,1-.46-.95,5,5,0,0,0-.25-.63,2.15,2.15,0,0,1-.2-.63A.84.84,0,0,0,2.17,30,.47.47,0,0,1,2,29.45a7.3,7.3,0,0,0,.24-1.6c.11-1.37,0-2-.4-1.9-.17.05-.35,0-.55-.28a7.8,7.8,0,0,1-.79-1.34A4,4,0,0,1,0,22.69a2.43,2.43,0,0,1,.81-1.23A10.56,10.56,0,0,0,3,18.83a7.84,7.84,0,0,1,.65-1.34A6.9,6.9,0,0,0,4.66,15c0-.16-.16-.18-.47-.06a2.43,2.43,0,0,0-.75.43,2.16,2.16,0,0,1-.89.28,1.33,1.33,0,0,1-.85-.08A5.18,5.18,0,0,1,1,14a9.9,9.9,0,0,1-.4-1.23,1,1,0,0,1,.16-.63A11.25,11.25,0,0,1,2.59,10C3.67,8.92,4.37,8.21,4.7,7.86A13.58,13.58,0,0,0,6,6.06,4.06,4.06,0,0,0,6.68,4.7a2.08,2.08,0,0,0-.2-.81q-.21-.45-.36-.45C6,3.44,6,3.36,6,3.2ZM5.18,24.74c.14-.14.17-.23.11-.29s-.15,0-.23.21,0,.2,0,.2S5.1,24.82,5.18,24.74ZM15.79,7.09s0-.58,0-1.74A7.68,7.68,0,0,1,16,3.61c.08,0,.32.3.73.91a4.34,4.34,0,0,1,.61,1.07c0,.14.05.2.16.2s.19.16.24.49.15.81.28,1.46.22,1.13.25,1.29a.19.19,0,0,0,.16.18,1.69,1.69,0,0,0,.57-.1c.24-.08.36-.07.36,0s-.18.2-.53.29-.44.13-.44.16.23.05.61,0,.52-.19.52-.33.15-.29.45,0a.93.93,0,0,0,.65.25,2.88,2.88,0,0,1,1.55.58c.58.4.89.74.91,1s-.45.7-1.37,1.53c-.54.49-.81.84-.81,1.06s-.08.14-.22,0S19.94,14,19,14.94a12.49,12.49,0,0,0-1.36,1.42c.11.08.27.06.49-.06s.32-.25.32-.39.09-.25.26-.2A.32.32,0,0,1,19,16c0,.11.16.19.48.25a2.9,2.9,0,0,0,.93,0,2.22,2.22,0,0,1,.65.3,3.28,3.28,0,0,1,.65.43c.05.08.15,0,.28-.25a1.34,1.34,0,0,1,.12-.24,1,1,0,0,1,.13-.3.83.83,0,0,1,.14-.21s.07,0,.1,0,0,.2-.1.43-.11.35,0,.36.12.09-.06.23a1,1,0,0,0-.39.62,2,2,0,0,1-.34.75c-.14.11-.2.15-.2.12s.08-.19,0-.18a3.17,3.17,0,0,0-.69.34,7,7,0,0,0-1.4,1.18,7.55,7.55,0,0,0-1.15,1.42,10.16,10.16,0,0,1-1,1.45c-.44.65-.57,1-.41,1,.32,0,.73.4,1.21,1.18.11.16.27.15.49,0a12.35,12.35,0,0,0,1.82-3.48,3.78,3.78,0,0,1,.51-1,.86.86,0,0,0,.22-.58,1.16,1.16,0,0,1,.36-.85c.09-.06.13,0,.13,0a.34.34,0,0,1-.17.3.33.33,0,0,0-.16.28c0,.13.06.15.18.09s.17-.07.15,0a2.33,2.33,0,0,1-.25.64c-.16.41-.23.64-.2.69s.08,0,.16-.12.29-.57.61-1.3l.32-.72-.08,1.05a8.12,8.12,0,0,1-.22,1.56,1.16,1.16,0,0,0-.06.66,2.82,2.82,0,0,1-.24,1.18c-.22.59-.27.88-.17.85s.14,0,.09.28a.88.88,0,0,1,0,.2c-.3,1.19-.19,1.73.32,1.62a1.35,1.35,0,0,0,.57-.28q.53-.33.6-.24H23l0,0c-.05-.08,0-.21.25-.37s.29-.28.24-.36,0-.31.32-.59.47-.42.61-.42.17-.06.1-.17,0-.29.22-.56a2.51,2.51,0,0,0,.41-.65l.08-.16a.22.22,0,0,1,0,.16q0,.24.24-.12.41-.53-.48-1.74a1.88,1.88,0,0,1-.45-.75c0-.12-.13-.32-.4-.59s-.41-.45-.41-.54-.2-.34-.6-.73-.59-.68-.53-.87.05-.13.08-.14.07,0,.12,0,.12.09.2.2.36.36.43.36a16.43,16.43,0,0,1,1.8,1.22l.87.58.63.43L27,20a7.79,7.79,0,0,0,.75-1.7,14.18,14.18,0,0,0,.55-1.88c.08-.45.07-.69,0-.73a2,2,0,0,0-.91.22,3.17,3.17,0,0,1-1,.24c-.2,0-.3.09-.3.25s-.05.24-.16.24-.16-.09-.16-.26-.12-.29-.35-.35-.34-.14-.34-.26a.76.76,0,0,0-.24-.45,2,2,0,0,1-.33-1.11,4.64,4.64,0,0,0-.2-1.15.49.49,0,0,1,.1-.55c.15-.16.19-.27.12-.34s0-.33.24-.77.4-.67.49-.67.14-.08.14-.24a1.5,1.5,0,0,1,.1-.43,2.56,2.56,0,0,1,.23-.44c.08-.12.14-.17.2-.14s.09,0,.12-.09a.49.49,0,0,0,0-.24c0-.29.09-.48.26-.54s.25-.23.23-.47a.64.64,0,0,0,0-.24s-.06,0-.15.16a1,1,0,0,1-.68.57c-.08,0-.13,0-.13-.05s.17-.33.51-.68.45-.61.32-.77-.08-.26.13-.31a.73.73,0,0,1,.58.13.54.54,0,0,0,.61,0,.44.44,0,0,1,.61.08,1.67,1.67,0,0,1,.24.89,1.32,1.32,0,0,1-.16.89,11.62,11.62,0,0,0-.55,1.64,15.36,15.36,0,0,0-.46,1.76,1.37,1.37,0,0,0,0,.58c0,.1.12.12.26.07s.21-.14.16-.25,0,0,0-.06a.49.49,0,0,1,.2,0c.22.06.36,0,.43-.18s.26-.26.57-.26a.67.67,0,0,0,.66-.45c.14-.3.18-.49.13-.59s0-.2.16-.34.24-.11.24.08.11.27.32.33a6.69,6.69,0,0,0,1.26.08,1.74,1.74,0,0,1,1.27.36.93.93,0,0,0,.61.36c.18,0,.26.08.26.23a1.92,1.92,0,0,0,.08.5.16.16,0,0,1,0,.23.68.68,0,0,1-.34.14,14.72,14.72,0,0,0-2.06.89,11.78,11.78,0,0,0-1.2.65c-.2.13-.29.25-.26.36a7.43,7.43,0,0,1,.1,1.8,6.05,6.05,0,0,1-.18,1.84c-.11.27-.13.43-.06.49s0,.21-.16.46a1.73,1.73,0,0,0-.29.92,1.9,1.9,0,0,1-.26.93,2.13,2.13,0,0,0-.18.52,1.37,1.37,0,0,0,0,.47c0,.12.06.18.14.18s.19.12.26.34a3.39,3.39,0,0,0,.77,1.06c.45.47.67.77.67.89s.23.33.69.64a2.61,2.61,0,0,1,.87.87c.12.27.28.41.48.41a.5.5,0,0,1,.45.22,1.81,1.81,0,0,0,.6.51,1.58,1.58,0,0,0,.67.28.37.37,0,0,1,.35.26.35.35,0,0,0,.34.27,7.44,7.44,0,0,1,1.94.87,20.57,20.57,0,0,1,2.27,1.35,4.25,4.25,0,0,1,.85.79,2.56,2.56,0,0,1,.32.87c.11.6-.18,1-.89,1.34a1.56,1.56,0,0,1-.85.1c-.32,0-1.05-.21-2.18-.51l-.77-.2a1.5,1.5,0,0,1-.59-.22,5.81,5.81,0,0,0-.77-.51,14.21,14.21,0,0,1-1.39-1,2.8,2.8,0,0,0-.89-.56c-.11,0-.46-.33-1.06-1L30,28.06A14.37,14.37,0,0,1,28.09,26a.58.58,0,0,0-.16-.28,2.27,2.27,0,0,0-.34-.35c-.12-.09-.2-.12-.22-.1a13.85,13.85,0,0,1-1.26,1.56c-.57.63-.89.95-1,.95a3.43,3.43,0,0,0-.89.61,3,3,0,0,1-1.38.55,1.26,1.26,0,0,1-1.05-.31,4.78,4.78,0,0,1-.65-.81c-.21-.32-.29-.51-.24-.56s.05-.19-.08-.41-.14-.2-.16-.18-.08.11-.17.3a1.55,1.55,0,0,1-.42.63c-.18.15-.24.26-.2.34s-.13.34-.51.77a2.27,2.27,0,0,1-.59.57,1.41,1.41,0,0,1-.66.12c-.87,0-1.43-.5-1.7-1.5a3.09,3.09,0,0,0-.37-.89c-.11-.13-.12-.52,0-1.17l.12-1-.52.32a2.21,2.21,0,0,0-.89.95c-.22.42-.38.63-.49.63s-.19.12-.26.36a5.6,5.6,0,0,1-1,1.44,8.24,8.24,0,0,0-.92,1.17,4.26,4.26,0,0,1-.6.92,2.35,2.35,0,0,1-.93.83q-.37.09-.69-.39a2.92,2.92,0,0,1-.39-1.42,10.9,10.9,0,0,1,0-2c.07-.62.19-.93.35-.93s.24-.09.24-.26a.41.41,0,0,1,.28-.39,3.88,3.88,0,0,0,1.08-.61q.66-.48.66-.6a.72.72,0,0,1,.07-.37.77.77,0,0,1,.3-.16c.22-.08.31-.21.28-.4a.43.43,0,0,1,0-.23.14.14,0,0,1,.12-.06c.14,0,.37-.16.69-.58a5,5,0,0,1,.73-.81c.16-.12.2-.25.12-.37s0-.23.12-.34a1.86,1.86,0,0,0,.61-1c0-.08-.07-.07-.2,0A3.33,3.33,0,0,1,14,21a2.64,2.64,0,0,0-.93.45,5.51,5.51,0,0,1-1.14.64c-.59.29-.89.51-.89.67s-.23.29-.69,0a.61.61,0,0,0-.16-.12,2.29,2.29,0,0,1-.56-1.68c0-.79.13-1.3.48-1.52a3.26,3.26,0,0,0,.75-.54,1.19,1.19,0,0,1,.65-.39c.15,0,.22-.05.22-.16s.33-.39,1-.85a27,27,0,0,0,2.9-2.51c1.21-1.19,1.72-1.78,1.54-1.78h-.09c-.29.08-.44.05-.44-.08,0-.33-.43-.23-1.3.28a6,6,0,0,0-1.05.77,2.26,2.26,0,0,1-2,.57,2,2,0,0,1-1.66-1.22,4.59,4.59,0,0,1-.25-1.72,4.22,4.22,0,0,1,.45-2c.27-.54.53-.84.77-.89a5.2,5.2,0,0,1,1.78.32A2.91,2.91,0,0,0,15,9.38c.27-.13.46-.54.57-1.24ZM12.67,11.3c-.46-.35-.75-.35-.89,0s-.09.5.06.6a1.13,1.13,0,0,0,.79.09c.65-.11,1-.23.93-.37s-.08-.08-.24-.08A1.09,1.09,0,0,1,12.67,11.3ZM18,16.8c.32-.19.47-.31.44-.36a6.48,6.48,0,0,0-1.7.73c-.94.48-1.43.79-1.46.93s0,.2.12.2.21-.09.21-.26,0-.27.16-.27.16.06.16.19.05.14.16.08a.18.18,0,0,0,.08-.27c-.05-.08,0-.12,0-.12a1,1,0,0,1,.21,0,.86.86,0,0,0,.89-.24c.08-.08.09-.13,0-.16s0-.06.08-.1l.22-.16C17.77,17,17.88,16.88,18,16.8ZM18.5,12c.16-.27.19-.42.08-.45-.3,0-.48.22-.56.65,0,.13,0,.2.08.2A1.39,1.39,0,0,0,18.5,12Zm2.39,9.63c.08-.24.11-.38.08-.41s-.15,0-.36.13a.52.52,0,0,0-.19.6c.07.27,0,.44-.16.51s-.23.18-.16.32,0,.29-.28.43-.32.24-.19.32,0,.31-.36.69c-.65.65-1,1.13-1,1.46,0,.08.19-.08.57-.47s.55-.63.54-.71,0-.16.16-.24a4.12,4.12,0,0,0,.71-1.13A6.32,6.32,0,0,0,20.89,21.62Z"/><path class="cls-2" d="M50.36,18.2c.62-.46.93-.52.93-.17a2.63,2.63,0,0,1,0,.33,4.38,4.38,0,0,1-1.74,2.18c-.41.33-.61.57-.61.73s-.12.33-.36.49c-.57.4-.83,1.32-.77,2.75A4.79,4.79,0,0,0,48,26c.07.07.64-.17,1.72-.71a15.21,15.21,0,0,1,3.64-1.36,6,6,0,0,1,2.88.19q1.13.36,1.23,1.05a3.64,3.64,0,0,1-.79,2.1L56.1,28l.73-.44c.46-.3.72-.54.77-.73s.06-.16,0-.16l-.2.16c-.19.13-.28.17-.28.12s.14-.38.52-.73l.53-.48-.12.48c-.06.19-.07.28,0,.28s.25-.13.6-.48a6.93,6.93,0,0,0,1.18-1.46,3.33,3.33,0,0,1,2.75-1.78,3,3,0,0,1,1.62.24,1.59,1.59,0,0,0,.61.25,1.27,1.27,0,0,0,.56-.33,2.14,2.14,0,0,1,.81-.44c.14,0,.2-.06.2-.19s.13-.18.39-.18a.55.55,0,0,0,.51-.2c.13-.24.7-.51,1.7-.79a11,11,0,0,1,2.63-.46,18.38,18.38,0,0,1,2.4.18,9.87,9.87,0,0,1,1.89.38,4.7,4.7,0,0,1,1.21.85,1.74,1.74,0,0,1,.55.65,3.5,3.5,0,0,1,.1,1,2.48,2.48,0,0,1-.32,1.46,13.37,13.37,0,0,1-2.09,1.7A7.23,7.23,0,0,1,73.43,28c-.14,0-.29.12-.47.37a2,2,0,0,1-.75.62,5.18,5.18,0,0,0-.93.67l-.4.41.77.36c.67.3,1,.63,1.09,1s-.23.66-.85.87a11.38,11.38,0,0,1-2.49.53,7.14,7.14,0,0,1-2,.08c-.57-.24-.87-1.07-.89-2.47a3.41,3.41,0,0,1,0-1.11c0-.12.24-.24.56-.35a3.15,3.15,0,0,0,1.3-.72,27.68,27.68,0,0,1,2.67-2c.32-.21.47-.4.45-.55s.11-.32.42-.52a3.52,3.52,0,0,0,1-1.18,3.48,3.48,0,0,1,1-1.15c.52-.38.33-.59-.56-.65l-1.54,0c-1.3.06-2.13.08-2.51.08a4.4,4.4,0,0,0-1.68.61A6.3,6.3,0,0,0,65.9,24a2.45,2.45,0,0,0-.65,1,13,13,0,0,0-.32,2.14,8.64,8.64,0,0,0,0,1.87.92.92,0,0,1-.33.93c-.7.48-1.39.08-2.06-1.22a7.21,7.21,0,0,1-.69-1.68,2.71,2.71,0,0,1,0-1.23,2.44,2.44,0,0,0,.08-1.1c0-.35-.16-.52-.32-.52a2.07,2.07,0,0,0-.89.48,1.94,1.94,0,0,1-.93.49c-.19,0-.39.27-.61.81A7.2,7.2,0,0,1,58,27.89c-.58.69-.87,1.14-.87,1.36s-.21.54-.61,1-1,.88-1.9,1.52a6.47,6.47,0,0,1-1.5.95c-.14,0-.39.16-.77.48a1.48,1.48,0,0,1-1.34.49c-.1,0-.16-.08-.16-.16s-.13-.21-.38-.21-.39-.18-.39-.54a3.91,3.91,0,0,0-.28-1.32,2.91,2.91,0,0,1-.3-1.11c0-.2.15-.36.42-.47a1.38,1.38,0,0,0,.69-.68,2.79,2.79,0,0,1,.95-1,3.84,3.84,0,0,0,1.11-1.13l.37-.69-.57.17a7,7,0,0,0-1.78.91,6.8,6.8,0,0,0-1.62,1.31,2.44,2.44,0,0,0-.48.75,2.41,2.41,0,0,0,0,.95c.08.65.13,1.15.16,1.5s.08.53.16.53.12.17.12.52.08.57.24.67.17.32,0,.69a1.37,1.37,0,0,0-.14.79q.12.31-.48.6a1.66,1.66,0,0,1-1.1.17,3,3,0,0,1-1.62-1.36A5.88,5.88,0,0,1,45.05,32a3,3,0,0,0-.38-1.46,1.93,1.93,0,0,1-.38-1,1.75,1.75,0,0,1,0-.59c0-.09.14-.16.33-.22a.39.39,0,0,0,.32-.24,2.1,2.1,0,0,0,.08-.73,9,9,0,0,1,.12-1.21,13.38,13.38,0,0,0,.29-2.47,3.78,3.78,0,0,1,.85-2.39,7.77,7.77,0,0,1,2.71-2,.59.59,0,0,0,.32-.54c0-.23.07-.35.21-.35a.18.18,0,0,1,.2.21c0,.13.07.16.2.1s.17-.16.1-.29S50,18.47,50.36,18.2ZM52,17.33c.32-.18.52-.24.6-.19s0,.19-.32.33a1.29,1.29,0,0,1-.49.12C51.62,17.59,51.69,17.5,52,17.33ZM53.49,4.92a3,3,0,0,1,.61-1.54,1,1,0,0,1,1-.36A2.53,2.53,0,0,1,57,4.35c.18.44.4.69.64.75a2,2,0,0,0,1.18-.26A3.9,3.9,0,0,1,60,4.47a1.13,1.13,0,0,0,.61-.2A10.61,10.61,0,0,1,62,3.77c.69-.21,1.24-.35,1.64-.43a4.25,4.25,0,0,1,2.13.41,2.73,2.73,0,0,1,1.52,1.09c.35.84.06,1.87-.85,3.12a16.46,16.46,0,0,1-1.6,1.7,4.53,4.53,0,0,1-1.32,1,1,1,0,0,0-.3,0,8.77,8.77,0,0,0-1.2,1,6.8,6.8,0,0,0-.6.59.69.69,0,0,0-.22.38.2.2,0,0,0,.12.24,1.22,1.22,0,0,0,.46.13c1.46.24,2.19.66,2.19,1.25a.64.64,0,0,1-.39.57,16,16,0,0,1-1.88.68l-2.55.81a1.62,1.62,0,0,0-.67.33,1.4,1.4,0,0,0-.22.65c0,.51-.17.76-.34.76a.49.49,0,0,0-.43.29q-.2.36-1,.06a3.81,3.81,0,0,1-1.44-1c-.48-.54-.81-.78-1-.71s-.3,0-.38-.08,0-.22.28-.31.33-.2.34-.36a1.38,1.38,0,0,0-.26-.73,1.81,1.81,0,0,1-.28-.93c0-.3-.1-.44-.31-.44s-.3-.13-.3-.39a1,1,0,0,0-.3-.69c-.21-.2-.27-.71-.19-1.52s.15-1.57.21-2.3.1-1.35.16-1.86a3.42,3.42,0,0,1,.18-1A4.91,4.91,0,0,0,53.49,4.92ZM65,5c0-.11-.14-.16-.41-.16a5.16,5.16,0,0,0-1,.14c-.42.1-.83.21-1.23.34a15.71,15.71,0,0,0-2.63,1.14,8.52,8.52,0,0,1-.89.5,3.66,3.66,0,0,0-1.06.75,6.65,6.65,0,0,0-.34,2.49c-.07,1.5,0,2.3.14,2.41s.74-.09,1.5-.77,1.38-1.19,1.48-1.15.14,0,.14-.14a9.75,9.75,0,0,1,1.68-1.93A12.42,12.42,0,0,0,64,6.76a3,3,0,0,1,.48-.85A2.41,2.41,0,0,0,65,5ZM59,24.59c.46-.54.67-.69.65-.44a1.76,1.76,0,0,1-.49.81,5.35,5.35,0,0,1-.81.89c-.16,0,0-.33.41-1A2.47,2.47,0,0,1,59,24.59Z"/><path class="cls-2" d="M90.63,12.27A9.63,9.63,0,0,1,93,11.66l1,.2a2,2,0,0,1,1.05.61,1.66,1.66,0,0,1,.31.55,2.14,2.14,0,0,1,0,.75,9.57,9.57,0,0,1-.73,2.06,10.77,10.77,0,0,1-1.05,2c-.52.6-1.09,1.21-1.72,1.85a6.38,6.38,0,0,1-1.12,1,1.06,1.06,0,0,1-.77-.41c-.24-.21-.35-.27-.32-.16a1.82,1.82,0,0,1,0,1.78.85.85,0,0,1-.4.31,2.63,2.63,0,0,1-.73-.15c-.52-.13-.77-.27-.77-.42a.2.2,0,0,0-.22-.22q-.22,0-.63-.81a4.68,4.68,0,0,0-.63-1,.81.81,0,0,1-.22-.62c0-.27-.08-.41-.24-.41-.49,0-.73-.7-.73-2.1A7,7,0,0,0,84.8,14c-.43-1.27-.44-2,0-2.11a.57.57,0,0,1,.27,0s0,.09,0,.17,0,.3.28.42a4.28,4.28,0,0,1,1,1,3.28,3.28,0,0,0,.67.63c.09,0,.21,0,.34-.18a3.5,3.5,0,0,1,1.06-.77A18.88,18.88,0,0,1,90.63,12.27Zm1.62,1.42c0-.17.06-.27,0-.33s-.14-.08-.3-.08a4.16,4.16,0,0,0-1.16.24c-.5.17-1.06.34-1.68.53a2.83,2.83,0,0,0-.85.32,1.74,1.74,0,0,0-.4.57,1.78,1.78,0,0,0-.08,1.3,8.65,8.65,0,0,0,.46,1.13c.23.49.44.91.63,1.27s.31.52.36.47,0-.2-.2-.53a1.84,1.84,0,0,1-.24-.72c0-.17.4-.67,1.21-1.5s1.47-1.58,1.74-1.9A2.56,2.56,0,0,0,92.25,13.69ZM103.91,1.62c.38-.1.56-.09.56,0s.13.18.37.21a.32.32,0,0,1,.32.3,10,10,0,0,1,0,1.56,2,2,0,0,1-.14.71,1.16,1.16,0,0,1-.46.38c-.28.16-.41.3-.41.41a6.49,6.49,0,0,1-.47,1.19c-.31.69-.5,1.15-.58,1.4a11.42,11.42,0,0,0-.47,1.51,5.76,5.76,0,0,0-.26,1.2,5.54,5.54,0,0,0,1,.08A3.71,3.71,0,0,1,106,11.66l.2.27.15.16s0,.06,0,.06a4.32,4.32,0,0,0,.24,1c.19.57,0,2.08-.61,4.53-.21.92-.35,1.54-.4,1.87a12.09,12.09,0,0,1-1.2,3.46,12.64,12.64,0,0,1-1.84,3.09c-.54.6-1,.84-1.48.73s-.76-.54-1-1.29c-.13-.46-.25-.72-.34-.77a1.47,1.47,0,0,1-.34-.69,16.48,16.48,0,0,0-.63-1.6c-.26-.55-.43-.83-.51-.83s-.37.52-.79,1.56a6.7,6.7,0,0,0-.6,1.9,1,1,0,0,1-.23.67,2.27,2.27,0,0,0-.36.75A11.91,11.91,0,0,1,95.71,28c-.31.68-.54,1.21-.69,1.6s-.37.93-.66,1.6-.57,1.22-.73,1.62a7.49,7.49,0,0,1-.45.81,10.29,10.29,0,0,0-.93,2.19,17,17,0,0,1-.87,1.9,8.39,8.39,0,0,1-.83,1.5,2.29,2.29,0,0,1-1.09-.65.85.85,0,0,1-.33-.65,1.1,1.1,0,0,0-.32-.73,1,1,0,0,1-.32-.58,1.91,1.91,0,0,1,.22-.71l.44-.95q.22-.47.45-.39c.15.06.22,0,.22-.32,0-.51.15-.65.45-.41.1.08.23,0,.38-.18A2,2,0,0,0,91,33a1.14,1.14,0,0,0,0-.69c-.09-.18-.1-.28,0-.28L91,32c.1.06.18,0,.24-.08a2.91,2.91,0,0,0,.16-.69q.12-.84.45-.93a.35.35,0,0,0,.26-.14,1.52,1.52,0,0,0,.1-.47.83.83,0,0,1,.32-.5c.22-.2.29-.39.23-.55s0-.24.06-.24.21-.12.3-.36.3-.71.63-1.38a5.8,5.8,0,0,0,.55-1.6c0-.39.14-.63.3-.73a.47.47,0,0,0,.24-.44.68.68,0,0,1,.33-.55,1.48,1.48,0,0,0,.4-1.05,2,2,0,0,1,.28-1c.14-.15.17-.29.08-.41s-.06-.18.07-.18a.16.16,0,0,1,.18.18c0,.12,0,.15.14.08s.13-.28.1-.65a2.08,2.08,0,0,1,.24-1.11,14.26,14.26,0,0,0,.77-1.7c.11-.3.64-1.6,1.58-3.93l.61-1.49-.41-.33a1,1,0,0,0-.6-.32c-.17,0-.25-.06-.25-.18s-.05-.15-.16-.08-.16,0-.16-.06a.3.3,0,0,1,.18-.29.25.25,0,0,1,.31.08c.08.14.36.12.85,0a1.45,1.45,0,0,0,.66-.3,2.77,2.77,0,0,0,.43-.63,11.41,11.41,0,0,0,.58-1.44c.15-.44.56-1.39,1.22-2.85a15.9,15.9,0,0,0,1.07-2.71,6.08,6.08,0,0,1,.22-1A.43.43,0,0,1,103.91,1.62ZM95.19,23.2c-.13,0-.15-.06-.09-.16s.13-.17.19-.17.08.06.08.17S95.31,23.2,95.19,23.2Zm8.52-10.93c-.09-.14-.41-.18-1-.12a3.08,3.08,0,0,0-1.25.32,2.18,2.18,0,0,0-.39.93,3.89,3.89,0,0,1-.44,1.14,1.22,1.22,0,0,0-.22.72,1.69,1.69,0,0,1-.25.85,14.67,14.67,0,0,0-.58,1.5,5.84,5.84,0,0,0-.35,1.3.34.34,0,0,0,.23.36c.14.06.26.33.34.81s.21.91.38,1,.42-.18.71-.67a4.91,4.91,0,0,0,.53-.95c0-.06.08-.18.24-.34a.92.92,0,0,0,.24-.67,1.41,1.41,0,0,1,.17-.71,19.56,19.56,0,0,0,1.09-3A7.8,7.8,0,0,0,103.71,12.27Zm4.57.81a.82.82,0,0,1,0-.41c0-.05.11-.08.24-.08s.37.06.37.19.06.18.2.18.54.38.89,1.13c.11.27.19.42.26.45a.63.63,0,0,0,.39-.13,2.44,2.44,0,0,1,.87-.34c.33-.07,1.06-.24,2.16-.53a4.12,4.12,0,0,1,2-.24,2.74,2.74,0,0,0,1,.26,2.87,2.87,0,0,1,1.21.51c.41.28.61.53.61.75a2.83,2.83,0,0,1-.41,1,8.71,8.71,0,0,1-.72,1.16.7.7,0,0,1-.51.32,1,1,0,0,0-.63.38,3.78,3.78,0,0,1-.73.63c-.21.14-.33.24-.34.32s.07.17.26.25a1.89,1.89,0,0,1,1.38,1.17,1.19,1.19,0,0,1,.06.61c0,.11-.14.16-.3.16s-.25,0-.25.16-.32.18-1,.37a12.82,12.82,0,0,1-1.82.4,12.23,12.23,0,0,1-2,.12,3.46,3.46,0,0,1-1.64-.2,2.4,2.4,0,0,1-.83-1.17,2.54,2.54,0,0,0-.65-1c-.22-.16-.36-.68-.42-1.55a3.44,3.44,0,0,1,.22-1.89,2.78,2.78,0,0,0,.32-1.35A5.28,5.28,0,0,0,108.28,13.08Zm6.64,2q0-.19-1.26,0a8.3,8.3,0,0,0-1.84.49,5.34,5.34,0,0,0-1.27.52,2.58,2.58,0,0,0,.14.65c.09.33.17.64.24.95s.17.47.3.47a7.57,7.57,0,0,0,2-1.42C114.35,15.82,114.92,15.26,114.92,15.1Z"/><path class="cls-2" d="M142.56,1.38a9.3,9.3,0,0,1,.51-1.11c.12-.2.25-.29.38-.27s.33.21.35.53.06.84.14,1.56a6.29,6.29,0,0,1-.08,2Q143.5,5.8,143.17,9c-.22,2.15-.35,4.16-.4,6.05q-.09,3.28-.21,3.93c-.08.38-.09.57,0,.57a.7.7,0,0,0,.21-.13,11.23,11.23,0,0,0,1.19-1.66A10.12,10.12,0,0,0,145,16c.06-.19.08-.27.06-.26l-.14.18c-.19.24-.26.29-.2.12a10.13,10.13,0,0,1,.65-1.58,5.87,5.87,0,0,0,.89-2.79s0-.08,0-.08l.1,0c.11.11.24.06.4-.16s.33-.61.25-.77-.08-.05-.17,0-.08,0-.1-.06a.46.46,0,0,1,.06-.26c0-.22.06-.33.08-.33s.09.1.17.29.12.24.14.24,0-.07,0-.2.07-.37.2-.37.14.19,0,.57l-.12.36.24-.24a1.07,1.07,0,0,0,.29-.55c0-.12,0-.14.1-.08a3.65,3.65,0,0,1-.19,1.36c-.59,2.64-.89,4.13-.89,4.45a6.48,6.48,0,0,1-.72,2,7.29,7.29,0,0,0-.77,2.05,4.76,4.76,0,0,1-1.3,2.27,3.46,3.46,0,0,0-.77,1c0,.11-.16.33-.48.69a1.74,1.74,0,0,0-.39.7,8.66,8.66,0,0,0-.14,1.52,36.61,36.61,0,0,0,.53,6.23,20.49,20.49,0,0,1,.32,3.65A7.09,7.09,0,0,1,143,38c-.12.34-.37.44-.75.31a2.67,2.67,0,0,1-.91-.59c-.39-.34-.59-.56-.59-.67a5.1,5.1,0,0,0-.69-1.21,3.57,3.57,0,0,1-.68-1.4,1.84,1.84,0,0,0-.43-.93,3.85,3.85,0,0,1-.57-1.72c-.09-.76-.18-1.32-.26-1.7l0-.32c.08.08.58,1,1.5,2.71a2,2,0,0,0,.2.38,3.24,3.24,0,0,1,.2.33l.16.24.13.14,0,.08a30.53,30.53,0,0,0,0-3.52l-.17-3.44-.64.44a6.32,6.32,0,0,1-1.38.59,5.22,5.22,0,0,1-1.46.31c-.13,0-.46-.24-1-.71a2,2,0,0,1-.77-1.34,1.21,1.21,0,0,0-.22-.85c-.15-.15,0-.57.32-1.27a3.58,3.58,0,0,1,.71-1.12c.11,0,.3-.38.57-1s.46-1,.59-1,.18-.1.18-.28-.16-.29-.47-.29a1.48,1.48,0,0,1-.95-.4,3.51,3.51,0,0,0-.38-.29.57.57,0,0,0-.23-.08.11.11,0,0,0-.1.08,1.47,1.47,0,0,0,0,.25q0,.36-.93,1.23c-.62.58-1.33,1.28-2.14,2.09-1.73,1.67-2.77,2.44-3.12,2.3s-.32-.05-.32.08a1.21,1.21,0,0,1-.33.85,1.35,1.35,0,0,1-1,.33,1.56,1.56,0,0,1-.69-.16,1.86,1.86,0,0,1-.4-.69,2.81,2.81,0,0,0-.47-.87,1.44,1.44,0,0,1-.26-.71A6.32,6.32,0,0,0,124,21.7a2,2,0,0,1-.36-1,1.08,1.08,0,0,1,.24-.87,7.45,7.45,0,0,0,.61-2.57c.38-2.54.76-3.86,1.13-4,.14,0,.34,0,.61.28a4.82,4.82,0,0,1,1.46,2.15c0,.24.12.38.2.4a1.52,1.52,0,0,0,.69-.16,8,8,0,0,1,1.9-.4,3.23,3.23,0,0,1,1.09,0,4.91,4.91,0,0,1,1,.4,7.63,7.63,0,0,1,1.61,1.14c.44.4.65.54.65.4s.2-.39.61-.85a4.39,4.39,0,0,1,1-.89,6.19,6.19,0,0,0,1.09-1.17l.85-1-1.45-.28a8.9,8.9,0,0,1-1.22-.28.74.74,0,0,1-.44-.41.5.5,0,0,1,0-.46,2.16,2.16,0,0,1,.66-.55c1.25-.86,2.26-1.16,3-.89l.57.2.16-1a20.14,20.14,0,0,1,.4-2,4.76,4.76,0,0,1,.41-1.24l0,.25a.67.67,0,0,0,0,.24,16,16,0,0,0-.37,2.33,5.24,5.24,0,0,0,0,1.72c.19.32.33.27.41-.17a1,1,0,0,1,0-.28A26.94,26.94,0,0,1,141,6.91a24.26,24.26,0,0,1,.87-3.63C142,2.93,142.24,2.3,142.56,1.38ZM131.39,17.05a3.34,3.34,0,0,0-1.8-.09,2.55,2.55,0,0,0-1.48.73,3.79,3.79,0,0,0-.36,2.07q0,1.62.12,1.62c.24,0,.84-.46,1.78-1.36a9.92,9.92,0,0,0,1.86-2.16l.37-.61Zm8.83,3.68c.08-.35.08-.53,0-.53s-.21.16-.43.49a.93.93,0,0,1-.77.48q-.4,0-1.5,1a4.6,4.6,0,0,0-1.25,1.53q-.12.41,0,.51c.08.07.23,0,.44-.14a1.91,1.91,0,0,1,.65-.45h0a3.22,3.22,0,0,1-.44.45,3.18,3.18,0,0,1-.81.61c-.11,0-.16.1-.16.3s.05.3.16.3a6.51,6.51,0,0,0,1.41-.93c.84-.62,1.48-1.12,1.91-1.5a1.45,1.45,0,0,0,.6-1.11A2.84,2.84,0,0,1,140.22,20.73Zm-.09-5.1c0-.49,0-.77-.16-.85s-.4-.06-.89.08-.55.14-.6.08-.13.06-.31.26-.35.43-.52.67a1.2,1.2,0,0,0-.27.49c0,.08.1,0,.29-.1s.28-.15.28,0,.18.19.55.12a1.09,1.09,0,0,1,.91.18c.27.22.46.26.56.12A2,2,0,0,0,140.13,15.63ZM138,23.12c.22-.14.33-.19.34-.16s0,.12-.18.28-.28.25-.34.18S137.8,23.25,138,23.12Zm1-.81c.57-.7.84-.92.81-.65a.5.5,0,0,1,0,.16c-.05.19-.3.43-.73.73l-.65.49Zm11.46-21a1.78,1.78,0,0,1,1.9.44c.35.38.49.64.4.77A7.7,7.7,0,0,0,152.48,4c-.13.89-.23,1.5-.28,1.82a30.5,30.5,0,0,0-.45,4.33l0,.69h1.46a5.5,5.5,0,0,1,1.4.12,5.29,5.29,0,0,1,1.19.69,5.46,5.46,0,0,1,1,.75,1.15,1.15,0,0,1,.26.67,1.19,1.19,0,0,1-.26.85,17.92,17.92,0,0,1-1.68,1.7q-2.1,2-1.74,2.31a1,1,0,0,0,.49.08.83.83,0,0,1,.68.3.68.68,0,0,0,.49.3c.16,0,.49.26,1,.77s.67.82.63,1.08-.35.48-.91.66a4.2,4.2,0,0,1-1,.25,2.71,2.71,0,0,0-1.77,1c-.66.69-.92,1.22-.78,1.6a.39.39,0,0,0,.34.28,6.71,6.71,0,0,0,1.19,0,5.76,5.76,0,0,1,2.7.34c.71.31,1,.74,1,1.28,0,.81-.14,1.21-.33,1.21a3,3,0,0,0-1,.65,2,2,0,0,1-2.79.12,1.76,1.76,0,0,0-.67-.4c-.09,0-.22-.16-.38-.49-.33-.62-.5-.47-.53.45v.89a1.5,1.5,0,0,1,0,.44c.19,3.54.28,5.62.26,6.26a1.84,1.84,0,0,1-.34,1.27,1.12,1.12,0,0,1-.73.41,1.73,1.73,0,0,1-.79-.25c-.31-.16-.46-.31-.46-.44a2.21,2.21,0,0,0-.31-.81,2.11,2.11,0,0,1-.3-.87,1.37,1.37,0,0,0-.28-.71,2.63,2.63,0,0,1-.39-1.13,1.53,1.53,0,0,0-.3-.89,1.53,1.53,0,0,1-.51-1,4.65,4.65,0,0,1-.12-1.46q.06-.69.36-.69c.21,0,.27.28.19.85a2.2,2.2,0,0,0,0,.73c0,.11.13.19.32.24a1.16,1.16,0,0,0,.53.08c.05-.08.06-1.31,0-3.68,0-.19,0-1.4.08-3.64s.16-5,.24-8.14c.08-3.94.2-6.66.37-8.18.1-1,.1-1.47,0-1.41a3.48,3.48,0,0,0-.29,1.41c0,.22-.07.23-.12,0a1.1,1.1,0,0,1-.08-.24c-.11-.38-.16-.44-.16-.2a2.65,2.65,0,0,1-.65,1.33c-.11.14-.16.15-.16,0a4.17,4.17,0,0,1,.4-1.15,2.7,2.7,0,0,1,.57-1c.13-.08.17-.18.1-.28s0-.34.18-.69.29-.45.37-.29v.13c0,.13.09.09.12-.13v-.2a2.1,2.1,0,0,0,0-.52s-.07,0-.12.12-.21,0-.21-.25a3,3,0,0,1,.41-1.33C150,1.6,150.28,1.31,150.5,1.26Zm-3,7c.08-.19.18-.28.31-.28s.1.12-.06.36-.3.42-.33.29A1.45,1.45,0,0,1,147.5,8.3Zm6.24,5.06a5.5,5.5,0,0,1-1.5-.12l-.73-.16v1.46c0,1,.07,1.55.22,1.68s.49-.08,1-.59.94-.9.94-1.07.05-.27.16-.27.23-.16.36-.48.14-.35.1-.39A1.36,1.36,0,0,0,153.74,13.36ZM152.48,21a3,3,0,0,0-.79-.22c-.12,0-.18.42-.18,1.27s.05,1.28.16,1.28.37-.28.79-.85a3.28,3.28,0,0,0,.63-1C153.09,21.28,152.89,21.14,152.48,21Z"/></g></g></svg>